<svg width="61" height="60" viewBox="0 0 61 60" fill="none" xmlns="http://www.w3.org/2000/svg">
<rect x="2.71484" y="4.42859" width="52.2857" height="8.57143" fill="#BBB0FD"/>
<rect x="11.2861" y="22.8571" width="6.85714" height="6" fill="#BBB0FD"/>
<rect x="11.2861" y="38.2857" width="6.85714" height="6" fill="#BBB0FD"/>
<rect x="25" y="38.2857" width="6.85714" height="6" fill="#BBB0FD"/>
<rect x="25" y="22.8571" width="6.85714" height="6" fill="#BBB0FD"/>
<rect x="39.5713" y="22.8571" width="6.85714" height="6" fill="#BBB0FD"/>
<circle cx="49.0003" cy="45.1429" r="11.1429" fill="white"/>
<path d="M12.0576 11.0013C12.0576 10.4895 11.6566 10.0724 11.1569 10.0643H8.25143C7.74909 10.0724 7.34389 10.4872 7.3363 11.0013C7.35148 11.5119 7.75251 11.9224 8.25143 11.9379H11.1569C11.6536 11.922 12.05 11.5096 12.0576 11.0013Z" fill="#5C5E7A"/>
<path d="M25.8148 12.0123H28.7202C29.2226 12.0045 29.6278 11.5898 29.6357 11.0757C29.6357 10.5584 29.226 10.139 28.7202 10.139H25.8148C25.3094 10.139 24.8997 10.5584 24.8997 11.0757C24.8997 11.5929 25.3094 12.0123 25.8148 12.0123Z" fill="#5C5E7A"/>
<path d="M43.4659 12.0123H46.3718C46.868 11.9968 47.2649 11.584 47.2725 11.0757C47.2725 10.5643 46.8714 10.1472 46.3718 10.139H43.4659C42.9583 10.139 42.5443 10.5561 42.5364 11.0757C42.5443 11.5956 42.9583 12.0127 43.4659 12.0123Z" fill="#5C5E7A"/>
<path d="M34.6333 12.0123H37.5387C38.0354 11.9968 38.4319 11.584 38.4395 11.0757C38.4395 10.5643 38.0384 10.1472 37.5387 10.139H34.6333C34.1275 10.139 33.7178 10.5584 33.7178 11.0757C33.7257 11.5898 34.1309 12.0045 34.6333 12.0123Z" fill="#5C5E7A"/>
<path d="M19.9321 10.0639H17.0263C16.5186 10.0639 16.1047 10.481 16.0967 11.0009C16.0808 11.2584 16.1677 11.5112 16.3376 11.7018C16.5072 11.8925 16.7455 12.0043 16.9974 12.0117H19.9029C20.1495 11.9966 20.3802 11.8812 20.5437 11.6917C20.7077 11.5018 20.7904 11.2533 20.7744 11.0009C20.7759 10.5112 20.4091 10.1027 19.9321 10.0639Z" fill="#5C5E7A"/>
<path d="M31.8299 24.8643V28.5665C31.8299 29.3105 31.5431 30.0246 31.0317 30.5535C30.5202 31.0827 29.8255 31.3837 29.0986 31.3915H25.4665C24.7384 31.3876 24.0414 31.0878 23.5292 30.5581C23.017 30.0281 22.7317 29.3116 22.7355 28.5665V24.8643C22.7355 24.1214 23.0227 23.4088 23.5346 22.8822C24.0464 22.3557 24.7411 22.0578 25.4665 22.054H29.0987C29.8245 22.0578 30.5192 22.3557 31.031 22.8822C31.5425 23.4088 31.8301 24.1214 31.8301 24.8643L31.8299 24.8643ZM30.0141 24.8643H30.0137C30.0137 24.3466 29.604 23.9273 29.0986 23.9273H25.4665C25.2214 23.9234 24.9846 24.0205 24.8101 24.1964C24.6352 24.3726 24.5369 24.613 24.5369 24.8643V28.5665C24.5369 28.8173 24.6352 29.0581 24.8101 29.234C24.9846 29.4103 25.2214 29.5074 25.4665 29.5031H29.0986C29.604 29.5031 30.0137 29.0837 30.0137 28.5665L30.0141 24.8643Z" fill="#5C5E7A"/>
<path d="M27.2822 25.7858C26.7764 25.7858 26.3667 26.2052 26.3667 26.7224C26.3667 27.2396 26.7764 27.659 27.2822 27.659C27.7875 27.659 28.1973 27.2396 28.1973 26.7224C28.1973 26.2052 27.7875 25.7858 27.2822 25.7858Z" fill="#5C5E7A"/>
<path d="M17.8691 24.8643V28.5665C17.8691 29.3132 17.5804 30.0297 17.0659 30.5589C16.5515 31.0882 15.853 31.3876 15.1234 31.3915H11.5061C10.7765 31.3876 10.0785 31.0882 9.56358 30.5589C9.0491 30.0297 8.76038 29.3132 8.76038 28.5665V24.8643C8.76038 24.1265 9.04379 23.4182 9.54916 22.8928C10.0545 22.367 10.742 22.0657 11.4625 22.054H15.0801C15.8158 22.042 16.5253 22.3328 17.0496 22.8609C17.5739 23.3894 17.8695 24.1109 17.8691 24.8642L17.8691 24.8643ZM16.0533 24.8643C16.0454 24.3443 15.6314 23.9272 15.1234 23.9272H11.5062C11.2622 23.9234 11.027 24.0208 10.8547 24.1971C10.6821 24.3738 10.5869 24.6146 10.591 24.8643V28.5665C10.5869 28.8161 10.6821 29.0569 10.8547 29.2332C11.027 29.4099 11.2622 29.5073 11.5062 29.5031H15.0802C15.5878 29.5031 16.0018 29.086 16.0097 28.5664L16.0533 24.8643Z" fill="#5C5E7A"/>
<path d="M39.4705 22.054H43.1026C43.8284 22.0578 44.5231 22.3557 45.0349 22.8822C45.5468 23.4088 45.834 24.1214 45.834 24.8643V28.5665C45.834 29.3105 45.5472 30.0246 45.0357 30.5535C44.5243 31.0827 43.8296 31.3837 43.1027 31.3915H39.4705C38.7451 31.3837 38.052 31.082 37.5427 30.5527C37.0335 30.0234 36.7501 29.3093 36.7539 28.5665V24.8643C36.7539 24.1238 37.0393 23.4135 37.548 22.8873C38.0565 22.3611 38.7474 22.0618 39.4705 22.054L39.4705 22.054ZM38.5553 28.5665C38.5553 29.0837 38.9651 29.5031 39.4705 29.5031H43.1026C43.6079 29.5031 44.0177 29.0837 44.0177 28.5665V24.8643C44.0177 24.3466 43.6079 23.9272 43.1026 23.9272H39.4705C38.9651 23.9272 38.5553 24.3466 38.5553 24.8643V28.5665Z" fill="#5C5E7A"/>
<path d="M17.8691 40.0302V43.7623C17.8691 44.5048 17.5792 45.2166 17.0632 45.7389C16.5476 46.2612 15.8491 46.5508 15.1233 46.5427H11.506C10.7741 46.5586 10.0665 46.2732 9.54215 45.7505C9.01781 45.2278 8.72035 44.5114 8.71655 43.7623V40.0302C8.72035 39.2873 9.01136 38.5763 9.52583 38.0528C10.0407 37.529 10.7365 37.2346 11.4624 37.2346H15.0801C15.8142 37.2187 16.5241 37.5061 17.0489 38.0322C17.5736 38.558 17.8695 39.2783 17.8691 40.0302H17.8691ZM16.0533 40.0302C16.0373 39.5188 15.6234 39.1149 15.1233 39.1231H11.5061C11.2659 39.1153 11.0329 39.2069 10.8607 39.3782C10.6881 39.5491 10.5906 39.7844 10.5909 40.0302V43.7623C10.5868 44.012 10.682 44.2528 10.8546 44.429C11.0269 44.6057 11.2621 44.7032 11.5061 44.6989H15.0801C15.5878 44.6989 16.0017 44.2819 16.0097 43.7623L16.0533 40.0302Z" fill="#5C5E7A"/>
<path d="M31.83 40.0302V43.7623C31.8259 44.5013 31.5368 45.2085 31.0249 45.7292C30.5131 46.2503 29.8207 46.5427 29.0987 46.5427H25.4666C24.7438 46.547 24.0491 46.2557 23.5361 45.7338C23.0236 45.2119 22.7356 44.5024 22.7356 43.7623V40.0302C22.7356 39.2889 23.0232 38.5779 23.5354 38.0536C24.0476 37.5294 24.7423 37.2347 25.4666 37.2347H29.0987C29.823 37.2347 30.5177 37.5294 31.0299 38.0536C31.5422 38.5779 31.8301 39.2889 31.8301 40.0302L31.83 40.0302ZM30.0142 40.0302H30.0138C30.0101 39.7856 29.9114 39.553 29.7399 39.3825C29.5684 39.2124 29.3377 39.1192 29.0987 39.1231H25.4666C25.2253 39.1153 24.9908 39.2066 24.8163 39.3775C24.6414 39.5479 24.5408 39.7832 24.5371 40.0302V43.7623C24.5371 44.0132 24.6353 44.254 24.8102 44.4299C24.9848 44.6062 25.2215 44.7032 25.4666 44.699H29.0987C29.6041 44.699 30.0138 44.2796 30.0138 43.7623L30.0142 40.0302Z" fill="#5C5E7A"/>
<path d="M59.9988 46.4391C60.0489 50.2819 58.4824 53.9612 55.6983 56.5401C52.9142 59.1189 49.1816 60.348 45.4513 59.9145C41.7202 59.4812 38.3514 57.427 36.2028 54.2754H3.64648C2.68052 54.2796 1.75326 53.8898 1.0688 53.192C0.384727 52.4946 0 51.5467 0 50.5584V6.31793C0.00379562 5.32928 0.389271 4.38253 1.0722 3.68318C1.75512 2.98421 2.68055 2.58968 3.64648 2.5858H8.19363V1.09893C8.16062 0.832157 8.24105 0.563831 8.41482 0.3619C8.58859 0.15998 8.83862 0.0446448 9.10155 0.0446448C9.36447 0.0446448 9.6145 0.15998 9.78827 0.3619C9.96204 0.563821 10.0425 0.832157 10.0095 1.09893V2.5858H17.2732V1.09893C17.2614 0.843033 17.3525 0.592958 17.5255 0.407728C17.6985 0.222111 17.9383 0.117263 18.1887 0.117651C18.6884 0.125806 19.0894 0.542856 19.0894 1.05428V2.54115H26.3531V1.05428C26.3531 0.803428 26.4514 0.562668 26.6263 0.386763C26.8012 0.21047 27.0376 0.113774 27.283 0.117661C27.7827 0.125816 28.1838 0.542865 28.1838 1.05429V2.54116H35.4475V1.05429C35.4145 0.787512 35.4949 0.519186 35.6687 0.317256C35.8424 0.115335 36.0925 0 36.3554 0C36.6183 0 36.8683 0.115335 37.0421 0.317256C37.2159 0.519176 37.2963 0.787512 37.2633 1.05429V2.54116H44.527V1.05429C44.494 0.787512 44.5748 0.519186 44.7486 0.317256C44.9224 0.115335 45.1724 0 45.4353 0C45.6979 0 45.9483 0.115335 46.122 0.317256C46.2958 0.519176 46.3763 0.787512 46.3432 1.05429V2.54116H50.9049C51.8758 2.54543 52.8057 2.94384 53.4893 3.64937C54.173 4.35457 54.5551 5.30941 54.5513 6.30311V35.5556C57.9755 38.0723 60.0034 42.1249 59.9988 46.4391ZM35.1127 52.3866C33.0654 48.2277 33.2771 43.2794 35.6723 39.3196C38.0674 35.3598 42.3013 32.96 46.8508 32.9822C48.8764 32.9943 50.8691 33.5041 52.6617 34.4691V12.0122H52.2258C51.7235 12.0044 51.3186 11.5897 51.3107 11.0756C51.3107 10.5583 51.7204 10.1389 52.2262 10.1389H52.7346V6.30273C52.7346 5.8084 52.5407 5.33504 52.1966 4.98824C51.8525 4.64144 51.3869 4.45081 50.9039 4.45897H46.3715V6.06463C46.3135 6.53294 45.9242 6.88359 45.4632 6.88359C45.0022 6.88359 44.6134 6.53295 44.5553 6.06463V4.57776H37.2916V6.06463C37.2335 6.53294 36.8446 6.88359 36.3837 6.88359C35.9227 6.88359 35.5334 6.53295 35.4757 6.06463V4.57776H28.212L28.2116 6.06463C28.2037 6.56789 27.803 6.97174 27.3109 6.97174C27.0681 6.97989 26.8325 6.88864 26.6553 6.71855C26.4781 6.54847 26.3742 6.31315 26.3666 6.06463V4.57776H19.1029V6.06463C19.0949 6.56789 18.6939 6.97174 18.2021 6.97174C17.7021 6.98028 17.2881 6.57643 17.2722 6.06463V4.57776H10.0085V6.06463C9.95045 6.53294 9.56155 6.88359 9.10057 6.88359C8.6396 6.88359 8.2507 6.53295 8.19265 6.06463V4.57776H3.6455C3.19477 4.58786 2.76414 4.77075 2.43858 5.09033C2.11305 5.40953 1.91652 5.84212 1.88769 6.30263V10.0643H2.33804C2.84341 10.0643 3.25317 10.4837 3.25317 11.0013C3.2452 11.5151 2.84 11.9298 2.33804 11.9379H1.88769V50.5578C1.88769 51.0521 2.07852 51.5263 2.41847 51.8773C2.7588 52.2283 3.22054 52.4271 3.70348 52.431L35.1127 52.3866ZM58.1971 46.4391C58.1971 43.364 57.0039 40.4151 54.88 38.2401C52.7557 36.0651 49.8749 34.8427 46.8703 34.8415C43.8658 34.8399 40.9839 36.06 38.858 38.233C36.7322 40.406 35.5363 43.3542 35.534 46.4293C35.5314 49.5044 36.7219 52.4544 38.8443 54.6313C40.9664 56.8079 43.8464 58.033 46.851 58.0369C49.8578 58.0369 52.7413 56.8157 54.869 54.6411C56.9963 52.4665 58.1933 49.5165 58.1971 46.4391Z" fill="#5C5E7A"/>
<path d="M52.7353 45.5017H47.7814V39.2269C47.7814 38.7096 47.3717 38.2902 46.8659 38.2902C46.3606 38.2902 45.9508 38.7096 45.9508 39.2269V46.4383C45.9508 46.9501 46.3518 47.3672 46.8515 47.3753H52.7353C53.2406 47.3753 53.6504 46.9559 53.6504 46.4383C53.6504 45.9211 53.2406 45.5017 52.7353 45.5017L52.7353 45.5017Z" fill="#5C5E7A"/>
<path d="M13.2631 40.9666C12.8917 40.9666 12.557 41.1964 12.4163 41.5487C12.2755 41.9005 12.3567 42.3043 12.6211 42.5711C12.886 42.8379 13.2821 42.9144 13.6235 42.7645C13.965 42.615 14.1843 42.2686 14.1786 41.8884C14.1786 41.6415 14.0815 41.4046 13.9096 41.2314C13.7373 41.0582 13.5044 40.9627 13.2631 40.9665L13.2631 40.9666Z" fill="#5C5E7A"/>
</svg>
