<svg width="22" height="22" viewBox="0 0 22 22" fill="none" xmlns="http://www.w3.org/2000/svg">
<path d="M3.42413 1.26874C1.98093 1.90014 1.20671 4.35058 1 5.49687C2.9393 16.2307 12.7072 20.3047 17.3488 21L20.393 19.0269C21.1146 16.0503 18.4011 14.0659 16.9541 13.4457C15.556 12.5888 14.0038 14.78 13.4025 15.9826C12.6358 16.2081 11.3918 15.7007 10.8656 15.4189C6.67133 13.0737 5.77309 9.40554 5.84825 7.86462C7.20125 7.45872 7.87775 6.34249 8.04688 5.83512C7.82138 2.00162 4.87108 1.19358 3.42413 1.26874Z" stroke="#5C5E7A"/>
<path d="M12.106 4.87651C13.4965 4.6698 16.413 5.29368 16.9542 9.44288" stroke="#5C5E7A"/>
<path d="M12.0483 1.04341C14.8295 0.723954 20.4933 2.02434 20.8992 9.78154" stroke="#5C5E7A"/>
<path d="M3.9132 2.14608C2.50007 1.7928 1.70518 4.3541 1.48438 5.67892C3.25079 16.2774 13.1133 19.7367 17.1613 20.4727L19.3694 18.7062C20.0759 16.4099 17.8973 14.6582 16.7197 14.0694C15.4832 13.1862 13.9965 15.1734 13.4077 16.2774C13.0544 16.6307 12.5245 16.4246 12.3037 16.2774C6.82779 14.3344 5.31161 9.43255 5.23801 7.22452L6.56283 6.34132C7.88764 4.13329 5.67962 2.58769 3.9132 2.14608Z" fill="#BBB0FD"/>
<path d="M20.0298 10.0949C19.4999 3.2059 14.657 1.92525 12.3018 2.14605L12.5226 1.04205C19.2349 1.2187 20.913 7.15091 20.913 10.0949H20.0298Z" fill="#BBB0FD"/>
<path d="M16.2222 10.095C15.9233 6.06236 13.1914 5.31271 11.8628 5.44196L11.9873 4.79572C15.7738 4.89912 16.7204 8.37163 16.7204 10.095H16.2222Z" fill="#BBB0FD"/>
</svg>
