<svg width="32" height="34" viewBox="0 0 32 34" fill="none" xmlns="http://www.w3.org/2000/svg">
<path d="M5.49998 8.5V14L16.5 22L26.5 14V8.5C26.5 6.5 24.8333 6 24 6H7.99998C5.59998 6 5.33331 7.66667 5.49998 8.5Z" fill="#E5E1FD"/>
<path d="M29.7174 30.2439V16.1951L28.2374 14L15.9008 23.2195C12.1175 20.1463 4.25469 14 3.07037 14C1.88606 14 1.91896 15.4634 2.08344 16.1951V29.3659C2.47821 31.4732 3.89281 32 4.55076 32H27.2501C30.4083 31.6488 30.2109 30.6829 29.7174 30.2439Z" fill="#E5E1FD"/>
<path d="M1.52734 12.1127L16.1833 24.6749L30.7586 12.1127" stroke="#878AB4"/>
<path d="M4.34599 12.4348V7.68374C4.29231 6.90531 4.73252 5.30014 6.92285 5.10687H25.7661C26.5446 5.40214 28.0692 6.44362 27.9404 8.24743V13.1596" stroke="#878AB4"/>
<path d="M9.74121 12.4348H22.3034" stroke="#878AB4"/>
<path d="M9.58008 15.6559H22.3839" stroke="#878AB4"/>
<path d="M12.2373 18.9575H19.6458" stroke="#878AB4"/>
<path d="M12.2373 4.14055L16.0221 1L19.8068 4.14055" stroke="#878AB4"/>
<path d="M3.05714 10.8243C2.46661 10.7706 1.23723 11.243 1.04396 13.5622V30.0702C0.856068 31.1171 1.17281 33.2269 3.94294 33.2913H27.94C28.8526 33.4255 30.7423 33.1463 31 30.956V13.5622C30.8389 12.9985 31 11.4685 29.2284 10.8243" stroke="#878AB4"/>
<path d="M19.4043 24.3528L30.2754 32.4055" stroke="#878AB4"/>
<path d="M12.7199 24.6749L2.1709 32.6471" stroke="#878AB4"/>
<path d="M16 2.5L14 4.5H18.5L16 2.5Z" fill="#E5E1FD"/>
</svg>
