<svg width="30" height="30" viewBox="0 0 30 30" fill="none" xmlns="http://www.w3.org/2000/svg">
<rect x="0.5" y="0.5" width="29" height="29" rx="3.5" fill="#E5E1FD" stroke="#878AB4"/>
<path d="M9.6207 5.1255C7.21794 6.04964 5.9036 7.3229 5 8.32919C6.38005 21.1439 16.5826 24.6762 21.5113 24.8405C22.2013 24.4955 23.8525 22.027 24.5918 20.8359C25.3311 19.7516 24.8998 19.0287 24.5918 18.8028L19.4782 17.1393C18.6403 16.8436 18.3076 17.509 18.092 17.8478L17.5991 18.8028C17.1555 19.8871 16.1308 19.7885 15.72 19.6037C14.0935 19.1108 11.3868 15.825 10.2368 14.2437C9.54677 13.2579 10.2368 12.6829 10.6681 12.5186L11.777 11.9025C12.6642 11.5575 12.5163 10.6087 12.3315 10.1775L11.0993 6.04964C10.8036 4.81745 9.99036 4.92014 9.6207 5.1255Z" fill="#E5E1FD" stroke="#878AB4"/>
</svg>
