<svg width="30" height="23" viewBox="0 0 30 23" fill="none" xmlns="http://www.w3.org/2000/svg">
<rect width="30" height="22.5" rx="5" fill="white"/>
<rect width="30" height="22.5" rx="5" stroke="#5C5E7A"/>
<path fill-rule="evenodd" clip-rule="evenodd" d="M5 1H25C25.9185 1 26.7648 1.30961 27.44 1.83017L14.5967 13.3254L2.29657 2.05184C3.00848 1.39867 3.95768 1 5 1ZM1.64905 2.81486C1.2386 3.44301 1 4.19364 1 5V17.5C1 18.6849 1.51518 19.7494 2.33377 20.4819L10.7914 13.1228L11.4478 13.8772L3.18593 21.0659C3.73042 21.3435 4.34694 21.5 5 21.5H25C25.7461 21.5 26.4446 21.2957 27.0424 20.94L17.7133 14.4096L18.2867 13.5904L27.8628 20.2936C28.5664 19.5727 29 18.587 29 17.5V5C29 4.07047 28.6829 3.21499 28.1511 2.53582L14.9262 14.3726L14.5887 14.6746L14.2549 14.3686L1.64905 2.81486ZM0 5C0 2.23858 2.23858 0 5 0H25C27.7614 0 30 2.23858 30 5V17.5C30 20.2614 27.7614 22.5 25 22.5H5C2.23858 22.5 0 20.2614 0 17.5V5Z" fill="#5C5E7A"/>
<path fill-rule="evenodd" clip-rule="evenodd" d="M14.5 12L26 2H3.5L14.5 12ZM19 12.5001L28 4.50012V19.0001L19 12.5001ZM10 12.5001L2 5.12658V19.557L10 12.5001ZM5 21L12.25 14.7468L14.5 16.5001L17 14.7468L25.75 21H5Z" fill="#BBB0FD"/>
</svg>
