<svg width="75" height="75" viewBox="0 0 75 75" fill="none" xmlns="http://www.w3.org/2000/svg">
<circle cx="37.5" cy="37.5" r="37.5" fill="#8A80C6"/>
<path d="M26.5455 20.6116H23.6046C22.654 20.3447 20.8063 20.4337 21.0201 22.9244V54.5927C20.9013 55.423 21.2519 57.0657 23.6046 56.9945H46.5971C47.518 57.0538 49.3954 56.6565 49.538 54.5927V48.8996" stroke="white" stroke-width="2"/>
<path d="M49.3047 46.4737V43.9006" stroke="white" stroke-width="2"/>
<path d="M43.6895 20.5268H46.7142C47.3463 20.447 48.5765 20.5968 48.9242 21.7111M48.9242 21.7111C48.9631 21.8357 48.991 21.9724 49.0057 22.1221C49.1524 23.6112 49.0125 22.4686 48.9242 21.7111Z" stroke="white" stroke-width="2"/>
<path d="M27.6207 18.1092V19.5291L27.6207 23.079C27.2575 24.7829 28.3472 24.7947 29.1645 24.6764H40.4245C42.2406 24.6764 42.5736 23.6114 42.513 23.079V18.1092C42.4404 16.9732 41.0904 16.9259 40.4245 17.0442H29.1645C27.7842 17.0442 27.5602 17.7542 27.6207 18.1092Z" stroke="white" stroke-width="2"/>
<path d="M31.7598 49.9824L35.4748 39.9869L48.3889 27.8495C50.3702 25.9932 52.2808 27.076 52.9884 27.8495C55.1113 29.6344 54.4626 32.3415 53.8729 33.472L41.4011 46.4126L31.7598 49.9824Z" stroke="white" stroke-width="2"/>
<path d="M35.7363 40.1579L41.3504 46.4737" stroke="white" stroke-width="2"/>
<path d="M45.5625 30.5673L51.1765 36.4152" stroke="white" stroke-width="2"/>
</svg>
