<svg width="483" height="346" viewBox="0 0 483 346" fill="none" xmlns="http://www.w3.org/2000/svg">
<path d="M80.4656 239.731C49.0351 267.548 62.6074 306.834 73.3223 323L405.996 320.255C406.404 266.816 375.552 217.465 360.075 199.469C295.581 113.821 215.848 112.235 184.044 122.148C141.184 141.913 154.96 162.715 167.206 170.646C177.41 176.868 182.683 183.914 184.044 186.659C185.676 203.13 161.593 209.077 149.347 209.992C111.794 215.483 87.779 232.106 80.4656 239.731Z" fill="#F0F1FF"/>
<ellipse cx="247.643" cy="142.172" rx="13.2504" ry="13.7181" fill="#FBA17F"/>
<path d="M219.428 184.886C200.097 183.015 189.809 163.997 185.444 154.643C183.199 161.627 177.026 155.683 174.22 151.837L182.638 140.302L188.25 134.69C196.231 130.699 203.839 108.813 206.021 101.018C210.012 110.496 235.12 126.896 247.799 131.26C254.284 137.496 255.074 149.967 253.099 156.514C244.637 184.574 227.949 184.782 219.428 184.886Z" fill="#FBA17F"/>
<circle cx="203.877" cy="144.941" r="3.31321" fill="#0B2D50"/>
<circle cx="229.058" cy="144.941" r="3.31321" fill="#0B2D50"/>
<path d="M208.518 140.029C206.023 136.536 200.41 138.574 197.916 140.029C200.41 134.042 206.023 134.624 208.518 135.663V140.029Z" fill="#0B2D50"/>
<path d="M225.745 140.029C228.24 136.536 233.853 138.574 236.347 140.029C233.853 134.041 228.24 134.624 225.745 135.663V140.029Z" fill="#0B2D50"/>
<path d="M213.816 157.922L220.687 157.641C219.224 159.657 216.452 159.648 215.25 159.392L213.816 157.922Z" fill="#E6775C"/>
<path d="M255.273 110.78C240.308 80.1011 216.406 79.914 206.325 83.6553C168.6 76.4845 167.985 145.821 167.985 150.59C167.985 159.632 162.955 167.738 161.118 179.682C158.623 195.894 172.134 198.077 179.2 197.141C182.443 191.405 197.803 190.386 205.078 190.594C211.812 188.848 211.625 184.255 210.69 182.176C196.972 176.439 188.554 161.287 186.06 154.428C183.565 158.169 177.746 154.532 175.147 152.246L189.177 134.786C196.41 130.047 203.623 113.274 206.325 105.48C210.316 116.205 238.542 129.486 252.156 134.786L260.262 144.14C260.012 149.128 254.754 153.077 252.156 154.428C252.156 164.405 240.516 177.084 234.696 182.176V189.347L240.308 192.776C255.273 191.529 266.497 199.947 270.239 204.312L278.657 200.571C292.071 190.594 292.383 173.662 282.095 163.997C277.337 159.527 274.3 159.32 270.239 150.59L262.444 130.421L255.273 110.78Z" fill="#0B2D50"/>
<path d="M253.411 150.053C255.906 134.09 241.772 128.021 234.393 126.982L243.435 122.617C244.474 120.434 247.924 117.379 253.411 122.617C258.899 127.855 255.698 143.09 253.411 150.053Z" fill="#0B2D50"/>
<path d="M186.253 152.773C183.509 138.805 189.267 127.415 192.488 123.466L184.07 126.272C180.08 141.237 183.863 150.175 186.253 152.773Z" fill="#0B2D50"/>
<path d="M219 169.544C214.721 170.532 211.869 167.487 210.978 165.842C215.832 168.392 222.326 166.904 224.966 165.842C223.814 167.981 220.509 169.201 219 169.544Z" fill="white"/>
<path d="M220.337 169.75C215.154 170.82 212.143 167.864 211.286 166.253L208.509 165.122C218.136 177.382 225 169.681 227.229 164.299L224.863 166.253C224.287 167.405 221.606 169.064 220.337 169.75Z" fill="#8E1D19"/>
<path d="M207.893 164.196C212.11 165.602 222.004 167.405 227.846 163.373C225.446 166.767 218.096 171.684 207.893 164.196Z" fill="#F6565E"/>
<path d="M218.693 171.396C215.093 171.529 209.984 167.111 208.202 164.402C210.094 171.89 215.504 173.83 217.973 173.865C225.131 174.523 227.264 167.282 227.435 163.579C224.884 169.75 221.573 171.289 218.693 171.396Z" fill="#FF6F75"/>
<path d="M175.779 198.761C186.255 188.285 201.345 189.2 207.58 190.966C227.035 202.44 236.471 195.747 238.758 190.966L249.046 192.525C269.499 192.525 281.055 219.338 284.277 232.744L291.136 271.404H307.66C303.669 286.868 311.609 292.397 316.078 293.228L298.307 300.088C288.579 305.575 277.21 303.829 272.741 302.27L284.277 321H169.5L180.612 283.719C185.725 268.754 184.509 253.373 183.262 247.554L164.711 274.678C158.975 283.158 150.37 284.863 146.784 284.655C135.186 284.655 124.181 267.403 120.128 258.777C113.393 247.928 104.331 216.116 100.642 201.567C110.244 201.692 120.439 195.591 124.336 192.525L147.72 238.98C149.964 226.01 167.361 206.763 175.779 198.761Z" fill="#8370F0"/>
<path d="M204.774 190.809C211.945 188.471 210.698 182.703 209.139 180.832C219.864 186.569 230.86 183.223 235.017 180.832C233.769 185.571 237.615 190.082 239.693 191.745C228.002 206.086 211.322 196.213 204.774 190.809Z" fill="#FBA17F"/>
<path d="M224.728 203.28C209.607 202.813 203.579 194.187 200.721 189.718L206.333 190.186C210.074 195.798 215.011 197.201 219.428 197.98C233.146 200.35 238.446 194.083 239.381 190.653L244.681 192.056C238.29 202.813 229.716 203.28 224.728 203.28Z" fill="#9C89FF"/>
<path d="M271.494 228.846L267.129 201.41C285.088 210.888 291.344 250.826 292.383 270.779H313.428C308.938 280.257 305.166 286.68 315.766 293.695L295.657 301.489L284.901 304.451C267.441 305.948 265.882 294.526 267.129 289.33L271.494 258.153C272.741 250.826 273.521 241.473 271.494 228.846Z" fill="#8370F0"/>
<path d="M262.764 265.958L217.557 273.753H260.27L262.764 265.958Z" fill="#504B4B"/>
<path d="M312.96 271.559C316.909 275.716 323.062 285.9 316.078 293.383C311.245 292.24 303.856 286.275 312.96 271.559Z" fill="#5D49C4"/>
<path d="M100.486 201.41C105.63 197.772 117.54 190.872 124.025 192.368C121.063 195.954 112.209 202.781 100.486 201.41Z" fill="#5D49C3"/>
<path d="M120.128 193.771C116.075 188.705 115.036 184.47 114.672 180.832C114.672 190.435 106.202 197.253 102.513 199.539L105.63 201.41L113.269 199.071L120.907 195.018C120.907 195.018 120.751 194.551 120.128 193.771Z" fill="#F8A38E"/>
<path d="M104.565 146.659C99.4519 145.786 98.0697 149.829 98.0177 151.959C97.3942 155.451 98.9011 162.871 99.7325 166.145L93.8088 163.339C88.571 161.094 85.7026 163.027 84.9232 164.274C82.5537 166.644 84.2477 169.522 85.3909 170.665C85.0271 170.717 84.175 171.133 83.6761 172.38C83.1773 173.627 83.884 176.018 84.2997 177.057C83.302 177.057 82.3251 177.888 81.9614 178.304C80.7143 180.05 81.4417 183.084 81.9614 184.384C81.8055 184.02 81.4002 183.947 81.026 186.566C80.6519 189.185 84.4036 193.061 86.3262 194.672C89.4439 198.039 98.7452 199.401 103.006 199.66C110.239 198.039 113.71 190.255 114.542 186.566C114.885 185.041 114.68 181.144 114.542 178.304C114.353 174.441 109.865 167.963 107.683 165.677C104.69 160.564 104.357 150.868 104.565 146.659Z" fill="#FFAE96"/>
<path d="M89.723 163.412C89.4514 163.393 89.1927 163.38 88.9502 163.373C89.2077 163.373 89.4656 163.386 89.723 163.412C93.5252 163.678 99.8623 165.186 99.8623 169.609C101.109 174.441 101.733 185.291 94.2503 190.03C92.6915 190.861 88.6072 192.368 84.7412 191.745C87.5472 191.9 93.3774 191.246 94.2503 187.38L93.7827 186.6C94.6141 186.081 96.308 184.387 96.4328 181.768C96.3288 181.04 95.9339 179.523 95.1857 179.274C96.1729 179.118 98.1787 178.245 98.3034 176C98.5112 175.428 98.6775 174.036 97.6798 173.038L97.0563 172.259C98.1475 171.347 99.6752 168.979 97.0563 166.803C95.8566 165.747 92.831 163.716 89.723 163.412Z" fill="#F8A38E"/>
<circle cx="230.963" cy="222.922" r="3.74129" fill="#9C89FF"/>
<circle cx="231.587" cy="251.294" r="3.74129" fill="#9C89FF"/>
<circle cx="231.587" cy="289.018" r="3.74129" fill="#9C89FF"/>
<path d="M217.589 277.65C216.591 274.158 218.004 273.493 218.836 273.597H260.302L283.061 203.604C283.685 200.236 286.439 199.187 287.738 199.083L380.959 192.692C383.952 192.816 384.18 195.757 383.92 197.212C383.796 194.593 381.894 194.25 380.959 194.406L289.297 200.486C287.551 200.486 286.699 201.525 286.491 202.045L263.108 273.597C261.736 275.592 263.679 277.754 264.823 278.585H218.836L217.589 277.65Z" fill="#C4C4C4"/>
<path d="M357.544 272.727L265.258 278.807C261.642 278.059 262.193 274.962 262.92 273.507L285.524 203.513C286.397 201.144 288.59 200.551 289.577 200.551L378.9 194.316C377.549 194.524 375.814 194.815 379.68 194.316C383.546 193.817 383.681 196.29 383.265 197.59L359.882 270.389C359.383 272.135 358.115 272.675 357.544 272.727Z" fill="#E9E9E9"/>
<ellipse cx="328.081" cy="236.652" rx="6.39138" ry="5.92371" transform="rotate(29.5601 328.081 236.652)" fill="#C4C4C4"/>
<path d="M317.902 275.239H310.934C306.413 280.539 308.364 286.619 310.131 289.113L312.781 287.242C313.529 286.245 316.003 286.307 317.146 286.463L320.887 285.683L327.123 285.06C332.61 285.434 334.397 284.488 334.605 283.969H336.008C341.62 283.719 343.127 276.694 343.179 273.212L345.517 259.494L346.141 256.688L346.92 253.571C346.546 251.077 343.751 252.947 342.4 254.194C343.148 250.578 341.568 249.777 340.685 249.829C338.814 249.081 336.788 252.947 336.008 254.974L335.54 254.194C333.919 251.575 331.228 254.766 330.084 256.688L328.993 262.456L328.37 261.833C326.624 261.833 325.148 264.847 324.628 266.353L317.902 275.239Z" fill="#FBB099"/>
<path d="M316.242 282.939C312.002 279.821 315.619 276.547 317.957 275.3H310.933C306.568 280.756 308.396 286.264 310.162 289.486L314.215 286.368H316.242L323.101 285.745L325.128 285.277H327.154C331.27 286.121 333.753 285.109 334.481 284.498C339.968 283.999 340.301 282.523 339.781 281.847C339.282 282.596 336.04 282.887 334.481 282.939L330.895 283.718H327.622H325.128C320.264 284.965 317.177 283.718 316.242 282.939Z" fill="#FCA28A"/>
<path d="M323.561 278.886C325.159 276.168 327.397 271.028 328.516 266.927C328.813 265.649 329.038 264.499 329.172 263.609C329.086 264.559 328.851 265.696 328.516 266.927C327.547 271.095 325.818 276.619 324.028 278.886H323.561Z" fill="#FCA28A" stroke="#FCA28A"/>
<path d="M330.108 278.106C331.707 274.446 333.945 267.522 335.063 261.998C335.36 260.277 335.586 258.728 335.72 257.529C335.633 258.809 335.399 260.341 335.063 261.998C334.094 267.613 332.365 275.053 330.576 278.106H330.108Z" fill="#FCA28A" stroke="#FCA28A"/>
<path d="M336.343 278.106C337.942 274.446 340.18 267.522 341.298 261.998C341.595 260.277 341.821 258.728 341.955 257.529C341.869 258.809 341.634 260.341 341.298 261.998C340.329 267.613 338.601 275.053 336.811 278.106H336.343Z" fill="#FCA28A" stroke="#FCA28A"/>
<rect y="321" width="472" height="4" fill="#CDD0F8"/>
<path d="M119.5 51L124.42 59.7285L134.241 61.7102L127.46 69.0865L128.611 79.0398L119.5 74.87L110.389 79.0398L111.54 69.0865L104.759 61.7102L114.58 59.7285L119.5 51Z" fill="#FED230"/>
<path d="M82 72L84.8566 77.0682L90.5595 78.2188L86.6221 82.5018L87.2901 88.2812L82 85.86L76.7099 88.2812L77.3779 82.5018L73.4405 78.2188L79.1434 77.0682L82 72Z" fill="#FED230"/>
<path d="M66 102L68.2218 105.942L72.6574 106.837L69.595 110.168L70.1145 114.663L66 112.78L61.8855 114.663L62.405 110.168L59.3426 106.837L63.7782 105.942L66 102Z" fill="#FED230"/>
<path d="M60.5 128L62.2457 131.097L65.7308 131.8L63.3246 134.418L63.7328 137.95L60.5 136.47L57.2672 137.95L57.6754 134.418L55.2692 131.8L58.7543 131.097L60.5 128Z" fill="#FED230"/>
<path d="M52.5098 217.012V225L58.3195 221.369L52.5098 217.012Z" fill="#FFA826"/>
<path d="M46.1108 173.55L48.9719 176.991C50.3296 178.624 49.2395 181.106 47.1185 181.211L46.8773 181.223C44.9489 181.319 43.8876 183.508 45.0068 185.081V185.081C45.8694 186.294 45.4572 187.989 44.1342 188.671L43.5971 188.947C42.1104 189.713 41.5496 191.555 42.3575 193.019L42.4504 193.187C43.5199 195.126 42.3123 197.534 40.1193 197.836L37.1912 198.24" stroke="#FED230" stroke-width="1.5"/>
<rect x="61.3413" y="191.102" width="11.6194" height="2.90485" transform="rotate(40.035 61.3413 191.102)" fill="#FF6651"/>
<rect x="26.6328" y="207.276" width="7.82215" height="2.90485" transform="rotate(89.5385 26.6328 207.276)" fill="#5ACB8A"/>
<rect x="39.7437" y="167.937" width="7.82216" height="2.90485" transform="rotate(-179.767 39.7437 167.937)" fill="#60A9FF"/>
<path d="M27.8496 301.629L20.2689 297.453L20.6772 304.865L27.8496 301.629Z" fill="#FFA826"/>
<path d="M97.7588 276.496L103.272 269.824L95.9137 268.847L97.7588 276.496Z" fill="#FED230"/>
<path d="M72.439 318.28L67.6776 319.196C65.4182 319.63 63.6327 317.298 64.6417 315.23L64.7565 314.995C65.6739 313.115 64.1517 310.964 62.0735 311.203V311.203C60.4718 311.388 59.0782 310.11 59.1234 308.498L59.1417 307.844C59.1924 306.033 57.7374 304.538 55.9255 304.539L55.7173 304.539C53.3188 304.541 51.6648 302.136 52.5245 299.896L53.6724 296.907" stroke="#FED230" stroke-width="1.5"/>
<path d="M97.8198 241.823L95.038 245.795C93.7179 247.679 90.8127 247.247 90.0984 245.06L90.0172 244.811C89.3677 242.822 86.7773 242.337 85.4516 243.955V243.955C84.4297 245.202 82.5399 245.254 81.4507 244.066L81.0085 243.583C79.7845 242.247 77.699 242.186 76.3987 243.448L76.2493 243.593C74.528 245.263 71.6665 244.687 70.7256 242.48L69.4694 239.535" stroke="#1AAEDD" stroke-width="1.5"/>
<rect x="47.8193" y="323.556" width="12.5893" height="3.14731" transform="rotate(158.887 47.8193 323.556)" fill="#FF6651"/>
<rect x="50.6167" y="282.163" width="8.47505" height="3.14731" transform="rotate(-151.61 50.6167 282.163)" fill="#5ACB8A"/>
<rect x="81.0947" y="315.172" width="8.47505" height="3.14731" transform="rotate(-60.9151 81.0947 315.172)" fill="#60A9FF"/>
<path d="M141.061 121.427L143.577 126.318L145.99 122.265L141.061 121.427Z" fill="#FFA826"/>
<path d="M95.2837 109.887L90.0104 111.45L93.544 114.575L95.2837 109.887Z" fill="#FED230"/>
<path d="M123.454 96.8341L126.289 98.0397C127.635 98.6118 127.749 100.475 126.484 101.207L126.34 101.29C125.189 101.956 125.229 103.631 126.41 104.241V104.241C127.32 104.712 127.602 105.88 127.006 106.714L126.764 107.052C126.095 107.989 126.332 109.294 127.288 109.936L127.398 110.01C128.663 110.859 128.683 112.714 127.435 113.59L125.77 114.759" stroke="#FED230" stroke-width="1.5"/>
<path d="M82.9561 128.149L85.8312 127.041C87.1957 126.516 88.5743 127.774 88.1753 129.181L88.1299 129.341C87.7672 130.619 88.9609 131.794 90.2338 131.411V131.411C91.2149 131.116 92.23 131.758 92.3827 132.772L92.4447 133.183C92.6164 134.321 93.6943 135.093 94.8274 134.889L94.9576 134.866C96.4576 134.595 97.7622 135.914 97.4759 137.411L97.0936 139.41" stroke="#1AAEDD" stroke-width="1.5"/>
<rect x="138.307" y="102.783" width="8" height="2" transform="rotate(12.8097 138.307 102.783)" fill="#FF6651"/>
<rect x="122.152" y="123.617" width="5.38558" height="2" transform="rotate(62.3131 122.152 123.617)" fill="#5ACB8A"/>
<rect x="117.787" y="95.4031" width="5.38558" height="2" transform="rotate(153.008 117.787 95.4031)" fill="#60A9FF"/>
<path d="M410.818 173.529L404.894 178.889L403.689 172.145L410.818 173.529Z" fill="#FFA826"/>
<rect width="11.6194" height="2.90485" transform="matrix(-0.990687 -0.13616 -0.13616 0.990687 424.104 149.597)" fill="#FF6651"/>
<rect width="7.82215" height="2.90485" transform="matrix(-0.746897 0.66494 0.66494 0.746897 435.399 186.185)" fill="#5ACB8A"/>
<path d="M465.581 275.629L473.162 271.453L472.753 278.865L465.581 275.629Z" fill="#FFA826"/>
<path d="M395.672 250.496L390.159 243.824L397.517 242.847L395.672 250.496Z" fill="#FED230"/>
<path d="M420.992 292.28L425.753 293.196C428.012 293.63 429.798 291.298 428.789 289.23L428.674 288.995C427.757 287.115 429.279 284.964 431.357 285.203V285.203C432.959 285.388 434.352 284.11 434.307 282.498L434.289 281.844C434.238 280.033 435.693 278.538 437.505 278.539L437.713 278.539C440.112 278.541 441.766 276.136 440.906 273.896L439.758 270.907" stroke="#FED230" stroke-width="1.5"/>
<path d="M395.611 215.823L398.393 219.795C399.713 221.679 402.618 221.247 403.332 219.06L403.414 218.811C404.063 216.822 406.653 216.337 407.979 217.955V217.955C409.001 219.202 410.891 219.254 411.98 218.066L412.422 217.583C413.646 216.247 415.732 216.186 417.032 217.448L417.181 217.593C418.903 219.263 421.764 218.687 422.705 216.48L423.961 213.535" stroke="#1AAEDD" stroke-width="1.5"/>
<rect width="12.5893" height="3.14731" transform="matrix(0.932871 0.360211 0.360211 -0.932871 445.611 297.556)" fill="#FF6651"/>
<rect width="8.47505" height="3.14731" transform="matrix(0.879729 -0.475475 -0.475475 -0.879729 442.814 256.163)" fill="#5ACB8A"/>
<rect width="8.47505" height="3.14731" transform="matrix(-0.486105 -0.873901 -0.873901 0.486105 412.336 289.172)" fill="#60A9FF"/>
<path d="M264.229 83.9462L260.589 90.0697L257.79 84.6394L264.229 83.9462Z" fill="#FFA826"/>
<path d="M324.319 72.6479L331.012 75.0853L326.197 78.8453L324.319 72.6479Z" fill="#FED230"/>
<path d="M288.935 53.5461L285.174 54.8804C283.389 55.5136 283.094 57.9128 284.672 58.9598L284.851 59.0789C286.286 60.0308 286.102 62.1921 284.527 62.8882V62.8882C283.314 63.4248 282.857 64.9123 283.561 66.0373L283.847 66.494C284.637 67.7583 284.228 69.4259 282.942 70.1802L282.794 70.2668C281.091 71.2653 280.919 73.6615 282.463 74.8924L284.523 76.5357" stroke="#FED230" stroke-width="1.5"/>
<path d="M338.812 97.2299L335.182 95.5709C333.46 94.7836 331.578 96.3011 331.983 98.1511L332.029 98.3614C332.397 100.043 330.761 101.468 329.145 100.872V100.872C327.9 100.412 326.537 101.163 326.26 102.461L326.147 102.987C325.835 104.446 324.381 105.358 322.932 105.005L322.766 104.964C320.848 104.496 319.057 106.097 319.309 108.055L319.645 110.67" stroke="#1AAEDD" stroke-width="1.5"/>
<rect width="10.3613" height="2.59032" transform="matrix(-0.986828 0.161772 0.161772 0.986828 269.263 60.0619)" fill="#FF6651"/>
<rect width="6.97518" height="2.59032" transform="matrix(-0.51783 0.855484 0.855484 0.51783 288.5 88.273)" fill="#5ACB8A"/>
<rect width="6.97518" height="2.59032" transform="matrix(0.861698 0.507421 0.507421 -0.861698 296.373 52.1442)" fill="#60A9FF"/>
<path d="M310.37 159.427L307.853 164.318L305.44 160.265L310.37 159.427Z" fill="#FFA826"/>
<path d="M356.147 147.887L361.42 149.45L357.887 152.575L356.147 147.887Z" fill="#FED230"/>
<path d="M327.977 134.834L325.142 136.04C323.796 136.612 323.682 138.475 324.947 139.207L325.091 139.29C326.241 139.956 326.202 141.631 325.021 142.241V142.241C324.111 142.712 323.829 143.88 324.424 144.714L324.666 145.052C325.335 145.989 325.098 147.294 324.142 147.936L324.033 148.01C322.767 148.859 322.748 150.714 323.996 151.59L325.661 152.759" stroke="#FED230" stroke-width="1.5"/>
<path d="M368.475 166.149L365.599 165.041C364.235 164.516 362.856 165.774 363.255 167.181L363.301 167.341C363.663 168.619 362.47 169.794 361.197 169.411V169.411C360.216 169.116 359.201 169.758 359.048 170.772L358.986 171.183C358.814 172.321 357.736 173.093 356.603 172.889L356.473 172.866C354.973 172.595 353.668 173.914 353.955 175.411L354.337 177.41" stroke="#1AAEDD" stroke-width="1.5"/>
<rect width="8" height="2" transform="matrix(-0.975112 0.221714 0.221714 0.975112 313.124 140.783)" fill="#FF6651"/>
<rect width="5.38558" height="2" transform="matrix(-0.464639 0.8855 0.8855 0.464639 329.279 161.617)" fill="#5ACB8A"/>
<rect width="5.38558" height="2" transform="matrix(0.891068 0.453871 0.453871 -0.891068 333.644 133.403)" fill="#60A9FF"/>
<path d="M167.244 54.9852L165.006 60.0094L169.677 59.3532L167.244 54.9852Z" fill="#FFA826"/>
<path d="M147.579 12.0672L143.058 8.93419L142.834 13.6459L147.579 12.0672Z" fill="#FED230"/>
<path d="M175.395 25.858L176.23 28.8237C176.626 30.231 175.246 31.4867 173.882 30.9587L173.727 30.8987C172.487 30.4186 171.207 31.4979 171.47 32.801V32.801C171.673 33.8053 170.939 34.7562 169.916 34.8141L169.5 34.8376C168.351 34.9027 167.482 35.9043 167.58 37.0514L167.591 37.1833C167.721 38.7019 166.287 39.8782 164.823 39.454L162.868 38.8876" stroke="#FED230" stroke-width="1.5"/>
<path d="M125.621 13.8895L128.285 15.4379C129.549 16.1726 129.431 18.0354 128.085 18.605L127.932 18.6698C126.707 19.1878 126.539 20.854 127.634 21.6067V21.6067C128.479 22.1868 128.613 23.3806 127.919 24.1341L127.637 24.4399C126.857 25.2866 126.93 26.6104 127.799 27.3661L127.899 27.4529C129.049 28.4532 128.837 30.296 127.491 31.0101L125.693 31.9636" stroke="#1AAEDD" stroke-width="1.5"/>
<rect x="180.057" y="41.1639" width="8" height="2" transform="rotate(64.0434 180.057 41.1639)" fill="#FF6651"/>
<rect x="153.696" y="41.6132" width="5.38558" height="2" transform="rotate(113.547 153.696 41.6132)" fill="#5ACB8A"/>
<rect x="172.962" y="20.5439" width="5.38558" height="2" transform="rotate(-155.759 172.962 20.5439)" fill="#60A9FF"/>
<path d="M213.576 46.0155L208.098 45.5207L210.228 49.7294L213.576 46.0155Z" fill="#FFA826"/>
<path d="M247.84 13.5402L249.345 8.25001L244.813 9.56025L247.84 13.5402Z" fill="#FED230"/>
<path d="M243.774 44.3197L241.238 46.0684C240.034 46.8982 238.399 45.997 238.459 44.5361L238.465 44.37C238.519 43.0417 237.084 42.1784 235.936 42.8484V42.8484C235.051 43.3648 233.914 42.9771 233.529 42.0277L233.372 41.6423C232.939 40.5754 231.711 40.0768 230.657 40.5401L230.536 40.5933C229.14 41.2066 227.564 40.2294 227.492 38.7069L227.397 36.6741" stroke="#FED230" stroke-width="1.5"/>
<rect x="230.795" y="53.6763" width="8" height="2" transform="rotate(135.197 230.795 53.6763)" fill="#FF6651"/>
<rect x="221.854" y="28.8744" width="5.38558" height="2" transform="rotate(-175.3 221.854 28.8744)" fill="#5ACB8A"/>
<rect x="248.018" y="40.3013" width="5.38558" height="2" transform="rotate(-84.6053 248.018 40.3013)" fill="#60A9FF"/>
</svg>
