<svg width="530" height="243" viewBox="0 0 530 243" fill="none" xmlns="http://www.w3.org/2000/svg">
<path d="M148.773 157.513C120.076 185.737 132.468 225.598 142.251 242L445.996 239.215C446.369 184.994 418.2 134.921 404.068 116.662C345.183 29.7603 272.383 28.1511 243.344 38.2091C204.211 58.2632 216.79 79.3696 227.97 87.416C237.288 93.7293 242.102 100.878 243.344 103.664C244.835 120.375 222.846 126.41 211.665 127.339C177.377 132.909 155.45 149.776 148.773 157.513Z" fill="#F0F1FF"/>
<ellipse cx="309.643" cy="60.1725" rx="13.2504" ry="13.7181" fill="#FBA17F"/>
<path d="M281.428 102.886C262.097 101.015 251.809 81.9967 247.444 72.6434C245.199 79.6272 239.026 73.6827 236.22 69.8375L244.638 58.3018L250.25 52.6899C258.231 48.6992 265.839 26.8126 268.021 19.0182C272.012 28.4962 297.12 44.8955 309.799 49.2604C316.284 55.4959 317.074 67.9668 315.099 74.5141C306.637 102.574 289.949 102.782 281.428 102.886Z" fill="#FBA17F"/>
<circle cx="265.877" cy="62.9413" r="3.31321" fill="#0B2D50"/>
<circle cx="291.058" cy="62.9413" r="3.31321" fill="#0B2D50"/>
<path d="M270.518 58.0289C268.023 54.5364 262.41 56.5737 259.916 58.0289C262.41 52.0416 268.023 52.6239 270.518 53.6634V58.0289Z" fill="#0B2D50"/>
<path d="M287.745 58.0288C290.24 54.5362 295.853 56.5735 298.347 58.0288C295.853 52.0415 290.24 52.6237 287.745 53.6633V58.0288Z" fill="#0B2D50"/>
<path d="M275.816 75.9221L282.687 75.6405C281.224 77.6569 278.452 77.6482 277.25 77.3918L275.816 75.9221Z" fill="#E6775C"/>
<path d="M317.273 28.7797C302.308 -1.89891 278.406 -2.08597 268.325 1.65532C230.6 -5.51549 229.985 63.8211 229.985 68.5904C229.985 77.6318 224.955 85.738 223.118 97.6818C220.623 113.894 234.134 116.077 241.2 115.141C244.443 109.405 259.803 108.386 267.078 108.594C273.812 106.848 273.625 102.255 272.69 100.176C258.972 94.4394 250.554 79.2871 248.06 72.4281C245.565 76.1694 239.746 72.532 237.147 70.2457L251.177 52.7863C258.41 48.0473 265.623 31.2739 268.325 23.4795C272.316 34.2046 300.542 47.4862 314.156 52.7863L322.262 62.1396C322.012 67.1279 316.754 71.0771 314.156 72.4281C314.156 82.4049 302.516 95.0837 296.696 100.176V107.347L302.308 110.776C317.273 109.529 328.497 117.947 332.239 122.312L340.657 118.571C354.071 108.594 354.383 91.6617 344.095 81.9967C339.337 77.5275 336.3 77.3201 332.239 68.5904L324.444 48.4215L317.273 28.7797Z" fill="#0B2D50"/>
<path d="M315.411 68.0529C317.906 52.0901 303.772 46.0209 296.393 44.9816L305.435 40.6168C306.474 38.4343 309.924 35.379 315.411 40.6168C320.899 45.8546 317.698 61.09 315.411 68.0529Z" fill="#0B2D50"/>
<path d="M248.253 70.7728C245.509 56.8053 251.267 45.4151 254.488 41.466L246.07 44.272C242.08 59.2371 245.863 68.1747 248.253 70.7728Z" fill="#0B2D50"/>
<path d="M281 87.5443C276.721 88.5317 273.869 85.4873 272.978 83.8416C277.832 86.3924 284.326 84.9044 286.966 83.8416C285.814 85.981 282.509 87.2015 281 87.5443Z" fill="white"/>
<path d="M282.337 87.75C277.154 88.8197 274.143 85.8644 273.286 84.253L270.509 83.1216C280.136 95.3818 287 87.6815 289.229 82.2988L286.863 84.253C286.287 85.405 283.606 87.0643 282.337 87.75Z" fill="#8E1D19"/>
<path d="M269.893 82.1959C274.11 83.6016 284.004 85.405 289.846 81.3731C287.446 84.7673 280.096 89.6837 269.893 82.1959Z" fill="#F6565E"/>
<path d="M280.693 89.3961C277.093 89.5295 271.984 85.1106 270.202 82.4021C272.094 89.8898 277.504 91.8303 279.973 91.8646C287.131 92.5229 289.264 85.282 289.435 81.5793C286.884 87.7505 283.573 89.2895 280.693 89.3961Z" fill="#FF6F75"/>
<path d="M237.779 116.761C248.255 106.285 263.345 107.2 269.58 108.966C289.035 120.44 298.471 113.747 300.758 108.966L311.046 110.525C331.499 110.525 343.055 137.338 346.277 150.744L353.136 189.404H369.66C365.669 204.868 373.609 210.397 378.078 211.228L360.307 218.088C350.579 223.575 339.21 221.829 334.741 220.27L346.277 239H231.5L242.612 201.719C247.725 186.754 246.509 171.373 245.262 165.554L226.711 192.678C220.975 201.158 212.37 202.863 208.784 202.655C197.186 202.655 186.181 185.403 182.128 176.777C175.393 165.928 166.331 134.116 162.642 119.567C172.244 119.692 182.439 113.591 186.336 110.525L209.72 156.98C211.964 144.01 229.361 124.763 237.779 116.761Z" fill="#8370F0"/>
<path d="M266.774 108.809C273.945 106.471 272.698 100.703 271.139 98.8325C281.864 104.569 292.86 101.223 297.017 98.8325C295.769 103.571 299.615 108.082 301.693 109.745C290.002 124.086 273.322 114.213 266.774 108.809Z" fill="#FBA17F"/>
<path d="M286.728 121.28C271.607 120.813 265.579 112.187 262.721 107.718L268.333 108.186C272.074 113.798 277.011 115.201 281.428 115.98C295.146 118.35 300.446 112.083 301.381 108.653L306.681 110.056C300.29 120.813 291.716 121.28 286.728 121.28Z" fill="#9C89FF"/>
<path d="M333.494 146.846L329.129 119.41C347.088 128.888 353.344 168.826 354.383 188.779H375.428C370.938 198.257 367.166 204.68 377.766 211.695L357.657 219.489L346.901 222.451C329.441 223.948 327.882 212.526 329.129 207.33L333.494 176.153C334.741 168.826 335.521 159.473 333.494 146.846Z" fill="#8370F0"/>
<path d="M324.764 183.958L279.557 191.753H322.27L324.764 183.958Z" fill="#504B4B"/>
<path d="M374.96 189.559C378.909 193.716 385.062 203.9 378.078 211.383C373.245 210.24 365.856 204.275 374.96 189.559Z" fill="#5D49C4"/>
<path d="M162.486 119.41C167.63 115.772 179.54 108.872 186.025 110.368C183.063 113.954 174.209 120.781 162.486 119.41Z" fill="#5D49C3"/>
<path d="M182.128 111.771C178.075 106.705 177.036 102.47 176.672 98.8325C176.672 108.435 168.202 115.253 164.513 117.539L167.63 119.41L175.269 117.071L182.907 113.018C182.907 113.018 182.751 112.551 182.128 111.771Z" fill="#F8A38E"/>
<path d="M166.565 64.6589C161.452 63.7859 160.07 67.8286 160.018 69.959C159.394 73.4509 160.901 80.8711 161.732 84.1448L155.809 81.3388C150.571 79.094 147.703 81.027 146.923 82.2741C144.554 84.6436 146.248 87.5223 147.391 88.6655C147.027 88.7174 146.175 89.1331 145.676 90.3802C145.177 91.6273 145.884 94.0176 146.3 95.0569C145.302 95.0569 144.325 95.8883 143.961 96.304C142.714 98.0499 143.442 101.084 143.961 102.384C143.805 102.02 143.4 101.947 143.026 104.566C142.652 107.185 146.404 111.061 148.326 112.672C151.444 116.039 160.745 117.401 165.006 117.66C172.239 116.039 175.71 108.255 176.542 104.566C176.885 103.041 176.68 99.1443 176.542 96.304C176.353 92.4411 171.865 85.9634 169.683 83.6771C166.69 78.564 166.357 68.8678 166.565 64.6589Z" fill="#FFAE96"/>
<path d="M151.723 81.4117C151.451 81.3927 151.193 81.38 150.95 81.3731C151.208 81.3731 151.466 81.3864 151.723 81.4117C155.525 81.6776 161.862 83.1856 161.862 87.6086C163.109 92.4411 163.733 103.291 156.25 108.03C154.691 108.861 150.607 110.368 146.741 109.745C149.547 109.9 155.377 109.246 156.25 105.38L155.783 104.6C156.614 104.081 158.308 102.387 158.433 99.7678C158.329 99.0403 157.934 97.523 157.186 97.2736C158.173 97.1177 160.179 96.2447 160.303 93.9999C160.511 93.4284 160.678 92.0358 159.68 91.0381L159.056 90.2586C160.148 89.3468 161.675 86.979 159.056 84.8026C157.857 83.7468 154.831 81.7161 151.723 81.4117Z" fill="#F8A38E"/>
<circle cx="292.963" cy="140.922" r="3.74129" fill="#9C89FF"/>
<circle cx="293.587" cy="169.294" r="3.74129" fill="#9C89FF"/>
<circle cx="293.587" cy="207.018" r="3.74129" fill="#9C89FF"/>
<path d="M279.589 195.65C278.591 192.158 280.004 191.493 280.836 191.597H322.302L345.061 121.604C345.685 118.236 348.439 117.187 349.738 117.083L442.959 110.692C445.952 110.816 446.18 113.757 445.92 115.212C445.796 112.593 443.894 112.25 442.959 112.406L351.297 118.486C349.551 118.486 348.699 119.525 348.491 120.045L325.108 191.597C323.736 193.592 325.679 195.754 326.823 196.585H280.836L279.589 195.65Z" fill="#C4C4C4"/>
<path d="M419.544 190.727L327.258 196.807C323.642 196.059 324.193 192.962 324.92 191.507L347.524 121.513C348.397 119.144 350.59 118.551 351.577 118.551L440.9 112.316C439.549 112.524 437.814 112.815 441.68 112.316C445.546 111.817 445.681 114.29 445.265 115.59L421.882 188.389C421.383 190.135 420.115 190.675 419.544 190.727Z" fill="#E9E9E9"/>
<ellipse cx="390.081" cy="154.652" rx="6.39138" ry="5.92371" transform="rotate(29.5601 390.081 154.652)" fill="#C4C4C4"/>
<path d="M379.902 193.239H372.934C368.413 198.539 370.364 204.619 372.131 207.113L374.781 205.242C375.529 204.245 378.003 204.307 379.146 204.463L382.887 203.683L389.123 203.06C394.61 203.434 396.397 202.488 396.605 201.969H398.008C403.62 201.719 405.127 194.694 405.179 191.212L407.517 177.494L408.141 174.688L408.92 171.571C408.546 169.077 405.751 170.947 404.4 172.194C405.148 168.578 403.568 167.777 402.685 167.829C400.814 167.081 398.788 170.947 398.008 172.974L397.54 172.194C395.919 169.575 393.228 172.766 392.084 174.688L390.993 180.456L390.37 179.833C388.624 179.833 387.148 182.847 386.628 184.353L379.902 193.239Z" fill="#FBB099"/>
<path d="M378.242 200.939C374.002 197.821 377.619 194.547 379.957 193.3H372.933C368.568 198.756 370.396 204.264 372.162 207.486L376.215 204.368H378.242L385.101 203.745L387.128 203.277H389.154C393.27 204.121 395.753 203.109 396.481 202.498C401.968 201.999 402.301 200.523 401.781 199.847C401.282 200.596 398.04 200.887 396.481 200.939L392.895 201.718H389.622H387.128C382.264 202.965 379.177 201.718 378.242 200.939Z" fill="#FCA28A"/>
<path d="M385.561 196.886C387.159 194.168 389.397 189.028 390.516 184.927C390.813 183.649 391.038 182.499 391.172 181.609C391.086 182.559 390.851 183.696 390.516 184.927C389.547 189.095 387.818 194.619 386.028 196.886H385.561Z" fill="#FCA28A" stroke="#FCA28A"/>
<path d="M392.108 196.106C393.707 192.446 395.945 185.522 397.063 179.998C397.36 178.277 397.586 176.728 397.72 175.529C397.633 176.809 397.399 178.341 397.063 179.998C396.094 185.613 394.365 193.053 392.576 196.106H392.108Z" fill="#FCA28A" stroke="#FCA28A"/>
<path d="M398.343 196.106C399.942 192.446 402.18 185.522 403.298 179.998C403.595 178.277 403.821 176.728 403.955 175.529C403.869 176.809 403.634 178.341 403.298 179.998C402.329 185.613 400.601 193.053 398.811 196.106H398.343Z" fill="#FCA28A" stroke="#FCA28A"/>
<rect y="239" width="530" height="4" fill="#CDD0F8"/>
<path d="M164.5 25L169.42 33.7285L179.241 35.7102L172.46 43.0865L173.611 53.0398L164.5 48.87L155.389 53.0398L156.54 43.0865L149.759 35.7102L159.58 33.7285L164.5 25Z" fill="#FED230"/>
<path d="M127 46L129.857 51.0682L135.56 52.2188L131.622 56.5018L132.29 62.2812L127 59.86L121.71 62.2812L122.378 56.5018L118.44 52.2188L124.143 51.0682L127 46Z" fill="#FED230"/>
<path d="M111 76L113.222 79.9419L117.657 80.8369L114.595 84.1681L115.114 88.6631L111 86.78L106.886 88.6631L107.405 84.1681L104.343 80.8369L108.778 79.9419L111 76Z" fill="#FED230"/>
<path d="M105.5 102L107.246 105.097L110.731 105.8L108.325 108.418L108.733 111.95L105.5 110.47L102.267 111.95L102.675 108.418L100.269 105.8L103.754 105.097L105.5 102Z" fill="#FED230"/>
</svg>
