<svg width="33" height="33" viewBox="0 0 33 33" fill="none" xmlns="http://www.w3.org/2000/svg">
<circle cx="16.5" cy="16.5" r="16.5" fill="#5ACB8A"/>
<path d="M14.616 6.336C14.984 5.952 15.432 5.76 15.96 5.76C16.488 5.76 16.936 5.952 17.304 6.336C17.688 6.704 17.88 7.152 17.88 7.68C17.88 8.208 17.688 8.656 17.304 9.024C16.936 9.392 16.488 9.576 15.96 9.576C15.432 9.576 14.984 9.392 14.616 9.024C14.248 8.656 14.064 8.208 14.064 7.68C14.064 7.152 14.248 6.704 14.616 6.336ZM13.632 13.368C13.792 13.08 14.096 12.864 14.544 12.72C14.992 12.56 15.432 12.48 15.864 12.48C16.312 12.48 16.704 12.536 17.04 12.648C16.416 17.464 16.104 19.896 16.104 19.944C16.024 20.264 15.984 20.536 15.984 20.76C15.984 20.968 16 21.152 16.032 21.312C16.096 21.728 16.384 21.936 16.896 21.936C17.424 21.936 17.904 21.6 18.336 20.928C18.784 20.24 19.12 19.464 19.344 18.6C19.456 18.664 19.632 18.856 19.872 19.176C20.112 19.496 20.256 19.736 20.304 19.896C19.984 21.176 19.44 22.208 18.672 22.992C17.904 23.776 16.984 24.168 15.912 24.168C14.84 24.168 14.04 23.904 13.512 23.376C13 22.848 12.744 22.168 12.744 21.336C12.744 21.16 12.752 20.976 12.768 20.784L13.632 13.368Z" fill="white"/>
</svg>
