<svg width="51" height="60" viewBox="0 0 51 60" fill="none" xmlns="http://www.w3.org/2000/svg">
<rect width="43.2" height="57.6" rx="9" fill="#BBB0FD"/>
<rect x="3.2002" y="2.39996" width="43.2" height="57.6" rx="9" fill="white"/>
<path d="M46.5176 23.5486V7.55311C46.8984 6.02973 46.4033 2.86871 41.3762 2.4117H9.00431C7.03661 2.28475 3.13929 3.1353 3.29163 7.55311V52.112C2.91079 54.2702 3.52015 58.5483 9.00431 58.396H41.3762C43.09 58.396 46.5176 57.4439 46.5176 53.6354V39.3537" stroke="#5C5E7A" stroke-width="2"/>
<path d="M25 10.7903H42.138" stroke="#5C5E7A" stroke-width="2"/>
<path d="M24.0479 15.5509H33.9498" stroke="#5C5E7A" stroke-width="2"/>
<path d="M24.2383 28.3092H39.4721" stroke="#5C5E7A" stroke-width="2"/>
<path d="M24.8096 32.8793H34.1403" stroke="#5C5E7A" stroke-width="2"/>
<path d="M43.4711 27.5475L27.4756 46.3994L32.617 50.7791L44.6136 37.2591" stroke="#5C5E7A" stroke-width="2"/>
<path d="M41.5664 30.4038L46.1366 34.4027L48.0408 32.3081C49.0881 30.5943 50.1354 30.4038 48.612 28.8805L46.8982 27.5475C46.5174 26.9128 44.8417 26.0241 43.4706 27.5475" stroke="#5C5E7A" stroke-width="2"/>
<path d="M27.475 46.3994L26.0469 53.2546L32.6165 50.6839" stroke="#5C5E7A" stroke-width="2"/>
<path d="M10.1475 12.0852L13.5822 15.5509L20.7159 8.12439" stroke="#5C5E7A" stroke-width="2"/>
<path fill-rule="evenodd" clip-rule="evenodd" d="M16.178 7.16548L14.6219 8.21961L15.2404 8.96752C14.8198 8.85307 14.3733 8.79144 13.9082 8.79144C11.1853 8.79144 9.10059 10.9038 9.10059 13.361C9.10059 15.8182 11.1853 17.9306 13.9082 17.9306C16.6311 17.9306 18.7158 15.8182 18.7158 13.361C18.7158 13.2954 18.7143 13.2301 18.7114 13.165L18.716 13.1706L20.5446 11.8906C20.6566 12.3633 20.7158 12.8555 20.7158 13.361C20.7158 16.9893 17.6679 19.9306 13.9082 19.9306C10.1485 19.9306 7.10059 16.9893 7.10059 13.361C7.10059 9.73275 10.1485 6.79144 13.9082 6.79144C14.7041 6.79144 15.4681 6.92325 16.178 7.16548Z" fill="#5C5E7A"/>
<path d="M10.1475 29.3185L13.5822 32.7842L20.7159 25.3577" stroke="#5C5E7A" stroke-width="2"/>
<path fill-rule="evenodd" clip-rule="evenodd" d="M16.1781 24.3987L14.6219 25.4529L15.2404 26.2007C14.8197 26.0863 14.3733 26.0247 13.9082 26.0247C11.1853 26.0247 9.10059 28.137 9.10059 30.5942C9.10059 33.0515 11.1853 35.1638 13.9082 35.1638C16.6311 35.1638 18.7158 33.0515 18.7158 30.5942C18.7158 30.5287 18.7143 30.4633 18.7114 30.3982L18.716 30.4039L20.5446 29.1238C20.6567 29.5966 20.7158 30.0887 20.7158 30.5942C20.7158 34.2225 17.6679 37.1638 13.9082 37.1638C10.1485 37.1638 7.10059 34.2225 7.10059 30.5942C7.10059 26.966 10.1485 24.0247 13.9082 24.0247C14.7041 24.0247 15.4681 24.1565 16.1781 24.3987Z" fill="#5C5E7A"/>
<path d="M10.1475 46.5517L13.5822 50.0174L20.7159 42.5909" stroke="#5C5E7A" stroke-width="2"/>
<path fill-rule="evenodd" clip-rule="evenodd" d="M16.1781 41.632L14.6219 42.6861L15.2404 43.434C14.8197 43.3196 14.3733 43.2579 13.9082 43.2579C11.1853 43.2579 9.10059 45.3703 9.10059 47.8275C9.10059 50.2847 11.1853 52.3971 13.9082 52.3971C16.6311 52.3971 18.7158 50.2847 18.7158 47.8275C18.7158 47.7619 18.7143 47.6966 18.7114 47.6315L18.716 47.6371L20.5446 46.3571C20.6566 46.8298 20.7158 47.322 20.7158 47.8275C20.7158 51.4558 17.6679 54.3971 13.9082 54.3971C10.1485 54.3971 7.10059 51.4558 7.10059 47.8275C7.10059 44.1992 10.1485 41.2579 13.9082 41.2579C14.7041 41.2579 15.4681 41.3897 16.1781 41.632Z" fill="#5C5E7A"/>
<path d="M41.5996 32L29.5996 46L32.7996 49.2L45.5996 35.2L41.5996 32Z" fill="#BBB0FD"/>
</svg>
