<svg width="321" height="86" viewBox="0 0 321 86" fill="none" xmlns="http://www.w3.org/2000/svg">
<rect width="321" height="86" fill="#E5E5E5"/>
<rect width="375" height="1051" transform="translate(-28 -790)" fill="white"/>
<rect x="0.5" y="0.5" width="320" height="85" rx="4.5" fill="white" stroke="#FCD673"/>
<path d="M289.568 60.7021L291.996 57.7458L292.805 58.6794L290.539 61.7913L289.568 60.7021Z" fill="#BBB0FD"/>
<path d="M267.388 17.4003L270.389 17.5747L270.553 18.5418L267.599 18.5461L267.388 17.4003Z" fill="#BBB0FD"/>
<rect x="282.422" y="51.0052" width="3.23643" height="1.61821" fill="#2ECC71"/>
<path d="M236.603 64.5759L240.251 63.4234L240.419 64.6472L236.823 66.0185L236.603 64.5759Z" fill="#BBB0FD"/>
<rect x="235.907" y="52.5499" width="3.23643" height="1.61821" transform="rotate(33.0761 235.907 52.5499)" fill="#2ECC71"/>
<path d="M292.342 31.8544L294.422 32.788V34.2817L291.995 33.3481L292.342 31.8544Z" fill="#2ECC71"/>
<path d="M253.023 33.1925L255.451 30.2362L256.26 31.1697L253.994 34.2817L253.023 33.1925Z" fill="#BBB0FD"/>
<path d="M202.185 32.3834L204.612 29.4271L205.421 30.3606L203.155 33.4726L202.185 32.3834Z" fill="#BBB0FD"/>
<path d="M200.106 48.8456L202.186 49.7792V51.2729L199.759 50.3393L200.106 48.8456Z" fill="#2ECC71"/>
<path d="M272.933 32.7381L275.467 31.8685L276.561 33.1021L273.719 34.2452L272.933 32.7381Z" fill="#FED262"/>
<path d="M308.404 42.8248L310.619 41.3181L312 42.22L309.559 44.0717L308.404 42.8248Z" fill="#2ECC71"/>
<path d="M210.623 23.7633L212.704 24.6969V26.1906L210.276 25.257L210.623 23.7633Z" fill="#2ECC71"/>
<path d="M226.683 34.7337L228.899 33.2271L230.279 34.1289L227.838 35.9806L226.683 34.7337Z" fill="#2ECC71"/>
<path d="M30.4307 60.7021L28.0033 57.7458L27.1942 58.6794L29.4597 61.7913L30.4307 60.7021Z" fill="#BBB0FD"/>
<rect width="3.23643" height="1.61821" transform="matrix(-1 0 0 1 37.5771 51.0052)" fill="#2ECC71"/>
<path d="M83.3957 64.5759L79.7483 63.4234L79.5798 64.6472L83.1765 66.0185L83.3957 64.5759Z" fill="#BBB0FD"/>
<rect width="3.23643" height="1.61821" transform="matrix(-0.837946 0.545753 0.545753 0.837946 84.0918 52.5499)" fill="#2ECC71"/>
<path d="M66.9756 33.1925L64.5483 30.2362L63.7392 31.1697L66.0047 34.2817L66.9756 33.1925Z" fill="#BBB0FD"/>
<path d="M118.848 30.7652L121.275 27.8088L122.084 28.7424L119.819 31.8544L118.848 30.7652Z" fill="#BBB0FD"/>
<rect width="3.23643" height="1.61821" transform="matrix(-1 0 0 1 74.1221 23.4955)" fill="#2ECC71"/>
<path d="M47.0666 32.7381L44.5326 31.8685L43.4388 33.1021L46.2812 34.2452L47.0666 32.7381Z" fill="#FED262"/>
<path d="M11.5958 42.8248L9.38051 41.3181L8.00032 42.22L10.4411 44.0717L11.5958 42.8248Z" fill="#2ECC71"/>
<path d="M93.3156 34.7337L91.1002 33.2271L89.72 34.1289L92.1608 35.9806L93.3156 34.7337Z" fill="#2ECC71"/>
<path d="M115.611 66.3659L118.039 63.4095L118.848 64.3431L116.582 67.4551L115.611 66.3659Z" fill="#BBB0FD"/>
<rect width="3.23643" height="1.61821" transform="matrix(-1 0 0 1 134.67 51.0052)" fill="#2ECC71"/>
<path d="M180.489 64.5759L176.842 63.4234L176.674 64.6472L180.27 66.0185L180.489 64.5759Z" fill="#BBB0FD"/>
<rect width="3.23643" height="1.61821" transform="matrix(-0.837946 0.545753 0.545753 0.837946 181.186 52.5499)" fill="#2ECC71"/>
<path d="M164.068 33.1925L161.641 30.2362L160.832 31.1697L163.097 34.2817L164.068 33.1925Z" fill="#BBB0FD"/>
<rect width="3.23643" height="1.61821" transform="matrix(-1 0 0 1 171.214 23.4955)" fill="#2ECC71"/>
<path d="M144.159 32.7381L141.625 31.8685L140.532 33.1021L143.374 34.2452L144.159 32.7381Z" fill="#FED262"/>
<path d="M108.689 42.8248L106.473 41.3181L105.093 42.22L107.534 44.0717L108.689 42.8248Z" fill="#2ECC71"/>
<path d="M234.331 72.7335C207.806 67.4322 183.725 79.9913 175 86.9335H315.765C321 87.406 321 85.2797 321 83.1468V67.5269C313.089 53.895 294.049 61.8469 285.518 67.5269C279.507 71.4713 260.855 78.0348 234.331 72.7335Z" fill="#FCD673"/>
<path d="M85.6842 19.5617C112.202 27.238 136.277 9.05238 145 -1H4.27039C-1.7775 -1 -0.963364 2.42105 -0.963364 4.48311V27.101C6.9454 46.8402 25.9807 35.3256 34.5098 27.101C40.5189 21.3894 59.1666 11.8853 85.6842 19.5617Z" fill="#FCD673"/>
<path d="M27.616 47.32C28.016 47.32 28.352 47.272 28.624 47.176C28.896 47.08 29.112 46.952 29.272 46.792C29.4373 46.632 29.5547 46.4453 29.624 46.232C29.6987 46.0187 29.736 45.792 29.736 45.552C29.736 45.3013 29.696 45.0773 29.616 44.88C29.536 44.6773 29.4107 44.5067 29.24 44.368C29.0693 44.224 28.848 44.1147 28.576 44.04C28.3093 43.9653 27.9867 43.928 27.608 43.928H25.44V47.32H27.616ZM25.44 39.096V42.44H27.152C27.888 42.44 28.4427 42.3067 28.816 42.04C29.1947 41.7733 29.384 41.3493 29.384 40.768C29.384 40.1653 29.2133 39.736 28.872 39.48C28.5307 39.224 27.9973 39.096 27.272 39.096H25.44ZM27.272 37.432C28.0293 37.432 28.6773 37.504 29.216 37.648C29.7547 37.792 30.1947 37.9973 30.536 38.264C30.8827 38.5307 31.136 38.8533 31.296 39.232C31.456 39.6107 31.536 40.0373 31.536 40.512C31.536 40.784 31.496 41.0453 31.416 41.296C31.336 41.5413 31.2107 41.7733 31.04 41.992C30.8747 42.2053 30.6613 42.4 30.4 42.576C30.144 42.752 29.8373 42.9013 29.48 43.024C31.0693 43.3813 31.864 44.24 31.864 45.6C31.864 46.0907 31.7707 46.544 31.584 46.96C31.3973 47.376 31.1253 47.736 30.768 48.04C30.4107 48.3387 29.9707 48.5733 29.448 48.744C28.9253 48.9147 28.328 49 27.656 49H23.288V37.432H27.272ZM38.6859 43.952C38.6859 43.696 38.6485 43.456 38.5739 43.232C38.5045 43.0027 38.3979 42.8027 38.2539 42.632C38.1099 42.4613 37.9259 42.328 37.7019 42.232C37.4832 42.1307 37.2272 42.08 36.9339 42.08C36.3632 42.08 35.9125 42.2427 35.5819 42.568C35.2565 42.8933 35.0485 43.3547 34.9579 43.952H38.6859ZM34.9179 45.144C34.9499 45.5653 35.0245 45.9307 35.1419 46.24C35.2592 46.544 35.4139 46.7973 35.6059 47C35.7979 47.1973 36.0245 47.3467 36.2859 47.448C36.5525 47.544 36.8459 47.592 37.1659 47.592C37.4859 47.592 37.7605 47.5547 37.9899 47.48C38.2245 47.4053 38.4272 47.3227 38.5979 47.232C38.7739 47.1413 38.9259 47.0587 39.0539 46.984C39.1872 46.9093 39.3152 46.872 39.4379 46.872C39.6032 46.872 39.7259 46.9333 39.8059 47.056L40.3739 47.776C40.1552 48.032 39.9099 48.248 39.6379 48.424C39.3659 48.5947 39.0805 48.7333 38.7819 48.84C38.4885 48.9413 38.1872 49.0133 37.8779 49.056C37.5739 49.0987 37.2779 49.12 36.9899 49.12C36.4192 49.12 35.8885 49.0267 35.3979 48.84C34.9072 48.648 34.4805 48.368 34.1179 48C33.7552 47.6267 33.4699 47.168 33.2619 46.624C33.0539 46.0747 32.9499 45.44 32.9499 44.72C32.9499 44.16 33.0405 43.6347 33.2219 43.144C33.4032 42.648 33.6619 42.2187 33.9979 41.856C34.3392 41.488 34.7525 41.1973 35.2379 40.984C35.7285 40.7707 36.2805 40.664 36.8939 40.664C37.4112 40.664 37.8885 40.7467 38.3259 40.912C38.7632 41.0773 39.1392 41.32 39.4539 41.64C39.7685 41.9547 40.0139 42.344 40.1899 42.808C40.3712 43.2667 40.4619 43.792 40.4619 44.384C40.4619 44.6827 40.4299 44.8853 40.3659 44.992C40.3019 45.0933 40.1792 45.144 39.9979 45.144H34.9179ZM46.9528 42.392C46.8994 42.4773 46.8434 42.5387 46.7848 42.576C46.7261 42.608 46.6514 42.624 46.5608 42.624C46.4648 42.624 46.3608 42.5973 46.2488 42.544C46.1421 42.4907 46.0168 42.432 45.8728 42.368C45.7288 42.2987 45.5634 42.2373 45.3767 42.184C45.1954 42.1307 44.9794 42.104 44.7288 42.104C44.3394 42.104 44.0328 42.1867 43.8088 42.352C43.5901 42.5173 43.4808 42.7333 43.4808 43C43.4808 43.176 43.5368 43.3253 43.6488 43.448C43.7661 43.5653 43.9181 43.6693 44.1048 43.76C44.2968 43.8507 44.5128 43.9333 44.7528 44.008C44.9928 44.0773 45.2354 44.1547 45.4808 44.24C45.7314 44.3253 45.9768 44.424 46.2168 44.536C46.4568 44.6427 46.6701 44.7813 46.8568 44.952C47.0488 45.1173 47.2008 45.3173 47.3128 45.552C47.4301 45.7867 47.4888 46.0693 47.4888 46.4C47.4888 46.7947 47.4168 47.16 47.2728 47.496C47.1341 47.8267 46.9261 48.1147 46.6488 48.36C46.3714 48.6 46.0274 48.7893 45.6168 48.928C45.2114 49.0613 44.7421 49.128 44.2088 49.128C43.9261 49.128 43.6488 49.1013 43.3768 49.048C43.1101 49 42.8514 48.9307 42.6008 48.84C42.3554 48.7493 42.1261 48.6427 41.9128 48.52C41.7048 48.3973 41.5208 48.264 41.3608 48.12L41.8168 47.368C41.8754 47.2773 41.9448 47.208 42.0247 47.16C42.1047 47.112 42.2061 47.088 42.3288 47.088C42.4514 47.088 42.5661 47.1227 42.6728 47.192C42.7848 47.2613 42.9128 47.336 43.0568 47.416C43.2008 47.496 43.3688 47.5707 43.5608 47.64C43.7581 47.7093 44.0061 47.744 44.3048 47.744C44.5394 47.744 44.7394 47.7173 44.9048 47.664C45.0754 47.6053 45.2141 47.5307 45.3208 47.44C45.4328 47.3493 45.5127 47.2453 45.5608 47.128C45.6141 47.0053 45.6408 46.88 45.6408 46.752C45.6408 46.56 45.5821 46.4027 45.4648 46.28C45.3528 46.1573 45.2008 46.0507 45.0087 45.96C44.8221 45.8693 44.6061 45.7893 44.3608 45.72C44.1208 45.6453 43.8728 45.5653 43.6168 45.48C43.3661 45.3947 43.1181 45.296 42.8728 45.184C42.6328 45.0667 42.4168 44.92 42.2248 44.744C42.0381 44.568 41.8861 44.352 41.7688 44.096C41.6568 43.84 41.6008 43.5307 41.6008 43.168C41.6008 42.832 41.6674 42.512 41.8008 42.208C41.9341 41.904 42.1288 41.64 42.3848 41.416C42.6461 41.1867 42.9688 41.0053 43.3528 40.872C43.7421 40.7333 44.1901 40.664 44.6968 40.664C45.2621 40.664 45.7768 40.7573 46.2408 40.944C46.7048 41.1307 47.0914 41.376 47.4008 41.68L46.9528 42.392ZM51.712 49.128C50.9973 49.128 50.448 48.928 50.064 48.528C49.6853 48.1227 49.496 47.5653 49.496 46.856V42.272H48.656C48.5493 42.272 48.4587 42.2373 48.384 42.168C48.3093 42.0987 48.272 41.9947 48.272 41.856V41.072L49.592 40.856L50.008 38.616C50.0347 38.5093 50.0853 38.4267 50.16 38.368C50.2347 38.3093 50.3307 38.28 50.448 38.28H51.472V40.864H53.664V42.272H51.472V46.72C51.472 46.976 51.5333 47.176 51.656 47.32C51.784 47.464 51.9573 47.536 52.176 47.536C52.2987 47.536 52.4 47.5227 52.48 47.496C52.5653 47.464 52.6373 47.432 52.696 47.4C52.76 47.368 52.816 47.3387 52.864 47.312C52.912 47.28 52.96 47.264 53.008 47.264C53.0667 47.264 53.1147 47.28 53.152 47.312C53.1893 47.3387 53.2293 47.3813 53.272 47.44L53.864 48.4C53.576 48.64 53.2453 48.8213 52.872 48.944C52.4987 49.0667 52.112 49.128 51.712 49.128ZM70.2116 40.792L67.6036 49H66.0196C65.8383 49 65.713 48.8827 65.6436 48.648L64.1716 43.904C64.1236 43.744 64.0783 43.5867 64.0356 43.432C63.9983 43.272 63.9663 43.112 63.9396 42.952C63.9076 43.112 63.8703 43.2747 63.8276 43.44C63.7903 43.6 63.7476 43.76 63.6996 43.92L62.2036 48.648C62.1396 48.8827 61.9983 49 61.7796 49H60.2596L57.6596 40.792H59.2356C59.3796 40.792 59.5023 40.8267 59.6036 40.896C59.705 40.9653 59.7716 41.0533 59.8036 41.16L60.9796 45.544C61.0383 45.784 61.089 46.0187 61.1316 46.248C61.1796 46.4773 61.2196 46.7067 61.2516 46.936C61.3103 46.7067 61.3716 46.4773 61.4356 46.248C61.505 46.0187 61.577 45.784 61.6516 45.544L63.0116 41.144C63.0436 41.0373 63.105 40.9493 63.1956 40.88C63.2916 40.8107 63.4063 40.776 63.5396 40.776H64.4116C64.5503 40.776 64.6676 40.8107 64.7636 40.88C64.865 40.9493 64.9316 41.0373 64.9636 41.144L66.2836 45.544C66.353 45.784 66.417 46.0213 66.4756 46.256C66.5396 46.4853 66.601 46.7147 66.6596 46.944C66.729 46.4907 66.8276 46.024 66.9556 45.544L68.1636 41.16C68.201 41.0533 68.2676 40.9653 68.3636 40.896C68.4596 40.8267 68.5743 40.792 68.7076 40.792H70.2116ZM73.3834 40.792V49H71.3994V40.792H73.3834ZM73.6554 38.4C73.6554 38.5707 73.6207 38.7307 73.5514 38.88C73.482 39.0293 73.3887 39.16 73.2714 39.272C73.1594 39.384 73.026 39.4747 72.8714 39.544C72.7167 39.608 72.5514 39.64 72.3754 39.64C72.2047 39.64 72.042 39.608 71.8874 39.544C71.738 39.4747 71.6074 39.384 71.4954 39.272C71.3834 39.16 71.2927 39.0293 71.2234 38.88C71.1594 38.7307 71.1274 38.5707 71.1274 38.4C71.1274 38.224 71.1594 38.0587 71.2234 37.904C71.2927 37.7493 71.3834 37.616 71.4954 37.504C71.6074 37.392 71.738 37.304 71.8874 37.24C72.042 37.1707 72.2047 37.136 72.3754 37.136C72.5514 37.136 72.7167 37.1707 72.8714 37.24C73.026 37.304 73.1594 37.392 73.2714 37.504C73.3887 37.616 73.482 37.7493 73.5514 37.904C73.6207 38.0587 73.6554 38.224 73.6554 38.4ZM80.4059 42.392C80.3525 42.4773 80.2965 42.5387 80.2379 42.576C80.1792 42.608 80.1045 42.624 80.0139 42.624C79.9179 42.624 79.8139 42.5973 79.7019 42.544C79.5952 42.4907 79.4699 42.432 79.3259 42.368C79.1819 42.2987 79.0165 42.2373 78.8299 42.184C78.6485 42.1307 78.4325 42.104 78.1819 42.104C77.7925 42.104 77.4859 42.1867 77.2619 42.352C77.0432 42.5173 76.9339 42.7333 76.9339 43C76.9339 43.176 76.9899 43.3253 77.1019 43.448C77.2192 43.5653 77.3712 43.6693 77.5579 43.76C77.7499 43.8507 77.9659 43.9333 78.2059 44.008C78.4459 44.0773 78.6885 44.1547 78.9339 44.24C79.1845 44.3253 79.4299 44.424 79.6699 44.536C79.9099 44.6427 80.1232 44.7813 80.3099 44.952C80.5019 45.1173 80.6539 45.3173 80.7659 45.552C80.8832 45.7867 80.9419 46.0693 80.9419 46.4C80.9419 46.7947 80.8699 47.16 80.7259 47.496C80.5872 47.8267 80.3792 48.1147 80.1019 48.36C79.8245 48.6 79.4805 48.7893 79.0699 48.928C78.6645 49.0613 78.1952 49.128 77.6619 49.128C77.3792 49.128 77.1019 49.1013 76.8299 49.048C76.5632 49 76.3045 48.9307 76.0539 48.84C75.8085 48.7493 75.5792 48.6427 75.3659 48.52C75.1579 48.3973 74.9739 48.264 74.8139 48.12L75.2699 47.368C75.3285 47.2773 75.3979 47.208 75.4779 47.16C75.5579 47.112 75.6592 47.088 75.7819 47.088C75.9045 47.088 76.0192 47.1227 76.1259 47.192C76.2379 47.2613 76.3659 47.336 76.5099 47.416C76.6539 47.496 76.8219 47.5707 77.0139 47.64C77.2112 47.7093 77.4592 47.744 77.7579 47.744C77.9925 47.744 78.1925 47.7173 78.3579 47.664C78.5285 47.6053 78.6672 47.5307 78.7739 47.44C78.8859 47.3493 78.9659 47.2453 79.0139 47.128C79.0672 47.0053 79.0939 46.88 79.0939 46.752C79.0939 46.56 79.0352 46.4027 78.9179 46.28C78.8059 46.1573 78.6539 46.0507 78.4619 45.96C78.2752 45.8693 78.0592 45.7893 77.8139 45.72C77.5739 45.6453 77.3259 45.5653 77.0699 45.48C76.8192 45.3947 76.5712 45.296 76.3259 45.184C76.0859 45.0667 75.8699 44.92 75.6779 44.744C75.4912 44.568 75.3392 44.352 75.2219 44.096C75.1099 43.84 75.0539 43.5307 75.0539 43.168C75.0539 42.832 75.1205 42.512 75.2539 42.208C75.3872 41.904 75.5819 41.64 75.8379 41.416C76.0992 41.1867 76.4219 41.0053 76.8059 40.872C77.1952 40.7333 77.6432 40.664 78.1499 40.664C78.7152 40.664 79.2299 40.7573 79.6939 40.944C80.1579 41.1307 80.5445 41.376 80.8539 41.68L80.4059 42.392ZM84.4051 41.672C84.7251 41.3733 85.0771 41.1307 85.4611 40.944C85.8451 40.7573 86.2958 40.664 86.8131 40.664C87.2611 40.664 87.6585 40.7413 88.0051 40.896C88.3518 41.0453 88.6398 41.2587 88.8691 41.536C89.1038 41.808 89.2798 42.136 89.3971 42.52C89.5198 42.8987 89.5811 43.3173 89.5811 43.776V49H87.6051V43.776C87.6051 43.2747 87.4905 42.888 87.2611 42.616C87.0318 42.3387 86.6825 42.2 86.2131 42.2C85.8718 42.2 85.5518 42.2773 85.2531 42.432C84.9545 42.5867 84.6718 42.7973 84.4051 43.064V49H82.4291V37.112H84.4051V41.672ZM96.7484 43.952C96.7484 43.696 96.711 43.456 96.6364 43.232C96.567 43.0027 96.4604 42.8027 96.3164 42.632C96.1724 42.4613 95.9884 42.328 95.7644 42.232C95.5457 42.1307 95.2897 42.08 94.9964 42.08C94.4257 42.08 93.975 42.2427 93.6444 42.568C93.319 42.8933 93.111 43.3547 93.0204 43.952H96.7484ZM92.9804 45.144C93.0124 45.5653 93.087 45.9307 93.2044 46.24C93.3217 46.544 93.4764 46.7973 93.6684 47C93.8604 47.1973 94.087 47.3467 94.3484 47.448C94.615 47.544 94.9084 47.592 95.2284 47.592C95.5484 47.592 95.823 47.5547 96.0524 47.48C96.287 47.4053 96.4897 47.3227 96.6604 47.232C96.8364 47.1413 96.9884 47.0587 97.1164 46.984C97.2497 46.9093 97.3777 46.872 97.5004 46.872C97.6657 46.872 97.7884 46.9333 97.8684 47.056L98.4364 47.776C98.2177 48.032 97.9724 48.248 97.7004 48.424C97.4284 48.5947 97.143 48.7333 96.8444 48.84C96.551 48.9413 96.2497 49.0133 95.9404 49.056C95.6364 49.0987 95.3404 49.12 95.0524 49.12C94.4817 49.12 93.951 49.0267 93.4604 48.84C92.9697 48.648 92.543 48.368 92.1804 48C91.8177 47.6267 91.5324 47.168 91.3244 46.624C91.1164 46.0747 91.0124 45.44 91.0124 44.72C91.0124 44.16 91.103 43.6347 91.2844 43.144C91.4657 42.648 91.7244 42.2187 92.0604 41.856C92.4017 41.488 92.815 41.1973 93.3004 40.984C93.791 40.7707 94.343 40.664 94.9564 40.664C95.4737 40.664 95.951 40.7467 96.3884 40.912C96.8257 41.0773 97.2017 41.32 97.5164 41.64C97.831 41.9547 98.0764 42.344 98.2524 42.808C98.4337 43.2667 98.5244 43.792 98.5244 44.384C98.5244 44.6827 98.4924 44.8853 98.4284 44.992C98.3644 45.0933 98.2417 45.144 98.0604 45.144H92.9804ZM105.015 42.392C104.962 42.4773 104.906 42.5387 104.847 42.576C104.789 42.608 104.714 42.624 104.623 42.624C104.527 42.624 104.423 42.5973 104.311 42.544C104.205 42.4907 104.079 42.432 103.935 42.368C103.791 42.2987 103.626 42.2373 103.439 42.184C103.258 42.1307 103.042 42.104 102.791 42.104C102.402 42.104 102.095 42.1867 101.871 42.352C101.653 42.5173 101.543 42.7333 101.543 43C101.543 43.176 101.599 43.3253 101.711 43.448C101.829 43.5653 101.981 43.6693 102.167 43.76C102.359 43.8507 102.575 43.9333 102.815 44.008C103.055 44.0773 103.298 44.1547 103.543 44.24C103.794 44.3253 104.039 44.424 104.279 44.536C104.519 44.6427 104.733 44.7813 104.919 44.952C105.111 45.1173 105.263 45.3173 105.375 45.552C105.493 45.7867 105.551 46.0693 105.551 46.4C105.551 46.7947 105.479 47.16 105.335 47.496C105.197 47.8267 104.989 48.1147 104.711 48.36C104.434 48.6 104.09 48.7893 103.679 48.928C103.274 49.0613 102.805 49.128 102.271 49.128C101.989 49.128 101.711 49.1013 101.439 49.048C101.173 49 100.914 48.9307 100.663 48.84C100.418 48.7493 100.189 48.6427 99.9753 48.52C99.7673 48.3973 99.5833 48.264 99.4233 48.12L99.8793 47.368C99.9379 47.2773 100.007 47.208 100.087 47.16C100.167 47.112 100.269 47.088 100.391 47.088C100.514 47.088 100.629 47.1227 100.735 47.192C100.847 47.2613 100.975 47.336 101.119 47.416C101.263 47.496 101.431 47.5707 101.623 47.64C101.821 47.7093 102.069 47.744 102.367 47.744C102.602 47.744 102.802 47.7173 102.967 47.664C103.138 47.6053 103.277 47.5307 103.383 47.44C103.495 47.3493 103.575 47.2453 103.623 47.128C103.677 47.0053 103.703 46.88 103.703 46.752C103.703 46.56 103.645 46.4027 103.527 46.28C103.415 46.1573 103.263 46.0507 103.071 45.96C102.885 45.8693 102.669 45.7893 102.423 45.72C102.183 45.6453 101.935 45.5653 101.679 45.48C101.429 45.3947 101.181 45.296 100.935 45.184C100.695 45.0667 100.479 44.92 100.287 44.744C100.101 44.568 99.9486 44.352 99.8313 44.096C99.7193 43.84 99.6633 43.5307 99.6633 43.168C99.6633 42.832 99.7299 42.512 99.8633 42.208C99.9966 41.904 100.191 41.64 100.447 41.416C100.709 41.1867 101.031 41.0053 101.415 40.872C101.805 40.7333 102.253 40.664 102.759 40.664C103.325 40.664 103.839 40.7573 104.303 40.944C104.767 41.1307 105.154 41.376 105.463 41.68L105.015 42.392ZM111.505 49V42.28L110.793 42.168C110.638 42.136 110.513 42.0827 110.417 42.008C110.326 41.928 110.281 41.816 110.281 41.672V40.864H111.505V40.256C111.505 39.7867 111.574 39.3653 111.713 38.992C111.857 38.6187 112.06 38.3013 112.321 38.04C112.588 37.7787 112.91 37.5787 113.289 37.44C113.668 37.3013 114.094 37.232 114.569 37.232C114.948 37.232 115.3 37.2827 115.625 37.384L115.585 38.376C115.58 38.4507 115.558 38.512 115.521 38.56C115.484 38.6027 115.433 38.6373 115.369 38.664C115.31 38.6853 115.241 38.7013 115.161 38.712C115.081 38.7173 114.996 38.72 114.905 38.72C114.67 38.72 114.46 38.7467 114.273 38.8C114.092 38.848 113.937 38.936 113.809 39.064C113.681 39.1867 113.582 39.352 113.513 39.56C113.449 39.7627 113.417 40.016 113.417 40.32V40.864H115.553V42.272H113.481V49H111.505ZM118.528 42.216C118.784 41.7253 119.088 41.3413 119.44 41.064C119.792 40.7813 120.208 40.64 120.688 40.64C121.066 40.64 121.37 40.7227 121.6 40.888L121.472 42.368C121.445 42.464 121.405 42.5333 121.352 42.576C121.304 42.6133 121.237 42.632 121.152 42.632C121.072 42.632 120.952 42.6187 120.792 42.592C120.637 42.5653 120.485 42.552 120.336 42.552C120.117 42.552 119.922 42.584 119.752 42.648C119.581 42.712 119.426 42.8053 119.288 42.928C119.154 43.0453 119.034 43.1893 118.928 43.36C118.826 43.5307 118.73 43.7253 118.64 43.944V49H116.664V40.792H117.824C118.026 40.792 118.168 40.8293 118.248 40.904C118.328 40.9733 118.381 41.1013 118.408 41.288L118.528 42.216ZM126.03 40.664C126.638 40.664 127.19 40.7627 127.686 40.96C128.187 41.1573 128.614 41.4373 128.966 41.8C129.323 42.1627 129.598 42.6053 129.79 43.128C129.982 43.6507 130.078 44.2347 130.078 44.88C130.078 45.5307 129.982 46.1173 129.79 46.64C129.598 47.1627 129.323 47.608 128.966 47.976C128.614 48.344 128.187 48.6267 127.686 48.824C127.19 49.0213 126.638 49.12 126.03 49.12C125.417 49.12 124.859 49.0213 124.358 48.824C123.857 48.6267 123.427 48.344 123.07 47.976C122.718 47.608 122.443 47.1627 122.246 46.64C122.054 46.1173 121.958 45.5307 121.958 44.88C121.958 44.2347 122.054 43.6507 122.246 43.128C122.443 42.6053 122.718 42.1627 123.07 41.8C123.427 41.4373 123.857 41.1573 124.358 40.96C124.859 40.7627 125.417 40.664 126.03 40.664ZM126.03 47.6C126.713 47.6 127.217 47.3707 127.542 46.912C127.873 46.4533 128.038 45.7813 128.038 44.896C128.038 44.0107 127.873 43.336 127.542 42.872C127.217 42.408 126.713 42.176 126.03 42.176C125.337 42.176 124.822 42.4107 124.486 42.88C124.155 43.344 123.99 44.016 123.99 44.896C123.99 45.776 124.155 46.448 124.486 46.912C124.822 47.3707 125.337 47.6 126.03 47.6ZM131.585 49V40.792H132.793C133.049 40.792 133.217 40.912 133.297 41.152L133.425 41.76C133.569 41.6 133.719 41.4533 133.873 41.32C134.033 41.1867 134.201 41.072 134.377 40.976C134.559 40.88 134.751 40.8053 134.953 40.752C135.161 40.6933 135.388 40.664 135.633 40.664C136.151 40.664 136.575 40.8053 136.905 41.088C137.241 41.3653 137.492 41.736 137.657 42.2C137.785 41.928 137.945 41.696 138.137 41.504C138.329 41.3067 138.54 41.1467 138.769 41.024C138.999 40.9013 139.241 40.8107 139.497 40.752C139.759 40.6933 140.02 40.664 140.281 40.664C140.735 40.664 141.137 40.7333 141.489 40.872C141.841 41.0107 142.137 41.2133 142.377 41.48C142.617 41.7467 142.799 42.072 142.921 42.456C143.049 42.84 143.113 43.28 143.113 43.776V49H141.137V43.776C141.137 43.2533 141.023 42.8613 140.793 42.6C140.564 42.3333 140.228 42.2 139.785 42.2C139.583 42.2 139.393 42.2347 139.217 42.304C139.047 42.3733 138.895 42.4747 138.761 42.608C138.633 42.736 138.532 42.8987 138.457 43.096C138.383 43.2933 138.345 43.52 138.345 43.776V49H136.361V43.776C136.361 43.2267 136.249 42.8267 136.025 42.576C135.807 42.3253 135.484 42.2 135.057 42.2C134.769 42.2 134.5 42.272 134.249 42.416C134.004 42.5547 133.775 42.7467 133.561 42.992V49H131.585ZM159.466 43.216C159.466 44.064 159.325 44.8427 159.042 45.552C158.76 46.2613 158.362 46.872 157.85 47.384C157.338 47.896 156.722 48.2933 156.002 48.576C155.282 48.8587 154.482 49 153.602 49H149.194V37.432H153.602C154.482 37.432 155.282 37.576 156.002 37.864C156.722 38.1467 157.338 38.544 157.85 39.056C158.362 39.5627 158.76 40.1707 159.042 40.88C159.325 41.5893 159.466 42.368 159.466 43.216ZM157.258 43.216C157.258 42.5813 157.173 42.0133 157.002 41.512C156.837 41.0053 156.594 40.5787 156.274 40.232C155.96 39.88 155.576 39.6107 155.122 39.424C154.674 39.2373 154.168 39.144 153.602 39.144H151.354V47.288H153.602C154.168 47.288 154.674 47.1947 155.122 47.008C155.576 46.8213 155.96 46.5547 156.274 46.208C156.594 45.856 156.837 45.4293 157.002 44.928C157.173 44.4213 157.258 43.8507 157.258 43.216ZM164.577 40.664C165.185 40.664 165.737 40.7627 166.233 40.96C166.734 41.1573 167.161 41.4373 167.513 41.8C167.87 42.1627 168.145 42.6053 168.337 43.128C168.529 43.6507 168.625 44.2347 168.625 44.88C168.625 45.5307 168.529 46.1173 168.337 46.64C168.145 47.1627 167.87 47.608 167.513 47.976C167.161 48.344 166.734 48.6267 166.233 48.824C165.737 49.0213 165.185 49.12 164.577 49.12C163.963 49.12 163.406 49.0213 162.905 48.824C162.403 48.6267 161.974 48.344 161.617 47.976C161.265 47.608 160.99 47.1627 160.793 46.64C160.601 46.1173 160.505 45.5307 160.505 44.88C160.505 44.2347 160.601 43.6507 160.793 43.128C160.99 42.6053 161.265 42.1627 161.617 41.8C161.974 41.4373 162.403 41.1573 162.905 40.96C163.406 40.7627 163.963 40.664 164.577 40.664ZM164.577 47.6C165.259 47.6 165.763 47.3707 166.089 46.912C166.419 46.4533 166.585 45.7813 166.585 44.896C166.585 44.0107 166.419 43.336 166.089 42.872C165.763 42.408 165.259 42.176 164.577 42.176C163.883 42.176 163.369 42.4107 163.033 42.88C162.702 43.344 162.537 44.016 162.537 44.896C162.537 45.776 162.702 46.448 163.033 46.912C163.369 47.3707 163.883 47.6 164.577 47.6ZM176.37 39.536C176.306 39.648 176.237 39.7307 176.162 39.784C176.093 39.832 176.005 39.856 175.898 39.856C175.786 39.856 175.663 39.816 175.53 39.736C175.402 39.6507 175.247 39.5573 175.066 39.456C174.885 39.3547 174.671 39.264 174.426 39.184C174.186 39.0987 173.901 39.056 173.57 39.056C173.271 39.056 173.01 39.0933 172.786 39.168C172.562 39.2373 172.373 39.336 172.218 39.464C172.069 39.592 171.957 39.7467 171.882 39.928C171.807 40.104 171.77 40.2987 171.77 40.512C171.77 40.784 171.845 41.0107 171.994 41.192C172.149 41.3733 172.351 41.528 172.602 41.656C172.853 41.784 173.138 41.8987 173.458 42C173.778 42.1013 174.106 42.2107 174.442 42.328C174.778 42.44 175.106 42.5733 175.426 42.728C175.746 42.8773 176.031 43.0693 176.282 43.304C176.533 43.5333 176.733 43.816 176.882 44.152C177.037 44.488 177.114 44.896 177.114 45.376C177.114 45.8987 177.023 46.3893 176.842 46.848C176.666 47.3013 176.405 47.6987 176.058 48.04C175.717 48.376 175.298 48.6427 174.802 48.84C174.306 49.032 173.738 49.128 173.098 49.128C172.73 49.128 172.367 49.0907 172.01 49.016C171.653 48.9467 171.309 48.8453 170.978 48.712C170.653 48.5787 170.346 48.4187 170.058 48.232C169.77 48.0453 169.514 47.8373 169.29 47.608L169.922 46.576C169.975 46.5013 170.045 46.44 170.13 46.392C170.215 46.3387 170.306 46.312 170.402 46.312C170.535 46.312 170.679 46.368 170.834 46.48C170.989 46.5867 171.173 46.7067 171.386 46.84C171.599 46.9733 171.847 47.096 172.13 47.208C172.418 47.3147 172.762 47.368 173.162 47.368C173.775 47.368 174.25 47.224 174.586 46.936C174.922 46.6427 175.09 46.224 175.09 45.68C175.09 45.376 175.013 45.128 174.858 44.936C174.709 44.744 174.509 44.584 174.258 44.456C174.007 44.3227 173.722 44.2107 173.402 44.12C173.082 44.0293 172.757 43.9307 172.426 43.824C172.095 43.7173 171.77 43.5893 171.45 43.44C171.13 43.2907 170.845 43.096 170.594 42.856C170.343 42.616 170.141 42.3173 169.986 41.96C169.837 41.5973 169.762 41.152 169.762 40.624C169.762 40.2027 169.845 39.792 170.01 39.392C170.181 38.992 170.426 38.6373 170.746 38.328C171.066 38.0187 171.461 37.7707 171.93 37.584C172.399 37.3973 172.938 37.304 173.546 37.304C174.229 37.304 174.858 37.4107 175.434 37.624C176.01 37.8373 176.501 38.136 176.906 38.52L176.37 39.536ZM183.936 43.952C183.936 43.696 183.899 43.456 183.824 43.232C183.755 43.0027 183.648 42.8027 183.504 42.632C183.36 42.4613 183.176 42.328 182.952 42.232C182.733 42.1307 182.477 42.08 182.184 42.08C181.613 42.08 181.163 42.2427 180.832 42.568C180.507 42.8933 180.299 43.3547 180.208 43.952H183.936ZM180.168 45.144C180.2 45.5653 180.275 45.9307 180.392 46.24C180.509 46.544 180.664 46.7973 180.856 47C181.048 47.1973 181.275 47.3467 181.536 47.448C181.803 47.544 182.096 47.592 182.416 47.592C182.736 47.592 183.011 47.5547 183.24 47.48C183.475 47.4053 183.677 47.3227 183.848 47.232C184.024 47.1413 184.176 47.0587 184.304 46.984C184.437 46.9093 184.565 46.872 184.688 46.872C184.853 46.872 184.976 46.9333 185.056 47.056L185.624 47.776C185.405 48.032 185.16 48.248 184.888 48.424C184.616 48.5947 184.331 48.7333 184.032 48.84C183.739 48.9413 183.437 49.0133 183.128 49.056C182.824 49.0987 182.528 49.12 182.24 49.12C181.669 49.12 181.139 49.0267 180.648 48.84C180.157 48.648 179.731 48.368 179.368 48C179.005 47.6267 178.72 47.168 178.512 46.624C178.304 46.0747 178.2 45.44 178.2 44.72C178.2 44.16 178.291 43.6347 178.472 43.144C178.653 42.648 178.912 42.2187 179.248 41.856C179.589 41.488 180.003 41.1973 180.488 40.984C180.979 40.7707 181.531 40.664 182.144 40.664C182.661 40.664 183.139 40.7467 183.576 40.912C184.013 41.0773 184.389 41.32 184.704 41.64C185.019 41.9547 185.264 42.344 185.44 42.808C185.621 43.2667 185.712 43.792 185.712 44.384C185.712 44.6827 185.68 44.8853 185.616 44.992C185.552 45.0933 185.429 45.144 185.248 45.144H180.168ZM189.195 37.112V49H187.219V37.112H189.195ZM196.452 43.952C196.452 43.696 196.414 43.456 196.34 43.232C196.27 43.0027 196.164 42.8027 196.02 42.632C195.876 42.4613 195.692 42.328 195.468 42.232C195.249 42.1307 194.993 42.08 194.7 42.08C194.129 42.08 193.678 42.2427 193.348 42.568C193.022 42.8933 192.814 43.3547 192.724 43.952H196.452ZM192.684 45.144C192.716 45.5653 192.79 45.9307 192.908 46.24C193.025 46.544 193.18 46.7973 193.372 47C193.564 47.1973 193.79 47.3467 194.052 47.448C194.318 47.544 194.612 47.592 194.932 47.592C195.252 47.592 195.526 47.5547 195.756 47.48C195.99 47.4053 196.193 47.3227 196.364 47.232C196.54 47.1413 196.692 47.0587 196.82 46.984C196.953 46.9093 197.081 46.872 197.204 46.872C197.369 46.872 197.492 46.9333 197.572 47.056L198.14 47.776C197.921 48.032 197.676 48.248 197.404 48.424C197.132 48.5947 196.846 48.7333 196.548 48.84C196.254 48.9413 195.953 49.0133 195.644 49.056C195.34 49.0987 195.044 49.12 194.756 49.12C194.185 49.12 193.654 49.0267 193.164 48.84C192.673 48.648 192.246 48.368 191.884 48C191.521 47.6267 191.236 47.168 191.028 46.624C190.82 46.0747 190.715 45.44 190.715 44.72C190.715 44.16 190.806 43.6347 190.988 43.144C191.169 42.648 191.428 42.2187 191.764 41.856C192.105 41.488 192.518 41.1973 193.004 40.984C193.494 40.7707 194.046 40.664 194.66 40.664C195.177 40.664 195.654 40.7467 196.092 40.912C196.529 41.0773 196.905 41.32 197.22 41.64C197.534 41.9547 197.78 42.344 197.956 42.808C198.137 43.2667 198.227 43.792 198.227 44.384C198.227 44.6827 198.196 44.8853 198.132 44.992C198.068 45.0933 197.945 45.144 197.764 45.144H192.684ZM205.59 42.528C205.532 42.6027 205.473 42.6613 205.414 42.704C205.361 42.7467 205.281 42.768 205.174 42.768C205.073 42.768 204.974 42.7387 204.878 42.68C204.782 42.616 204.668 42.5467 204.534 42.472C204.401 42.392 204.241 42.3227 204.054 42.264C203.873 42.2 203.646 42.168 203.374 42.168C203.028 42.168 202.724 42.232 202.462 42.36C202.201 42.4827 201.982 42.6613 201.806 42.896C201.636 43.1307 201.508 43.416 201.422 43.752C201.337 44.0827 201.294 44.4587 201.294 44.88C201.294 45.3173 201.34 45.7067 201.43 46.048C201.526 46.3893 201.662 46.6773 201.838 46.912C202.014 47.1413 202.228 47.3173 202.478 47.44C202.729 47.5573 203.012 47.616 203.326 47.616C203.641 47.616 203.894 47.5787 204.086 47.504C204.284 47.424 204.449 47.3387 204.582 47.248C204.716 47.152 204.83 47.0667 204.926 46.992C205.028 46.912 205.14 46.872 205.262 46.872C205.422 46.872 205.542 46.9333 205.622 47.056L206.19 47.776C205.972 48.032 205.734 48.248 205.478 48.424C205.222 48.5947 204.956 48.7333 204.678 48.84C204.406 48.9413 204.124 49.0133 203.83 49.056C203.542 49.0987 203.254 49.12 202.966 49.12C202.46 49.12 201.982 49.0267 201.534 48.84C201.086 48.648 200.694 48.3707 200.358 48.008C200.022 47.6453 199.756 47.2027 199.558 46.68C199.366 46.152 199.27 45.552 199.27 44.88C199.27 44.2773 199.356 43.72 199.526 43.208C199.702 42.6907 199.958 42.2453 200.294 41.872C200.63 41.4933 201.046 41.1973 201.542 40.984C202.038 40.7707 202.609 40.664 203.254 40.664C203.868 40.664 204.404 40.7627 204.862 40.96C205.326 41.1573 205.742 41.44 206.11 41.808L205.59 42.528ZM210.165 49.128C209.45 49.128 208.901 48.928 208.517 48.528C208.138 48.1227 207.949 47.5653 207.949 46.856V42.272H207.109C207.002 42.272 206.912 42.2373 206.837 42.168C206.762 42.0987 206.725 41.9947 206.725 41.856V41.072L208.045 40.856L208.461 38.616C208.488 38.5093 208.538 38.4267 208.613 38.368C208.688 38.3093 208.784 38.28 208.901 38.28H209.925V40.864H212.117V42.272H209.925V46.72C209.925 46.976 209.986 47.176 210.109 47.32C210.237 47.464 210.41 47.536 210.629 47.536C210.752 47.536 210.853 47.5227 210.933 47.496C211.018 47.464 211.09 47.432 211.149 47.4C211.213 47.368 211.269 47.3387 211.317 47.312C211.365 47.28 211.413 47.264 211.461 47.264C211.52 47.264 211.568 47.28 211.605 47.312C211.642 47.3387 211.682 47.3813 211.725 47.44L212.317 48.4C212.029 48.64 211.698 48.8213 211.325 48.944C210.952 49.0667 210.565 49.128 210.165 49.128ZM222.241 47.264C222.657 47.264 223.028 47.1947 223.353 47.056C223.684 46.9173 223.961 46.7227 224.185 46.472C224.409 46.2213 224.58 45.9173 224.697 45.56C224.82 45.2027 224.881 44.8027 224.881 44.36V37.432H227.033V44.36C227.033 45.048 226.921 45.6853 226.697 46.272C226.478 46.8533 226.161 47.3573 225.745 47.784C225.334 48.2053 224.833 48.536 224.241 48.776C223.649 49.0107 222.982 49.128 222.241 49.128C221.494 49.128 220.825 49.0107 220.233 48.776C219.641 48.536 219.137 48.2053 218.721 47.784C218.31 47.3573 217.993 46.8533 217.769 46.272C217.55 45.6853 217.441 45.048 217.441 44.36V37.432H219.593V44.352C219.593 44.7947 219.652 45.1947 219.769 45.552C219.892 45.9093 220.065 46.216 220.289 46.472C220.518 46.7227 220.796 46.9173 221.121 47.056C221.452 47.1947 221.825 47.264 222.241 47.264ZM238.86 49H236.716C236.567 49 236.447 48.9627 236.356 48.888C236.271 48.8133 236.201 48.728 236.148 48.632L233.468 44.192C233.425 44.3253 233.375 44.44 233.316 44.536L230.748 48.632C230.684 48.7227 230.609 48.808 230.524 48.888C230.444 48.9627 230.337 49 230.204 49H228.196L232.036 43.048L228.348 37.432H230.492C230.641 37.432 230.748 37.4533 230.812 37.496C230.881 37.5333 230.945 37.5973 231.004 37.688L233.636 41.928C233.689 41.7947 233.753 41.6613 233.828 41.528L236.244 37.728C236.303 37.6267 236.367 37.552 236.436 37.504C236.505 37.456 236.593 37.432 236.7 37.432H238.756L235.036 42.96L238.86 49ZM251.681 39.2H248.193V49H246.041V39.2H242.553V37.432H251.681V39.2ZM256.248 43.952C256.248 43.696 256.211 43.456 256.136 43.232C256.067 43.0027 255.96 42.8027 255.816 42.632C255.672 42.4613 255.488 42.328 255.264 42.232C255.046 42.1307 254.79 42.08 254.496 42.08C253.926 42.08 253.475 42.2427 253.144 42.568C252.819 42.8933 252.611 43.3547 252.52 43.952H256.248ZM252.48 45.144C252.512 45.5653 252.587 45.9307 252.704 46.24C252.822 46.544 252.976 46.7973 253.168 47C253.36 47.1973 253.587 47.3467 253.848 47.448C254.115 47.544 254.408 47.592 254.728 47.592C255.048 47.592 255.323 47.5547 255.552 47.48C255.787 47.4053 255.99 47.3227 256.16 47.232C256.336 47.1413 256.488 47.0587 256.616 46.984C256.75 46.9093 256.878 46.872 257 46.872C257.166 46.872 257.288 46.9333 257.368 47.056L257.936 47.776C257.718 48.032 257.472 48.248 257.2 48.424C256.928 48.5947 256.643 48.7333 256.344 48.84C256.051 48.9413 255.75 49.0133 255.44 49.056C255.136 49.0987 254.84 49.12 254.552 49.12C253.982 49.12 253.451 49.0267 252.96 48.84C252.47 48.648 252.043 48.368 251.68 48C251.318 47.6267 251.032 47.168 250.824 46.624C250.616 46.0747 250.512 45.44 250.512 44.72C250.512 44.16 250.603 43.6347 250.784 43.144C250.966 42.648 251.224 42.2187 251.56 41.856C251.902 41.488 252.315 41.1973 252.8 40.984C253.291 40.7707 253.843 40.664 254.456 40.664C254.974 40.664 255.451 40.7467 255.888 40.912C256.326 41.0773 256.702 41.32 257.016 41.64C257.331 41.9547 257.576 42.344 257.752 42.808C257.934 43.2667 258.024 43.792 258.024 44.384C258.024 44.6827 257.992 44.8853 257.928 44.992C257.864 45.0933 257.742 45.144 257.56 45.144H252.48ZM264.515 42.392C264.462 42.4773 264.406 42.5387 264.347 42.576C264.289 42.608 264.214 42.624 264.123 42.624C264.027 42.624 263.923 42.5973 263.811 42.544C263.705 42.4907 263.579 42.432 263.435 42.368C263.291 42.2987 263.126 42.2373 262.939 42.184C262.758 42.1307 262.542 42.104 262.291 42.104C261.902 42.104 261.595 42.1867 261.371 42.352C261.153 42.5173 261.043 42.7333 261.043 43C261.043 43.176 261.099 43.3253 261.211 43.448C261.329 43.5653 261.481 43.6693 261.667 43.76C261.859 43.8507 262.075 43.9333 262.315 44.008C262.555 44.0773 262.798 44.1547 263.043 44.24C263.294 44.3253 263.539 44.424 263.779 44.536C264.019 44.6427 264.233 44.7813 264.419 44.952C264.611 45.1173 264.763 45.3173 264.875 45.552C264.993 45.7867 265.051 46.0693 265.051 46.4C265.051 46.7947 264.979 47.16 264.835 47.496C264.697 47.8267 264.489 48.1147 264.211 48.36C263.934 48.6 263.59 48.7893 263.179 48.928C262.774 49.0613 262.305 49.128 261.771 49.128C261.489 49.128 261.211 49.1013 260.939 49.048C260.673 49 260.414 48.9307 260.163 48.84C259.918 48.7493 259.689 48.6427 259.475 48.52C259.267 48.3973 259.083 48.264 258.923 48.12L259.379 47.368C259.438 47.2773 259.507 47.208 259.587 47.16C259.667 47.112 259.769 47.088 259.891 47.088C260.014 47.088 260.129 47.1227 260.235 47.192C260.347 47.2613 260.475 47.336 260.619 47.416C260.763 47.496 260.931 47.5707 261.123 47.64C261.321 47.7093 261.569 47.744 261.867 47.744C262.102 47.744 262.302 47.7173 262.467 47.664C262.638 47.6053 262.777 47.5307 262.883 47.44C262.995 47.3493 263.075 47.2453 263.123 47.128C263.177 47.0053 263.203 46.88 263.203 46.752C263.203 46.56 263.145 46.4027 263.027 46.28C262.915 46.1573 262.763 46.0507 262.571 45.96C262.385 45.8693 262.169 45.7893 261.923 45.72C261.683 45.6453 261.435 45.5653 261.179 45.48C260.929 45.3947 260.681 45.296 260.435 45.184C260.195 45.0667 259.979 44.92 259.787 44.744C259.601 44.568 259.449 44.352 259.331 44.096C259.219 43.84 259.163 43.5307 259.163 43.168C259.163 42.832 259.23 42.512 259.363 42.208C259.497 41.904 259.691 41.64 259.947 41.416C260.209 41.1867 260.531 41.0053 260.915 40.872C261.305 40.7333 261.753 40.664 262.259 40.664C262.825 40.664 263.339 40.7573 263.803 40.944C264.267 41.1307 264.654 41.376 264.963 41.68L264.515 42.392ZM274.819 49H272.843V42.272H269.035V46.72C269.035 46.976 269.096 47.176 269.219 47.32C269.347 47.464 269.52 47.536 269.739 47.536C269.861 47.536 269.963 47.5227 270.043 47.496C270.128 47.464 270.2 47.432 270.259 47.4C270.323 47.368 270.379 47.3387 270.427 47.312C270.475 47.28 270.523 47.264 270.571 47.264C270.629 47.264 270.677 47.28 270.715 47.312C270.752 47.3387 270.792 47.3813 270.835 47.44L271.427 48.4C271.139 48.64 270.808 48.8213 270.435 48.944C270.061 49.0667 269.675 49.128 269.275 49.128C268.56 49.128 268.011 48.928 267.627 48.528C267.248 48.1227 267.059 47.5653 267.059 46.856V42.272H266.219C266.112 42.272 266.021 42.2373 265.947 42.168C265.872 42.0987 265.835 41.9947 265.835 41.856V41.072L267.155 40.848L267.571 38.616C267.597 38.5093 267.648 38.4267 267.723 38.368C267.797 38.3093 267.893 38.28 268.011 38.28H269.035V40.864H274.819V49ZM275.163 38.368C275.163 38.5387 275.128 38.7013 275.059 38.856C274.989 39.0053 274.896 39.136 274.779 39.248C274.667 39.36 274.531 39.4507 274.371 39.52C274.216 39.584 274.051 39.616 273.875 39.616C273.704 39.616 273.544 39.584 273.395 39.52C273.245 39.4507 273.115 39.36 273.003 39.248C272.891 39.136 272.8 39.0053 272.731 38.856C272.667 38.7013 272.635 38.5387 272.635 38.368C272.635 38.192 272.667 38.0293 272.731 37.88C272.8 37.7253 272.891 37.592 273.003 37.48C273.115 37.3627 273.245 37.272 273.395 37.208C273.544 37.1387 273.704 37.104 273.875 37.104C274.051 37.104 274.216 37.1387 274.371 37.208C274.531 37.272 274.667 37.3627 274.779 37.48C274.896 37.592 274.989 37.7253 275.059 37.88C275.128 38.0293 275.163 38.192 275.163 38.368ZM278.683 41.8C278.849 41.6347 279.022 41.4827 279.203 41.344C279.39 41.2 279.585 41.08 279.787 40.984C279.995 40.8827 280.217 40.8053 280.451 40.752C280.686 40.6933 280.942 40.664 281.219 40.664C281.667 40.664 282.065 40.7413 282.411 40.896C282.758 41.0453 283.046 41.2587 283.275 41.536C283.51 41.808 283.686 42.136 283.803 42.52C283.926 42.8987 283.987 43.3173 283.987 43.776V49H282.011V43.776C282.011 43.2747 281.897 42.888 281.667 42.616C281.438 42.3387 281.089 42.2 280.619 42.2C280.278 42.2 279.958 42.2773 279.659 42.432C279.361 42.5867 279.078 42.7973 278.811 43.064V49H276.835V40.792H278.043C278.299 40.792 278.467 40.912 278.547 41.152L278.683 41.8ZM288.867 44.696C289.112 44.696 289.325 44.664 289.507 44.6C289.688 44.5307 289.837 44.4373 289.955 44.32C290.077 44.2027 290.168 44.0613 290.227 43.896C290.291 43.7307 290.323 43.5493 290.323 43.352C290.323 42.9467 290.2 42.6267 289.955 42.392C289.715 42.152 289.352 42.032 288.867 42.032C288.381 42.032 288.016 42.152 287.771 42.392C287.531 42.6267 287.411 42.9467 287.411 43.352C287.411 43.544 287.44 43.7227 287.499 43.888C287.563 44.0533 287.653 44.1973 287.771 44.32C287.893 44.4373 288.045 44.5307 288.227 44.6C288.413 44.664 288.627 44.696 288.867 44.696ZM291.099 49.368C291.099 49.208 291.051 49.0773 290.955 48.976C290.859 48.8747 290.728 48.7973 290.563 48.744C290.397 48.6853 290.203 48.6427 289.979 48.616C289.76 48.5893 289.525 48.5707 289.275 48.56C289.029 48.544 288.773 48.5307 288.507 48.52C288.245 48.5093 287.989 48.488 287.739 48.456C287.52 48.5787 287.341 48.7227 287.203 48.888C287.069 49.0533 287.003 49.2453 287.003 49.464C287.003 49.608 287.037 49.7413 287.107 49.864C287.181 49.992 287.296 50.1013 287.451 50.192C287.611 50.2827 287.816 50.352 288.067 50.4C288.317 50.4533 288.624 50.48 288.987 50.48C289.355 50.48 289.672 50.4507 289.939 50.392C290.205 50.3387 290.424 50.2613 290.595 50.16C290.771 50.064 290.899 49.9467 290.979 49.808C291.059 49.6747 291.099 49.528 291.099 49.368ZM293.067 41.072V41.808C293.067 42.0427 292.925 42.1867 292.643 42.24L291.907 42.376C292.019 42.6587 292.075 42.968 292.075 43.304C292.075 43.7093 291.992 44.0773 291.827 44.408C291.667 44.7333 291.443 45.0107 291.155 45.24C290.867 45.4693 290.525 45.648 290.131 45.776C289.741 45.8987 289.32 45.96 288.867 45.96C288.707 45.96 288.552 45.952 288.403 45.936C288.253 45.92 288.107 45.8987 287.963 45.872C287.707 46.0267 287.579 46.2 287.579 46.392C287.579 46.5573 287.653 46.68 287.803 46.76C287.957 46.8347 288.16 46.888 288.411 46.92C288.661 46.952 288.947 46.9733 289.267 46.984C289.587 46.9893 289.915 47.0053 290.251 47.032C290.587 47.0587 290.915 47.1067 291.235 47.176C291.555 47.24 291.84 47.344 292.091 47.488C292.341 47.632 292.541 47.8293 292.691 48.08C292.845 48.3253 292.923 48.6427 292.923 49.032C292.923 49.3947 292.832 49.7467 292.651 50.088C292.475 50.4293 292.216 50.7333 291.875 51C291.539 51.2667 291.123 51.48 290.627 51.64C290.136 51.8053 289.576 51.888 288.947 51.888C288.328 51.888 287.789 51.8267 287.331 51.704C286.872 51.5867 286.491 51.4267 286.187 51.224C285.883 51.0267 285.656 50.7973 285.507 50.536C285.357 50.2747 285.283 50.0027 285.283 49.72C285.283 49.336 285.397 49.016 285.627 48.76C285.861 48.4987 286.181 48.2907 286.587 48.136C286.368 48.024 286.195 47.8747 286.067 47.688C285.939 47.5013 285.875 47.256 285.875 46.952C285.875 46.8293 285.896 46.704 285.939 46.576C285.987 46.4427 286.053 46.312 286.139 46.184C286.229 46.056 286.341 45.936 286.475 45.824C286.608 45.7067 286.765 45.6027 286.947 45.512C286.531 45.288 286.203 44.9893 285.963 44.616C285.728 44.2427 285.611 43.8053 285.611 43.304C285.611 42.8987 285.691 42.5333 285.851 42.208C286.016 41.8773 286.243 41.5973 286.531 41.368C286.824 41.1333 287.168 40.9547 287.563 40.832C287.963 40.7093 288.397 40.648 288.867 40.648C289.219 40.648 289.549 40.6853 289.859 40.76C290.168 40.8293 290.451 40.9333 290.707 41.072H293.067ZM296.528 37.432V42.008C296.528 42.4933 296.504 42.9707 296.456 43.44C296.408 43.904 296.346 44.3973 296.272 44.92H294.928C294.853 44.3973 294.792 43.904 294.744 43.44C294.696 42.9707 294.672 42.4933 294.672 42.008V37.432H296.528ZM294.36 47.912C294.36 47.7467 294.389 47.5893 294.448 47.44C294.512 47.2907 294.597 47.1627 294.704 47.056C294.816 46.9493 294.946 46.864 295.096 46.8C295.245 46.736 295.405 46.704 295.576 46.704C295.741 46.704 295.898 46.736 296.048 46.8C296.197 46.864 296.325 46.9493 296.432 47.056C296.544 47.1627 296.632 47.2907 296.696 47.44C296.76 47.5893 296.792 47.7467 296.792 47.912C296.792 48.0827 296.76 48.2427 296.696 48.392C296.632 48.536 296.544 48.6613 296.432 48.768C296.325 48.8747 296.197 48.9573 296.048 49.016C295.898 49.08 295.741 49.112 295.576 49.112C295.405 49.112 295.245 49.08 295.096 49.016C294.946 48.9573 294.816 48.8747 294.704 48.768C294.597 48.6613 294.512 48.536 294.448 48.392C294.389 48.2427 294.36 48.0827 294.36 47.912Z" fill="#2ECC71"/>
<line x1="8.02441" y1="10" x2="8.02441" y2="33" stroke="white"/>
<line x1="7.52441" y1="9.5" x2="38.5244" y2="9.5" stroke="white"/>
<line x1="311.5" y1="79" x2="311.5" y2="56" stroke="#FDFFFE"/>
<line x1="312" y1="79.5" x2="281" y2="79.5" stroke="#FDFFFE"/>
</svg>
