<svg width="721" height="86" viewBox="0 0 721 86" fill="none" xmlns="http://www.w3.org/2000/svg">
<rect width="721" height="86" fill="#E5E5E5"/>
<g clip-path="url(#clip0_0_1)">
<rect width="1440" height="1188" transform="translate(-359 -857)" fill="white"/>
<rect x="-358" y="-801" width="1440" height="1077" fill="url(#paint0_linear_0_1)"/>
<rect x="0.5" y="0.5" width="720" height="85" rx="4.5" fill="white" stroke="#FFBE4D"/>
<path d="M512 64.6538L515 61L516 62.1538L513.2 66L512 64.6538Z" fill="#FED230"/>
<path d="M484.587 11.1358L488.295 11.3513L488.498 12.5465L484.847 12.5519L484.587 11.1358Z" fill="#FED230"/>
<rect x="503.167" y="52.6691" width="4" height="2" fill="#2ECC71"/>
<path d="M446.538 69.4415L451.046 68.0171L451.254 69.5297L446.809 71.2245L446.538 69.4415Z" fill="#FED230"/>
<rect x="445.678" y="54.5783" width="4" height="2" transform="rotate(33.0761 445.678 54.5783)" fill="#2ECC71"/>
<path d="M515.429 29L518 30.1538V32L515 30.8462L515.429 29Z" fill="#2ECC71"/>
<path d="M466.833 30.6538L469.833 27L470.833 28.1538L468.033 32L466.833 30.6538Z" fill="#FED230"/>
<path d="M404 29.6538L407 26L408 27.1538L405.2 31L404 29.6538Z" fill="#FED230"/>
<path d="M401.429 50L404 51.1538V53L401 51.8462L401.429 50Z" fill="#2ECC71"/>
<path d="M491.439 30.0923L494.571 29.0174L495.923 30.5421L492.409 31.9549L491.439 30.0923Z" fill="#FED262"/>
<path d="M535.279 42.5587L538.017 40.6966L539.722 41.8111L536.706 44.0997L535.279 42.5587Z" fill="#2ECC71"/>
<path d="M414.429 19L417 20.1538V22L414 20.8462L414.429 19Z" fill="#2ECC71"/>
<path d="M434.279 32.5587L437.017 30.6966L438.722 31.8111L435.706 34.0997L434.279 32.5587Z" fill="#2ECC71"/>
<path d="M191.723 64.6538L188.723 61L187.723 62.1538L190.523 66L191.723 64.6538Z" fill="#FED230"/>
<rect width="4" height="2" transform="matrix(-1 0 0 1 200.556 52.6691)" fill="#2ECC71"/>
<path d="M257.185 69.4415L252.677 68.0171L252.468 69.5297L256.914 71.2245L257.185 69.4415Z" fill="#FED230"/>
<rect width="4" height="2" transform="matrix(-0.837946 0.545753 0.545753 0.837946 258.045 54.5783)" fill="#2ECC71"/>
<path d="M236.89 30.6538L233.89 27L232.89 28.1538L235.69 32L236.89 30.6538Z" fill="#FED230"/>
<path d="M301 27.6538L304 24L305 25.1538L302.2 29L301 27.6538Z" fill="#FED230"/>
<rect width="4" height="2" transform="matrix(-1 0 0 1 245.723 18.6691)" fill="#2ECC71"/>
<path d="M212.284 30.0923L209.152 29.0174L207.8 30.5421L211.313 31.9549L212.284 30.0923Z" fill="#FED262"/>
<path d="M168.444 42.5587L165.706 40.6966L164 41.8111L167.017 44.0997L168.444 42.5587Z" fill="#2ECC71"/>
<path d="M269.444 32.5587L266.706 30.6966L265 31.8111L268.017 34.0997L269.444 32.5587Z" fill="#2ECC71"/>
<path d="M297 71.6538L300 68L301 69.1538L298.2 73L297 71.6538Z" fill="#FED230"/>
<rect width="4" height="2" transform="matrix(-1 0 0 1 320.556 52.6691)" fill="#2ECC71"/>
<path d="M377.185 69.4415L372.677 68.0171L372.468 69.5297L376.914 71.2245L377.185 69.4415Z" fill="#FED230"/>
<rect width="4" height="2" transform="matrix(-0.837946 0.545753 0.545753 0.837946 378.045 54.5783)" fill="#2ECC71"/>
<path d="M356.89 30.6538L353.89 27L352.89 28.1538L355.69 32L356.89 30.6538Z" fill="#FED230"/>
<rect width="4" height="2" transform="matrix(-1 0 0 1 365.723 18.6691)" fill="#2ECC71"/>
<path d="M332.284 30.0923L329.152 29.0174L327.8 30.5421L331.313 31.9549L332.284 30.0923Z" fill="#FED262"/>
<path d="M288.444 42.5587L285.706 40.6966L284 41.8111L287.017 44.0997L288.444 42.5587Z" fill="#2ECC71"/>
<path d="M194.318 49.11C194.768 49.11 195.146 49.056 195.452 48.948C195.758 48.84 196.001 48.696 196.181 48.516C196.367 48.336 196.499 48.126 196.577 47.886C196.661 47.646 196.703 47.391 196.703 47.121C196.703 46.839 196.658 46.587 196.568 46.365C196.478 46.137 196.337 45.945 196.145 45.789C195.953 45.627 195.704 45.504 195.398 45.42C195.098 45.336 194.735 45.294 194.309 45.294H191.87V49.11H194.318ZM191.87 39.858V43.62H193.796C194.624 43.62 195.248 43.47 195.668 43.17C196.094 42.87 196.307 42.393 196.307 41.739C196.307 41.061 196.115 40.578 195.731 40.29C195.347 40.002 194.747 39.858 193.931 39.858H191.87ZM193.931 37.986C194.783 37.986 195.512 38.067 196.118 38.229C196.724 38.391 197.219 38.622 197.603 38.922C197.993 39.222 198.278 39.585 198.458 40.011C198.638 40.437 198.728 40.917 198.728 41.451C198.728 41.757 198.683 42.051 198.593 42.333C198.503 42.609 198.362 42.87 198.17 43.116C197.984 43.356 197.744 43.575 197.45 43.773C197.162 43.971 196.817 44.139 196.415 44.277C198.203 44.679 199.097 45.645 199.097 47.175C199.097 47.727 198.992 48.237 198.782 48.705C198.572 49.173 198.266 49.578 197.864 49.92C197.462 50.256 196.967 50.52 196.379 50.712C195.791 50.904 195.119 51 194.363 51H189.449V37.986H193.931ZM206.772 45.321C206.772 45.033 206.73 44.763 206.646 44.511C206.568 44.253 206.448 44.028 206.286 43.836C206.124 43.644 205.917 43.494 205.665 43.386C205.419 43.272 205.131 43.215 204.801 43.215C204.159 43.215 203.652 43.398 203.28 43.764C202.914 44.13 202.68 44.649 202.578 45.321H206.772ZM202.533 46.662C202.569 47.136 202.653 47.547 202.785 47.895C202.917 48.237 203.091 48.522 203.307 48.75C203.523 48.972 203.778 49.14 204.072 49.254C204.372 49.362 204.702 49.416 205.062 49.416C205.422 49.416 205.731 49.374 205.989 49.29C206.253 49.206 206.481 49.113 206.673 49.011C206.871 48.909 207.042 48.816 207.186 48.732C207.336 48.648 207.48 48.606 207.618 48.606C207.804 48.606 207.942 48.675 208.032 48.813L208.671 49.623C208.425 49.911 208.149 50.154 207.843 50.352C207.537 50.544 207.216 50.7 206.88 50.82C206.55 50.934 206.211 51.015 205.863 51.063C205.521 51.111 205.188 51.135 204.864 51.135C204.222 51.135 203.625 51.03 203.073 50.82C202.521 50.604 202.041 50.289 201.633 49.875C201.225 49.455 200.904 48.939 200.67 48.327C200.436 47.709 200.319 46.995 200.319 46.185C200.319 45.555 200.421 44.964 200.625 44.412C200.829 43.854 201.12 43.371 201.498 42.963C201.882 42.549 202.347 42.222 202.893 41.982C203.445 41.742 204.066 41.622 204.756 41.622C205.338 41.622 205.875 41.715 206.367 41.901C206.859 42.087 207.282 42.36 207.636 42.72C207.99 43.074 208.266 43.512 208.464 44.034C208.668 44.55 208.77 45.141 208.77 45.807C208.77 46.143 208.734 46.371 208.662 46.491C208.59 46.605 208.452 46.662 208.248 46.662H202.533ZM216.072 43.566C216.012 43.662 215.949 43.731 215.883 43.773C215.817 43.809 215.733 43.827 215.631 43.827C215.523 43.827 215.406 43.797 215.28 43.737C215.16 43.677 215.019 43.611 214.857 43.539C214.695 43.461 214.509 43.392 214.299 43.332C214.095 43.272 213.852 43.242 213.57 43.242C213.132 43.242 212.787 43.335 212.535 43.521C212.289 43.707 212.166 43.95 212.166 44.25C212.166 44.448 212.229 44.616 212.355 44.754C212.487 44.886 212.658 45.003 212.868 45.105C213.084 45.207 213.327 45.3 213.597 45.384C213.867 45.462 214.14 45.549 214.416 45.645C214.698 45.741 214.974 45.852 215.244 45.978C215.514 46.098 215.754 46.254 215.964 46.446C216.18 46.632 216.351 46.857 216.477 47.121C216.609 47.385 216.675 47.703 216.675 48.075C216.675 48.519 216.594 48.93 216.432 49.308C216.276 49.68 216.042 50.004 215.73 50.28C215.418 50.55 215.031 50.763 214.569 50.919C214.113 51.069 213.585 51.144 212.985 51.144C212.667 51.144 212.355 51.114 212.049 51.054C211.749 51 211.458 50.922 211.176 50.82C210.9 50.718 210.642 50.598 210.402 50.46C210.168 50.322 209.961 50.172 209.781 50.01L210.294 49.164C210.36 49.062 210.438 48.984 210.528 48.93C210.618 48.876 210.732 48.849 210.87 48.849C211.008 48.849 211.137 48.888 211.257 48.966C211.383 49.044 211.527 49.128 211.689 49.218C211.851 49.308 212.04 49.392 212.256 49.47C212.478 49.548 212.757 49.587 213.093 49.587C213.357 49.587 213.582 49.557 213.768 49.497C213.96 49.431 214.116 49.347 214.236 49.245C214.362 49.143 214.452 49.026 214.506 48.894C214.566 48.756 214.596 48.615 214.596 48.471C214.596 48.255 214.53 48.078 214.398 47.94C214.272 47.802 214.101 47.682 213.885 47.58C213.675 47.478 213.432 47.388 213.156 47.31C212.886 47.226 212.607 47.136 212.319 47.04C212.037 46.944 211.758 46.833 211.482 46.707C211.212 46.575 210.969 46.41 210.753 46.212C210.543 46.014 210.372 45.771 210.24 45.483C210.114 45.195 210.051 44.847 210.051 44.439C210.051 44.061 210.126 43.701 210.276 43.359C210.426 43.017 210.645 42.72 210.933 42.468C211.227 42.21 211.59 42.006 212.022 41.856C212.46 41.7 212.964 41.622 213.534 41.622C214.17 41.622 214.749 41.727 215.271 41.937C215.793 42.147 216.228 42.423 216.576 42.765L216.072 43.566ZM221.426 51.144C220.622 51.144 220.004 50.919 219.572 50.469C219.146 50.013 218.933 49.386 218.933 48.588V43.431H217.988C217.868 43.431 217.766 43.392 217.682 43.314C217.598 43.236 217.556 43.119 217.556 42.963V42.081L219.041 41.838L219.509 39.318C219.539 39.198 219.596 39.105 219.68 39.039C219.764 38.973 219.872 38.94 220.004 38.94H221.156V41.847H223.622V43.431H221.156V48.435C221.156 48.723 221.225 48.948 221.363 49.11C221.507 49.272 221.702 49.353 221.948 49.353C222.086 49.353 222.2 49.338 222.29 49.308C222.386 49.272 222.467 49.236 222.533 49.2C222.605 49.164 222.668 49.131 222.722 49.101C222.776 49.065 222.83 49.047 222.884 49.047C222.95 49.047 223.004 49.065 223.046 49.101C223.088 49.131 223.133 49.179 223.181 49.245L223.847 50.325C223.523 50.595 223.151 50.799 222.731 50.937C222.311 51.075 221.876 51.144 221.426 51.144ZM242.238 41.766L239.304 51H237.522C237.318 51 237.177 50.868 237.099 50.604L235.443 45.267C235.389 45.087 235.338 44.91 235.29 44.736C235.248 44.556 235.212 44.376 235.182 44.196C235.146 44.376 235.104 44.559 235.056 44.745C235.014 44.925 234.966 45.105 234.912 45.285L233.229 50.604C233.157 50.868 232.998 51 232.752 51H231.042L228.117 41.766H229.89C230.052 41.766 230.19 41.805 230.304 41.883C230.418 41.961 230.493 42.06 230.529 42.18L231.852 47.112C231.918 47.382 231.975 47.646 232.023 47.904C232.077 48.162 232.122 48.42 232.158 48.678C232.224 48.42 232.293 48.162 232.365 47.904C232.443 47.646 232.524 47.382 232.608 47.112L234.138 42.162C234.174 42.042 234.243 41.943 234.345 41.865C234.453 41.787 234.582 41.748 234.732 41.748H235.713C235.869 41.748 236.001 41.787 236.109 41.865C236.223 41.943 236.298 42.042 236.334 42.162L237.819 47.112C237.897 47.382 237.969 47.649 238.035 47.913C238.107 48.171 238.176 48.429 238.242 48.687C238.32 48.177 238.431 47.652 238.575 47.112L239.934 42.18C239.976 42.06 240.051 41.961 240.159 41.883C240.267 41.805 240.396 41.766 240.546 41.766H242.238ZM245.806 41.766V51H243.574V41.766H245.806ZM246.112 39.075C246.112 39.267 246.073 39.447 245.995 39.615C245.917 39.783 245.812 39.93 245.68 40.056C245.554 40.182 245.404 40.284 245.23 40.362C245.056 40.434 244.87 40.47 244.672 40.47C244.48 40.47 244.297 40.434 244.123 40.362C243.955 40.284 243.808 40.182 243.682 40.056C243.556 39.93 243.454 39.783 243.376 39.615C243.304 39.447 243.268 39.267 243.268 39.075C243.268 38.877 243.304 38.691 243.376 38.517C243.454 38.343 243.556 38.193 243.682 38.067C243.808 37.941 243.955 37.842 244.123 37.77C244.297 37.692 244.48 37.653 244.672 37.653C244.87 37.653 245.056 37.692 245.23 37.77C245.404 37.842 245.554 37.941 245.68 38.067C245.812 38.193 245.917 38.343 245.995 38.517C246.073 38.691 246.112 38.877 246.112 39.075ZM253.707 43.566C253.647 43.662 253.584 43.731 253.518 43.773C253.452 43.809 253.368 43.827 253.266 43.827C253.158 43.827 253.041 43.797 252.915 43.737C252.795 43.677 252.654 43.611 252.492 43.539C252.33 43.461 252.144 43.392 251.934 43.332C251.73 43.272 251.487 43.242 251.205 43.242C250.767 43.242 250.422 43.335 250.17 43.521C249.924 43.707 249.801 43.95 249.801 44.25C249.801 44.448 249.864 44.616 249.99 44.754C250.122 44.886 250.293 45.003 250.503 45.105C250.719 45.207 250.962 45.3 251.232 45.384C251.502 45.462 251.775 45.549 252.051 45.645C252.333 45.741 252.609 45.852 252.879 45.978C253.149 46.098 253.389 46.254 253.599 46.446C253.815 46.632 253.986 46.857 254.112 47.121C254.244 47.385 254.31 47.703 254.31 48.075C254.31 48.519 254.229 48.93 254.067 49.308C253.911 49.68 253.677 50.004 253.365 50.28C253.053 50.55 252.666 50.763 252.204 50.919C251.748 51.069 251.22 51.144 250.62 51.144C250.302 51.144 249.99 51.114 249.684 51.054C249.384 51 249.093 50.922 248.811 50.82C248.535 50.718 248.277 50.598 248.037 50.46C247.803 50.322 247.596 50.172 247.416 50.01L247.929 49.164C247.995 49.062 248.073 48.984 248.163 48.93C248.253 48.876 248.367 48.849 248.505 48.849C248.643 48.849 248.772 48.888 248.892 48.966C249.018 49.044 249.162 49.128 249.324 49.218C249.486 49.308 249.675 49.392 249.891 49.47C250.113 49.548 250.392 49.587 250.728 49.587C250.992 49.587 251.217 49.557 251.403 49.497C251.595 49.431 251.751 49.347 251.871 49.245C251.997 49.143 252.087 49.026 252.141 48.894C252.201 48.756 252.231 48.615 252.231 48.471C252.231 48.255 252.165 48.078 252.033 47.94C251.907 47.802 251.736 47.682 251.52 47.58C251.31 47.478 251.067 47.388 250.791 47.31C250.521 47.226 250.242 47.136 249.954 47.04C249.672 46.944 249.393 46.833 249.117 46.707C248.847 46.575 248.604 46.41 248.388 46.212C248.178 46.014 248.007 45.771 247.875 45.483C247.749 45.195 247.686 44.847 247.686 44.439C247.686 44.061 247.761 43.701 247.911 43.359C248.061 43.017 248.28 42.72 248.568 42.468C248.862 42.21 249.225 42.006 249.657 41.856C250.095 41.7 250.599 41.622 251.169 41.622C251.805 41.622 252.384 41.727 252.906 41.937C253.428 42.147 253.863 42.423 254.211 42.765L253.707 43.566ZM258.206 42.756C258.566 42.42 258.962 42.147 259.394 41.937C259.826 41.727 260.333 41.622 260.915 41.622C261.419 41.622 261.866 41.709 262.256 41.883C262.646 42.051 262.97 42.291 263.228 42.603C263.492 42.909 263.69 43.278 263.822 43.71C263.96 44.136 264.029 44.607 264.029 45.123V51H261.806V45.123C261.806 44.559 261.677 44.124 261.419 43.818C261.161 43.506 260.768 43.35 260.24 43.35C259.856 43.35 259.496 43.437 259.16 43.611C258.824 43.785 258.506 44.022 258.206 44.322V51H255.983V37.626H258.206V42.756ZM272.092 45.321C272.092 45.033 272.05 44.763 271.966 44.511C271.888 44.253 271.768 44.028 271.606 43.836C271.444 43.644 271.237 43.494 270.985 43.386C270.739 43.272 270.451 43.215 270.121 43.215C269.479 43.215 268.972 43.398 268.6 43.764C268.234 44.13 268 44.649 267.898 45.321H272.092ZM267.853 46.662C267.889 47.136 267.973 47.547 268.105 47.895C268.237 48.237 268.411 48.522 268.627 48.75C268.843 48.972 269.098 49.14 269.392 49.254C269.692 49.362 270.022 49.416 270.382 49.416C270.742 49.416 271.051 49.374 271.309 49.29C271.573 49.206 271.801 49.113 271.993 49.011C272.191 48.909 272.362 48.816 272.506 48.732C272.656 48.648 272.8 48.606 272.938 48.606C273.124 48.606 273.262 48.675 273.352 48.813L273.991 49.623C273.745 49.911 273.469 50.154 273.163 50.352C272.857 50.544 272.536 50.7 272.2 50.82C271.87 50.934 271.531 51.015 271.183 51.063C270.841 51.111 270.508 51.135 270.184 51.135C269.542 51.135 268.945 51.03 268.393 50.82C267.841 50.604 267.361 50.289 266.953 49.875C266.545 49.455 266.224 48.939 265.99 48.327C265.756 47.709 265.639 46.995 265.639 46.185C265.639 45.555 265.741 44.964 265.945 44.412C266.149 43.854 266.44 43.371 266.818 42.963C267.202 42.549 267.667 42.222 268.213 41.982C268.765 41.742 269.386 41.622 270.076 41.622C270.658 41.622 271.195 41.715 271.687 41.901C272.179 42.087 272.602 42.36 272.956 42.72C273.31 43.074 273.586 43.512 273.784 44.034C273.988 44.55 274.09 45.141 274.09 45.807C274.09 46.143 274.054 46.371 273.982 46.491C273.91 46.605 273.772 46.662 273.568 46.662H267.853ZM281.392 43.566C281.332 43.662 281.269 43.731 281.203 43.773C281.137 43.809 281.053 43.827 280.951 43.827C280.843 43.827 280.726 43.797 280.6 43.737C280.48 43.677 280.339 43.611 280.177 43.539C280.015 43.461 279.829 43.392 279.619 43.332C279.415 43.272 279.172 43.242 278.89 43.242C278.452 43.242 278.107 43.335 277.855 43.521C277.609 43.707 277.486 43.95 277.486 44.25C277.486 44.448 277.549 44.616 277.675 44.754C277.807 44.886 277.978 45.003 278.188 45.105C278.404 45.207 278.647 45.3 278.917 45.384C279.187 45.462 279.46 45.549 279.736 45.645C280.018 45.741 280.294 45.852 280.564 45.978C280.834 46.098 281.074 46.254 281.284 46.446C281.5 46.632 281.671 46.857 281.797 47.121C281.929 47.385 281.995 47.703 281.995 48.075C281.995 48.519 281.914 48.93 281.752 49.308C281.596 49.68 281.362 50.004 281.05 50.28C280.738 50.55 280.351 50.763 279.889 50.919C279.433 51.069 278.905 51.144 278.305 51.144C277.987 51.144 277.675 51.114 277.369 51.054C277.069 51 276.778 50.922 276.496 50.82C276.22 50.718 275.962 50.598 275.722 50.46C275.488 50.322 275.281 50.172 275.101 50.01L275.614 49.164C275.68 49.062 275.758 48.984 275.848 48.93C275.938 48.876 276.052 48.849 276.19 48.849C276.328 48.849 276.457 48.888 276.577 48.966C276.703 49.044 276.847 49.128 277.009 49.218C277.171 49.308 277.36 49.392 277.576 49.47C277.798 49.548 278.077 49.587 278.413 49.587C278.677 49.587 278.902 49.557 279.088 49.497C279.28 49.431 279.436 49.347 279.556 49.245C279.682 49.143 279.772 49.026 279.826 48.894C279.886 48.756 279.916 48.615 279.916 48.471C279.916 48.255 279.85 48.078 279.718 47.94C279.592 47.802 279.421 47.682 279.205 47.58C278.995 47.478 278.752 47.388 278.476 47.31C278.206 47.226 277.927 47.136 277.639 47.04C277.357 46.944 277.078 46.833 276.802 46.707C276.532 46.575 276.289 46.41 276.073 46.212C275.863 46.014 275.692 45.771 275.56 45.483C275.434 45.195 275.371 44.847 275.371 44.439C275.371 44.061 275.446 43.701 275.596 43.359C275.746 43.017 275.965 42.72 276.253 42.468C276.547 42.21 276.91 42.006 277.342 41.856C277.78 41.7 278.284 41.622 278.854 41.622C279.49 41.622 280.069 41.727 280.591 41.937C281.113 42.147 281.548 42.423 281.896 42.765L281.392 43.566ZM288.693 51V43.44L287.892 43.314C287.718 43.278 287.577 43.218 287.469 43.134C287.367 43.044 287.316 42.918 287.316 42.756V41.847H288.693V41.163C288.693 40.635 288.771 40.161 288.927 39.741C289.089 39.321 289.317 38.964 289.611 38.67C289.911 38.376 290.274 38.151 290.7 37.995C291.126 37.839 291.606 37.761 292.14 37.761C292.566 37.761 292.962 37.818 293.328 37.932L293.283 39.048C293.277 39.132 293.253 39.201 293.211 39.255C293.169 39.303 293.112 39.342 293.04 39.372C292.974 39.396 292.896 39.414 292.806 39.426C292.716 39.432 292.62 39.435 292.518 39.435C292.254 39.435 292.017 39.465 291.807 39.525C291.603 39.579 291.429 39.678 291.285 39.822C291.141 39.96 291.03 40.146 290.952 40.38C290.88 40.608 290.844 40.893 290.844 41.235V41.847H293.247V43.431H290.916V51H288.693ZM296.593 43.368C296.881 42.816 297.223 42.384 297.619 42.072C298.015 41.754 298.483 41.595 299.023 41.595C299.449 41.595 299.791 41.688 300.049 41.874L299.905 43.539C299.875 43.647 299.83 43.725 299.77 43.773C299.716 43.815 299.641 43.836 299.545 43.836C299.455 43.836 299.32 43.821 299.14 43.791C298.966 43.761 298.795 43.746 298.627 43.746C298.381 43.746 298.162 43.782 297.97 43.854C297.778 43.926 297.604 44.031 297.448 44.169C297.298 44.301 297.163 44.463 297.043 44.655C296.929 44.847 296.821 45.066 296.719 45.312V51H294.496V41.766H295.801C296.029 41.766 296.188 41.808 296.278 41.892C296.368 41.97 296.428 42.114 296.458 42.324L296.593 43.368ZM305.034 41.622C305.718 41.622 306.339 41.733 306.897 41.955C307.461 42.177 307.941 42.492 308.337 42.9C308.739 43.308 309.048 43.806 309.264 44.394C309.48 44.982 309.588 45.639 309.588 46.365C309.588 47.097 309.48 47.757 309.264 48.345C309.048 48.933 308.739 49.434 308.337 49.848C307.941 50.262 307.461 50.58 306.897 50.802C306.339 51.024 305.718 51.135 305.034 51.135C304.344 51.135 303.717 51.024 303.153 50.802C302.589 50.58 302.106 50.262 301.704 49.848C301.308 49.434 300.999 48.933 300.777 48.345C300.561 47.757 300.453 47.097 300.453 46.365C300.453 45.639 300.561 44.982 300.777 44.394C300.999 43.806 301.308 43.308 301.704 42.9C302.106 42.492 302.589 42.177 303.153 41.955C303.717 41.733 304.344 41.622 305.034 41.622ZM305.034 49.425C305.802 49.425 306.369 49.167 306.735 48.651C307.107 48.135 307.293 47.379 307.293 46.383C307.293 45.387 307.107 44.628 306.735 44.106C306.369 43.584 305.802 43.323 305.034 43.323C304.254 43.323 303.675 43.587 303.297 44.115C302.925 44.637 302.739 45.393 302.739 46.383C302.739 47.373 302.925 48.129 303.297 48.651C303.675 49.167 304.254 49.425 305.034 49.425ZM311.284 51V41.766H312.643C312.931 41.766 313.12 41.901 313.21 42.171L313.354 42.855C313.516 42.675 313.684 42.51 313.858 42.36C314.038 42.21 314.227 42.081 314.425 41.973C314.629 41.865 314.845 41.781 315.073 41.721C315.307 41.655 315.562 41.622 315.838 41.622C316.42 41.622 316.897 41.781 317.269 42.099C317.647 42.411 317.929 42.828 318.115 43.35C318.259 43.044 318.439 42.783 318.655 42.567C318.871 42.345 319.108 42.165 319.366 42.027C319.624 41.889 319.897 41.787 320.185 41.721C320.479 41.655 320.773 41.622 321.067 41.622C321.577 41.622 322.03 41.7 322.426 41.856C322.822 42.012 323.155 42.24 323.425 42.54C323.695 42.84 323.899 43.206 324.037 43.638C324.181 44.07 324.253 44.565 324.253 45.123V51H322.03V45.123C322.03 44.535 321.901 44.094 321.643 43.8C321.385 43.5 321.007 43.35 320.509 43.35C320.281 43.35 320.068 43.389 319.87 43.467C319.678 43.545 319.507 43.659 319.357 43.809C319.213 43.953 319.099 44.136 319.015 44.358C318.931 44.58 318.889 44.835 318.889 45.123V51H316.657V45.123C316.657 44.505 316.531 44.055 316.279 43.773C316.033 43.491 315.67 43.35 315.19 43.35C314.866 43.35 314.563 43.431 314.281 43.593C314.005 43.749 313.747 43.965 313.507 44.241V51H311.284ZM342.65 44.493C342.65 45.447 342.491 46.323 342.173 47.121C341.855 47.919 341.408 48.606 340.832 49.182C340.256 49.758 339.563 50.205 338.753 50.523C337.943 50.841 337.043 51 336.053 51H331.094V37.986H336.053C337.043 37.986 337.943 38.148 338.753 38.472C339.563 38.79 340.256 39.237 340.832 39.813C341.408 40.383 341.855 41.067 342.173 41.865C342.491 42.663 342.65 43.539 342.65 44.493ZM340.166 44.493C340.166 43.779 340.07 43.14 339.878 42.576C339.692 42.006 339.419 41.526 339.059 41.136C338.705 40.74 338.273 40.437 337.763 40.227C337.259 40.017 336.689 39.912 336.053 39.912H333.524V49.074H336.053C336.689 49.074 337.259 48.969 337.763 48.759C338.273 48.549 338.705 48.249 339.059 47.859C339.419 47.463 339.692 46.983 339.878 46.419C340.07 45.849 340.166 45.207 340.166 44.493ZM348.399 41.622C349.083 41.622 349.704 41.733 350.262 41.955C350.826 42.177 351.306 42.492 351.702 42.9C352.104 43.308 352.413 43.806 352.629 44.394C352.845 44.982 352.953 45.639 352.953 46.365C352.953 47.097 352.845 47.757 352.629 48.345C352.413 48.933 352.104 49.434 351.702 49.848C351.306 50.262 350.826 50.58 350.262 50.802C349.704 51.024 349.083 51.135 348.399 51.135C347.709 51.135 347.082 51.024 346.518 50.802C345.954 50.58 345.471 50.262 345.069 49.848C344.673 49.434 344.364 48.933 344.142 48.345C343.926 47.757 343.818 47.097 343.818 46.365C343.818 45.639 343.926 44.982 344.142 44.394C344.364 43.806 344.673 43.308 345.069 42.9C345.471 42.492 345.954 42.177 346.518 41.955C347.082 41.733 347.709 41.622 348.399 41.622ZM348.399 49.425C349.167 49.425 349.734 49.167 350.1 48.651C350.472 48.135 350.658 47.379 350.658 46.383C350.658 45.387 350.472 44.628 350.1 44.106C349.734 43.584 349.167 43.323 348.399 43.323C347.619 43.323 347.04 43.587 346.662 44.115C346.29 44.637 346.104 45.393 346.104 46.383C346.104 47.373 346.29 48.129 346.662 48.651C347.04 49.167 347.619 49.425 348.399 49.425ZM361.666 40.353C361.594 40.479 361.516 40.572 361.432 40.632C361.354 40.686 361.255 40.713 361.135 40.713C361.009 40.713 360.871 40.668 360.721 40.578C360.577 40.482 360.403 40.377 360.199 40.263C359.995 40.149 359.755 40.047 359.479 39.957C359.209 39.861 358.888 39.813 358.516 39.813C358.18 39.813 357.886 39.855 357.634 39.939C357.382 40.017 357.169 40.128 356.995 40.272C356.827 40.416 356.701 40.59 356.617 40.794C356.533 40.992 356.491 41.211 356.491 41.451C356.491 41.757 356.575 42.012 356.743 42.216C356.917 42.42 357.145 42.594 357.427 42.738C357.709 42.882 358.03 43.011 358.39 43.125C358.75 43.239 359.119 43.362 359.497 43.494C359.875 43.62 360.244 43.77 360.604 43.944C360.964 44.112 361.285 44.328 361.567 44.592C361.849 44.85 362.074 45.168 362.242 45.546C362.416 45.924 362.503 46.383 362.503 46.923C362.503 47.511 362.401 48.063 362.197 48.579C361.999 49.089 361.705 49.536 361.315 49.92C360.931 50.298 360.46 50.598 359.902 50.82C359.344 51.036 358.705 51.144 357.985 51.144C357.571 51.144 357.163 51.102 356.761 51.018C356.359 50.94 355.972 50.826 355.6 50.676C355.234 50.526 354.889 50.346 354.565 50.136C354.241 49.926 353.953 49.692 353.701 49.434L354.412 48.273C354.472 48.189 354.55 48.12 354.646 48.066C354.742 48.006 354.844 47.976 354.952 47.976C355.102 47.976 355.264 48.039 355.438 48.165C355.612 48.285 355.819 48.42 356.059 48.57C356.299 48.72 356.578 48.858 356.896 48.984C357.22 49.104 357.607 49.164 358.057 49.164C358.747 49.164 359.281 49.002 359.659 48.678C360.037 48.348 360.226 47.877 360.226 47.265C360.226 46.923 360.139 46.644 359.965 46.428C359.797 46.212 359.572 46.032 359.29 45.888C359.008 45.738 358.687 45.612 358.327 45.51C357.967 45.408 357.601 45.297 357.229 45.177C356.857 45.057 356.491 44.913 356.131 44.745C355.771 44.577 355.45 44.358 355.168 44.088C354.886 43.818 354.658 43.482 354.484 43.08C354.316 42.672 354.232 42.171 354.232 41.577C354.232 41.103 354.325 40.641 354.511 40.191C354.703 39.741 354.979 39.342 355.339 38.994C355.699 38.646 356.143 38.367 356.671 38.157C357.199 37.947 357.805 37.842 358.489 37.842C359.257 37.842 359.965 37.962 360.613 38.202C361.261 38.442 361.813 38.778 362.269 39.21L361.666 40.353ZM370.178 45.321C370.178 45.033 370.136 44.763 370.052 44.511C369.974 44.253 369.854 44.028 369.692 43.836C369.53 43.644 369.323 43.494 369.071 43.386C368.825 43.272 368.537 43.215 368.207 43.215C367.565 43.215 367.058 43.398 366.686 43.764C366.32 44.13 366.086 44.649 365.984 45.321H370.178ZM365.939 46.662C365.975 47.136 366.059 47.547 366.191 47.895C366.323 48.237 366.497 48.522 366.713 48.75C366.929 48.972 367.184 49.14 367.478 49.254C367.778 49.362 368.108 49.416 368.468 49.416C368.828 49.416 369.137 49.374 369.395 49.29C369.659 49.206 369.887 49.113 370.079 49.011C370.277 48.909 370.448 48.816 370.592 48.732C370.742 48.648 370.886 48.606 371.024 48.606C371.21 48.606 371.348 48.675 371.438 48.813L372.077 49.623C371.831 49.911 371.555 50.154 371.249 50.352C370.943 50.544 370.622 50.7 370.286 50.82C369.956 50.934 369.617 51.015 369.269 51.063C368.927 51.111 368.594 51.135 368.27 51.135C367.628 51.135 367.031 51.03 366.479 50.82C365.927 50.604 365.447 50.289 365.039 49.875C364.631 49.455 364.31 48.939 364.076 48.327C363.842 47.709 363.725 46.995 363.725 46.185C363.725 45.555 363.827 44.964 364.031 44.412C364.235 43.854 364.526 43.371 364.904 42.963C365.288 42.549 365.753 42.222 366.299 41.982C366.851 41.742 367.472 41.622 368.162 41.622C368.744 41.622 369.281 41.715 369.773 41.901C370.265 42.087 370.688 42.36 371.042 42.72C371.396 43.074 371.672 43.512 371.87 44.034C372.074 44.55 372.176 45.141 372.176 45.807C372.176 46.143 372.14 46.371 372.068 46.491C371.996 46.605 371.858 46.662 371.654 46.662H365.939ZM376.094 37.626V51H373.871V37.626H376.094ZM384.258 45.321C384.258 45.033 384.216 44.763 384.132 44.511C384.054 44.253 383.934 44.028 383.772 43.836C383.61 43.644 383.403 43.494 383.151 43.386C382.905 43.272 382.617 43.215 382.287 43.215C381.645 43.215 381.138 43.398 380.766 43.764C380.4 44.13 380.166 44.649 380.064 45.321H384.258ZM380.019 46.662C380.055 47.136 380.139 47.547 380.271 47.895C380.403 48.237 380.577 48.522 380.793 48.75C381.009 48.972 381.264 49.14 381.558 49.254C381.858 49.362 382.188 49.416 382.548 49.416C382.908 49.416 383.217 49.374 383.475 49.29C383.739 49.206 383.967 49.113 384.159 49.011C384.357 48.909 384.528 48.816 384.672 48.732C384.822 48.648 384.966 48.606 385.104 48.606C385.29 48.606 385.428 48.675 385.518 48.813L386.157 49.623C385.911 49.911 385.635 50.154 385.329 50.352C385.023 50.544 384.702 50.7 384.366 50.82C384.036 50.934 383.697 51.015 383.349 51.063C383.007 51.111 382.674 51.135 382.35 51.135C381.708 51.135 381.111 51.03 380.559 50.82C380.007 50.604 379.527 50.289 379.119 49.875C378.711 49.455 378.39 48.939 378.156 48.327C377.922 47.709 377.805 46.995 377.805 46.185C377.805 45.555 377.907 44.964 378.111 44.412C378.315 43.854 378.606 43.371 378.984 42.963C379.368 42.549 379.833 42.222 380.379 41.982C380.931 41.742 381.552 41.622 382.242 41.622C382.824 41.622 383.361 41.715 383.853 41.901C384.345 42.087 384.768 42.36 385.122 42.72C385.476 43.074 385.752 43.512 385.95 44.034C386.154 44.55 386.256 45.141 386.256 45.807C386.256 46.143 386.22 46.371 386.148 46.491C386.076 46.605 385.938 46.662 385.734 46.662H380.019ZM394.539 43.719C394.473 43.803 394.407 43.869 394.341 43.917C394.281 43.965 394.191 43.989 394.071 43.989C393.957 43.989 393.846 43.956 393.738 43.89C393.63 43.818 393.501 43.74 393.351 43.656C393.201 43.566 393.021 43.488 392.811 43.422C392.607 43.35 392.352 43.314 392.046 43.314C391.656 43.314 391.314 43.386 391.02 43.53C390.726 43.668 390.48 43.869 390.282 44.133C390.09 44.397 389.946 44.718 389.85 45.096C389.754 45.468 389.706 45.891 389.706 46.365C389.706 46.857 389.757 47.295 389.859 47.679C389.967 48.063 390.12 48.387 390.318 48.651C390.516 48.909 390.756 49.107 391.038 49.245C391.32 49.377 391.638 49.443 391.992 49.443C392.346 49.443 392.631 49.401 392.847 49.317C393.069 49.227 393.255 49.131 393.405 49.029C393.555 48.921 393.684 48.825 393.792 48.741C393.906 48.651 394.032 48.606 394.17 48.606C394.35 48.606 394.485 48.675 394.575 48.813L395.214 49.623C394.968 49.911 394.701 50.154 394.413 50.352C394.125 50.544 393.825 50.7 393.513 50.82C393.207 50.934 392.889 51.015 392.559 51.063C392.235 51.111 391.911 51.135 391.587 51.135C391.017 51.135 390.48 51.03 389.976 50.82C389.472 50.604 389.031 50.292 388.653 49.884C388.275 49.476 387.975 48.978 387.753 48.39C387.537 47.796 387.429 47.121 387.429 46.365C387.429 45.687 387.525 45.06 387.717 44.484C387.915 43.902 388.203 43.401 388.581 42.981C388.959 42.555 389.427 42.222 389.985 41.982C390.543 41.742 391.185 41.622 391.911 41.622C392.601 41.622 393.204 41.733 393.72 41.955C394.242 42.177 394.71 42.495 395.124 42.909L394.539 43.719ZM399.686 51.144C398.882 51.144 398.264 50.919 397.832 50.469C397.406 50.013 397.193 49.386 397.193 48.588V43.431H396.248C396.128 43.431 396.026 43.392 395.942 43.314C395.858 43.236 395.816 43.119 395.816 42.963V42.081L397.301 41.838L397.769 39.318C397.799 39.198 397.856 39.105 397.94 39.039C398.024 38.973 398.132 38.94 398.264 38.94H399.416V41.847H401.882V43.431H399.416V48.435C399.416 48.723 399.485 48.948 399.623 49.11C399.767 49.272 399.962 49.353 400.208 49.353C400.346 49.353 400.46 49.338 400.55 49.308C400.646 49.272 400.727 49.236 400.793 49.2C400.865 49.164 400.928 49.131 400.982 49.101C401.036 49.065 401.09 49.047 401.144 49.047C401.21 49.047 401.264 49.065 401.306 49.101C401.348 49.131 401.393 49.179 401.441 49.245L402.107 50.325C401.783 50.595 401.411 50.799 400.991 50.937C400.571 51.075 400.136 51.144 399.686 51.144ZM413.271 49.047C413.739 49.047 414.156 48.969 414.522 48.813C414.894 48.657 415.206 48.438 415.458 48.156C415.71 47.874 415.902 47.532 416.034 47.13C416.172 46.728 416.241 46.278 416.241 45.78V37.986H418.662V45.78C418.662 46.554 418.536 47.271 418.284 47.931C418.038 48.585 417.681 49.152 417.213 49.632C416.751 50.106 416.187 50.478 415.521 50.748C414.855 51.012 414.105 51.144 413.271 51.144C412.431 51.144 411.678 51.012 411.012 50.748C410.346 50.478 409.779 50.106 409.311 49.632C408.849 49.152 408.492 48.585 408.24 47.931C407.994 47.271 407.871 46.554 407.871 45.78V37.986H410.292V45.771C410.292 46.269 410.358 46.719 410.49 47.121C410.628 47.523 410.823 47.868 411.075 48.156C411.333 48.438 411.645 48.657 412.011 48.813C412.383 48.969 412.803 49.047 413.271 49.047ZM431.967 51H429.555C429.387 51 429.252 50.958 429.15 50.874C429.054 50.79 428.976 50.694 428.916 50.586L425.901 45.591C425.853 45.741 425.796 45.87 425.73 45.978L422.841 50.586C422.769 50.688 422.685 50.784 422.589 50.874C422.499 50.958 422.379 51 422.229 51H419.97L424.29 44.304L420.141 37.986H422.553C422.721 37.986 422.841 38.01 422.913 38.058C422.991 38.1 423.063 38.172 423.129 38.274L426.09 43.044C426.15 42.894 426.222 42.744 426.306 42.594L429.024 38.319C429.09 38.205 429.162 38.121 429.24 38.067C429.318 38.013 429.417 37.986 429.537 37.986H431.85L427.665 44.205L431.967 51ZM446.391 39.975H442.467V51H440.046V39.975H436.122V37.986H446.391V39.975ZM451.529 45.321C451.529 45.033 451.487 44.763 451.403 44.511C451.325 44.253 451.205 44.028 451.043 43.836C450.881 43.644 450.674 43.494 450.422 43.386C450.176 43.272 449.888 43.215 449.558 43.215C448.916 43.215 448.409 43.398 448.037 43.764C447.671 44.13 447.437 44.649 447.335 45.321H451.529ZM447.29 46.662C447.326 47.136 447.41 47.547 447.542 47.895C447.674 48.237 447.848 48.522 448.064 48.75C448.28 48.972 448.535 49.14 448.829 49.254C449.129 49.362 449.459 49.416 449.819 49.416C450.179 49.416 450.488 49.374 450.746 49.29C451.01 49.206 451.238 49.113 451.43 49.011C451.628 48.909 451.799 48.816 451.943 48.732C452.093 48.648 452.237 48.606 452.375 48.606C452.561 48.606 452.699 48.675 452.789 48.813L453.428 49.623C453.182 49.911 452.906 50.154 452.6 50.352C452.294 50.544 451.973 50.7 451.637 50.82C451.307 50.934 450.968 51.015 450.62 51.063C450.278 51.111 449.945 51.135 449.621 51.135C448.979 51.135 448.382 51.03 447.83 50.82C447.278 50.604 446.798 50.289 446.39 49.875C445.982 49.455 445.661 48.939 445.427 48.327C445.193 47.709 445.076 46.995 445.076 46.185C445.076 45.555 445.178 44.964 445.382 44.412C445.586 43.854 445.877 43.371 446.255 42.963C446.639 42.549 447.104 42.222 447.65 41.982C448.202 41.742 448.823 41.622 449.513 41.622C450.095 41.622 450.632 41.715 451.124 41.901C451.616 42.087 452.039 42.36 452.393 42.72C452.747 43.074 453.023 43.512 453.221 44.034C453.425 44.55 453.527 45.141 453.527 45.807C453.527 46.143 453.491 46.371 453.419 46.491C453.347 46.605 453.209 46.662 453.005 46.662H447.29ZM460.83 43.566C460.77 43.662 460.707 43.731 460.641 43.773C460.575 43.809 460.491 43.827 460.389 43.827C460.281 43.827 460.164 43.797 460.038 43.737C459.918 43.677 459.777 43.611 459.615 43.539C459.453 43.461 459.267 43.392 459.057 43.332C458.853 43.272 458.61 43.242 458.328 43.242C457.89 43.242 457.545 43.335 457.293 43.521C457.047 43.707 456.924 43.95 456.924 44.25C456.924 44.448 456.987 44.616 457.113 44.754C457.245 44.886 457.416 45.003 457.626 45.105C457.842 45.207 458.085 45.3 458.355 45.384C458.625 45.462 458.898 45.549 459.174 45.645C459.456 45.741 459.732 45.852 460.002 45.978C460.272 46.098 460.512 46.254 460.722 46.446C460.938 46.632 461.109 46.857 461.235 47.121C461.367 47.385 461.433 47.703 461.433 48.075C461.433 48.519 461.352 48.93 461.19 49.308C461.034 49.68 460.8 50.004 460.488 50.28C460.176 50.55 459.789 50.763 459.327 50.919C458.871 51.069 458.343 51.144 457.743 51.144C457.425 51.144 457.113 51.114 456.807 51.054C456.507 51 456.216 50.922 455.934 50.82C455.658 50.718 455.4 50.598 455.16 50.46C454.926 50.322 454.719 50.172 454.539 50.01L455.052 49.164C455.118 49.062 455.196 48.984 455.286 48.93C455.376 48.876 455.49 48.849 455.628 48.849C455.766 48.849 455.895 48.888 456.015 48.966C456.141 49.044 456.285 49.128 456.447 49.218C456.609 49.308 456.798 49.392 457.014 49.47C457.236 49.548 457.515 49.587 457.851 49.587C458.115 49.587 458.34 49.557 458.526 49.497C458.718 49.431 458.874 49.347 458.994 49.245C459.12 49.143 459.21 49.026 459.264 48.894C459.324 48.756 459.354 48.615 459.354 48.471C459.354 48.255 459.288 48.078 459.156 47.94C459.03 47.802 458.859 47.682 458.643 47.58C458.433 47.478 458.19 47.388 457.914 47.31C457.644 47.226 457.365 47.136 457.077 47.04C456.795 46.944 456.516 46.833 456.24 46.707C455.97 46.575 455.727 46.41 455.511 46.212C455.301 46.014 455.13 45.771 454.998 45.483C454.872 45.195 454.809 44.847 454.809 44.439C454.809 44.061 454.884 43.701 455.034 43.359C455.184 43.017 455.403 42.72 455.691 42.468C455.985 42.21 456.348 42.006 456.78 41.856C457.218 41.7 457.722 41.622 458.292 41.622C458.928 41.622 459.507 41.727 460.029 41.937C460.551 42.147 460.986 42.423 461.334 42.765L460.83 43.566ZM472.421 51H470.198V43.431H465.914V48.435C465.914 48.723 465.983 48.948 466.121 49.11C466.265 49.272 466.46 49.353 466.706 49.353C466.844 49.353 466.958 49.338 467.048 49.308C467.144 49.272 467.225 49.236 467.291 49.2C467.363 49.164 467.426 49.131 467.48 49.101C467.534 49.065 467.588 49.047 467.642 49.047C467.708 49.047 467.762 49.065 467.804 49.101C467.846 49.131 467.891 49.179 467.939 49.245L468.605 50.325C468.281 50.595 467.909 50.799 467.489 50.937C467.069 51.075 466.634 51.144 466.184 51.144C465.38 51.144 464.762 50.919 464.33 50.469C463.904 50.013 463.691 49.386 463.691 48.588V43.431H462.746C462.626 43.431 462.524 43.392 462.44 43.314C462.356 43.236 462.314 43.119 462.314 42.963V42.081L463.799 41.829L464.267 39.318C464.297 39.198 464.354 39.105 464.438 39.039C464.522 38.973 464.63 38.94 464.762 38.94H465.914V41.847H472.421V51ZM472.808 39.039C472.808 39.231 472.769 39.414 472.691 39.588C472.613 39.756 472.508 39.903 472.376 40.029C472.25 40.155 472.097 40.257 471.917 40.335C471.743 40.407 471.557 40.443 471.359 40.443C471.167 40.443 470.987 40.407 470.819 40.335C470.651 40.257 470.504 40.155 470.378 40.029C470.252 39.903 470.15 39.756 470.072 39.588C470 39.414 469.964 39.231 469.964 39.039C469.964 38.841 470 38.658 470.072 38.49C470.15 38.316 470.252 38.166 470.378 38.04C470.504 37.908 470.651 37.806 470.819 37.734C470.987 37.656 471.167 37.617 471.359 37.617C471.557 37.617 471.743 37.656 471.917 37.734C472.097 37.806 472.25 37.908 472.376 38.04C472.508 38.166 472.613 38.316 472.691 38.49C472.769 38.658 472.808 38.841 472.808 39.039ZM476.769 42.9C476.955 42.714 477.15 42.543 477.354 42.387C477.564 42.225 477.783 42.09 478.011 41.982C478.245 41.868 478.494 41.781 478.758 41.721C479.022 41.655 479.31 41.622 479.622 41.622C480.126 41.622 480.573 41.709 480.963 41.883C481.353 42.051 481.677 42.291 481.935 42.603C482.199 42.909 482.397 43.278 482.529 43.71C482.667 44.136 482.736 44.607 482.736 45.123V51H480.513V45.123C480.513 44.559 480.384 44.124 480.126 43.818C479.868 43.506 479.475 43.35 478.947 43.35C478.563 43.35 478.203 43.437 477.867 43.611C477.531 43.785 477.213 44.022 476.913 44.322V51H474.69V41.766H476.049C476.337 41.766 476.526 41.901 476.616 42.171L476.769 42.9ZM488.225 46.158C488.501 46.158 488.741 46.122 488.945 46.05C489.149 45.972 489.317 45.867 489.449 45.735C489.587 45.603 489.689 45.444 489.755 45.258C489.827 45.072 489.863 44.868 489.863 44.646C489.863 44.19 489.725 43.83 489.449 43.566C489.179 43.296 488.771 43.161 488.225 43.161C487.679 43.161 487.268 43.296 486.992 43.566C486.722 43.83 486.587 44.19 486.587 44.646C486.587 44.862 486.62 45.063 486.686 45.249C486.758 45.435 486.86 45.597 486.992 45.735C487.13 45.867 487.301 45.972 487.505 46.05C487.715 46.122 487.955 46.158 488.225 46.158ZM490.736 51.414C490.736 51.234 490.682 51.087 490.574 50.973C490.466 50.859 490.319 50.772 490.133 50.712C489.947 50.646 489.728 50.598 489.476 50.568C489.23 50.538 488.966 50.517 488.684 50.505C488.408 50.487 488.12 50.472 487.82 50.46C487.526 50.448 487.238 50.424 486.956 50.388C486.71 50.526 486.509 50.688 486.353 50.874C486.203 51.06 486.128 51.276 486.128 51.522C486.128 51.684 486.167 51.834 486.245 51.972C486.329 52.116 486.458 52.239 486.632 52.341C486.812 52.443 487.043 52.521 487.325 52.575C487.607 52.635 487.952 52.665 488.36 52.665C488.774 52.665 489.131 52.632 489.431 52.566C489.731 52.506 489.977 52.419 490.169 52.305C490.367 52.197 490.511 52.065 490.601 51.909C490.691 51.759 490.736 51.594 490.736 51.414ZM492.95 42.081V42.909C492.95 43.173 492.791 43.335 492.473 43.395L491.645 43.548C491.771 43.866 491.834 44.214 491.834 44.592C491.834 45.048 491.741 45.462 491.555 45.834C491.375 46.2 491.123 46.512 490.799 46.77C490.475 47.028 490.091 47.229 489.647 47.373C489.209 47.511 488.735 47.58 488.225 47.58C488.045 47.58 487.871 47.571 487.703 47.553C487.535 47.535 487.37 47.511 487.208 47.481C486.92 47.655 486.776 47.85 486.776 48.066C486.776 48.252 486.86 48.39 487.028 48.48C487.202 48.564 487.43 48.624 487.712 48.66C487.994 48.696 488.315 48.72 488.675 48.732C489.035 48.738 489.404 48.756 489.782 48.786C490.16 48.816 490.529 48.87 490.889 48.948C491.249 49.02 491.57 49.137 491.852 49.299C492.134 49.461 492.359 49.683 492.527 49.965C492.701 50.241 492.788 50.598 492.788 51.036C492.788 51.444 492.686 51.84 492.482 52.224C492.284 52.608 491.993 52.95 491.609 53.25C491.231 53.55 490.763 53.79 490.205 53.97C489.653 54.156 489.023 54.249 488.315 54.249C487.619 54.249 487.013 54.18 486.497 54.042C485.981 53.91 485.552 53.73 485.21 53.502C484.868 53.28 484.613 53.022 484.445 52.728C484.277 52.434 484.193 52.128 484.193 51.81C484.193 51.378 484.322 51.018 484.58 50.73C484.844 50.436 485.204 50.202 485.66 50.028C485.414 49.902 485.219 49.734 485.075 49.524C484.931 49.314 484.859 49.038 484.859 48.696C484.859 48.558 484.883 48.417 484.931 48.273C484.985 48.123 485.06 47.976 485.156 47.832C485.258 47.688 485.384 47.553 485.534 47.427C485.684 47.295 485.861 47.178 486.065 47.076C485.597 46.824 485.228 46.488 484.958 46.068C484.694 45.648 484.562 45.156 484.562 44.592C484.562 44.136 484.652 43.725 484.832 43.359C485.018 42.987 485.273 42.672 485.597 42.414C485.927 42.15 486.314 41.949 486.758 41.811C487.208 41.673 487.697 41.604 488.225 41.604C488.621 41.604 488.993 41.646 489.341 41.73C489.689 41.808 490.007 41.925 490.295 42.081H492.95ZM496.844 37.986V43.134C496.844 43.68 496.817 44.217 496.763 44.745C496.709 45.267 496.64 45.822 496.556 46.41H495.044C494.96 45.822 494.891 45.267 494.837 44.745C494.783 44.217 494.756 43.68 494.756 43.134V37.986H496.844ZM494.405 49.776C494.405 49.59 494.438 49.413 494.504 49.245C494.576 49.077 494.672 48.933 494.792 48.813C494.918 48.693 495.065 48.597 495.233 48.525C495.401 48.453 495.581 48.417 495.773 48.417C495.959 48.417 496.136 48.453 496.304 48.525C496.472 48.597 496.616 48.693 496.736 48.813C496.862 48.933 496.961 49.077 497.033 49.245C497.105 49.413 497.141 49.59 497.141 49.776C497.141 49.968 497.105 50.148 497.033 50.316C496.961 50.478 496.862 50.619 496.736 50.739C496.616 50.859 496.472 50.952 496.304 51.018C496.136 51.09 495.959 51.126 495.773 51.126C495.581 51.126 495.401 51.09 495.233 51.018C495.065 50.952 494.918 50.859 494.792 50.739C494.672 50.619 494.576 50.478 494.504 50.316C494.438 50.148 494.405 49.968 494.405 49.776Z" fill="#2ECC71"/>
<path d="M593.749 54.9483C554.967 43.729 519.757 70.3081 507 85H712.817C720.471 86 720.471 81.5 720.471 76.9862V43.9294C708.904 15.0798 681.065 31.9087 668.592 43.9294C659.803 52.2771 632.531 66.1676 593.749 54.9483Z" fill="#FFBE4D"/>
<path d="M127.251 29.0517C166.033 40.271 201.243 13.6919 214 -1H8.18333C-0.661682 -1 0.528992 4 0.528992 7.01378V40.0706C12.0956 68.9202 39.9347 52.0913 52.4084 40.0706C61.1967 31.7229 88.4688 17.8324 127.251 29.0517Z" fill="#FFBE4D"/>
<line x1="9.5" y1="10" x2="9.5" y2="33" stroke="white"/>
<line x1="9" y1="9.5" x2="40" y2="9.5" stroke="white"/>
<line x1="714.5" y1="78" x2="714.5" y2="55" stroke="#FDFFFE"/>
<line x1="715" y1="78.5" x2="684" y2="78.5" stroke="#FDFFFE"/>
</g>
<defs>
<linearGradient id="paint0_linear_0_1" x1="362" y1="-801" x2="362" y2="276" gradientUnits="userSpaceOnUse">
<stop stop-color="white"/>
<stop offset="1" stop-color="#F3F7F7"/>
</linearGradient>
<clipPath id="clip0_0_1">
<rect width="1440" height="1188" fill="white" transform="translate(-359 -857)"/>
</clipPath>
</defs>
</svg>
