<svg width="24" height="24" viewBox="0 0 24 24" fill="none" xmlns="http://www.w3.org/2000/svg">
<path d="M12 0C5.37839 0 0 5.37839 0 12C0 18.6216 5.37839 24 12 24C18.6216 24 24 18.6216 24 12C24 5.37839 18.6216 0 12 0ZM16.0772 22.3518C16.829 22.0048 17.6675 21.5132 18.5061 20.9638C18.6508 20.7615 18.7952 20.5301 18.911 20.3277C19.2001 20.1542 19.4894 20.0096 19.7785 19.8361C19.8941 19.5179 19.9808 19.2 20.0676 18.853C20.0097 18.7663 19.952 18.6795 19.8652 18.5928C20.7906 17.6674 21.6581 16.6555 22.4965 15.6433C21.4844 18.6795 19.1133 21.1665 16.0772 22.3517V22.3518ZM21.7445 15.0074C21.4843 14.776 21.1952 14.5737 20.9059 14.3423C20.5589 13.5037 20.1831 12.6073 19.7203 11.7399C19.7491 11.3929 19.7491 11.0747 19.7491 10.7277H20.2696C20.9636 12.0868 21.5709 13.4169 22.0046 14.6602C22.2937 14.5446 22.583 14.4288 22.8721 14.2844C22.8432 14.4867 22.7853 14.6893 22.7274 14.8916C22.4097 14.9207 22.0915 14.9784 21.7445 15.0074V15.0074ZM23.1325 12.0001V12.3759C22.959 12.0578 22.7567 11.7399 22.5541 11.4217C22.7565 11.4506 22.93 11.5085 23.1035 11.5373C23.1325 11.682 23.1325 11.8266 23.1325 12.0001L23.1325 12.0001ZM18.7084 6.88196C18.8819 7.0843 19.0554 7.2578 19.2288 7.46034C19.4023 7.46034 19.547 7.43149 19.7205 7.43149C19.6916 7.28685 19.6337 7.1424 19.6049 6.99775C19.8072 7.05565 19.9807 7.0845 20.1833 7.1424C20.4435 7.46054 20.7038 7.80753 20.964 8.15452C20.4724 8.09663 19.9809 8.00988 19.4893 7.95218C19.3158 7.95218 19.1423 7.92333 18.9688 7.92333C18.7665 8.09682 18.5639 8.27032 18.3616 8.41497C18.2748 8.21262 18.2169 8.01008 18.1302 7.80773C18.3037 7.4892 18.506 7.17105 18.7084 6.88195V6.88196ZM5.43589 20.9932C5.49379 20.9064 5.55149 20.8485 5.60939 20.7618C5.52264 20.4148 5.43589 20.0099 5.37799 19.5761C5.52264 19.3738 5.69613 19.1424 5.86963 18.911C5.00215 18.3617 4.10582 17.7544 3.23833 17.1472C2.94924 17.1472 2.65995 17.1183 2.37085 17.1183C2.22621 16.6846 2.08176 16.222 1.96596 15.7592C1.82132 15.7592 1.67687 15.7592 1.53222 15.7304C1.12733 14.5738 0.896134 13.3014 0.896134 12.0002C0.896134 8.67491 2.342 5.69633 4.65516 3.67237H4.88655C5.06005 3.47002 5.23354 3.26748 5.40704 3.06513C5.69613 2.83374 6.01428 2.63139 6.33242 2.4579C6.93966 2.31325 7.51804 2.1688 8.09623 2.02415C8.44322 1.73506 8.76137 1.50367 9.05046 1.27227C9.97584 1.01203 10.9589 0.867573 11.9999 0.867573C13.2432 0.867573 14.4288 1.06992 15.5277 1.44596C15.1807 1.47481 14.8337 1.50386 14.4867 1.56156C14.1977 1.96645 13.8216 2.48694 13.3302 3.12303C13.3302 3.38327 13.359 3.64351 13.359 3.90376C13.706 3.87491 14.053 3.84586 14.4 3.81701C14.5156 3.99051 14.6314 4.19285 14.7181 4.3954C15.0363 4.30865 15.3542 4.25075 15.6724 4.164C15.6435 3.93261 15.6145 3.70141 15.5856 3.47002C15.441 3.38327 15.3254 3.29652 15.1807 3.20977C15.4121 2.86278 15.6145 2.57369 15.7591 2.28439C15.9326 2.39999 16.1061 2.51579 16.3085 2.66024C16.135 2.80488 15.9615 2.92048 15.7591 3.06513C15.9038 3.23862 16.0773 3.44097 16.2217 3.64351C16.5399 3.55677 16.8289 3.47002 17.118 3.41212C17.2627 3.52772 17.3783 3.64351 17.5229 3.75911C17.0603 3.90376 16.5687 4.04821 16.0482 4.2217C16.0482 4.36635 16.0771 4.48195 16.0771 4.62659H14.4867C14.3712 4.48195 14.2265 4.3375 14.1109 4.19285C13.9663 4.25075 13.8218 4.30845 13.6772 4.3952C13.7928 4.59755 13.8795 4.80009 13.9953 5.00244C13.7062 5.26268 13.4169 5.49408 13.1278 5.78317C12.9543 5.81202 12.8097 5.81202 12.6362 5.84107C12.3471 6.04342 12.0868 6.27481 11.7976 6.47716L12.318 6.99765C12.2313 7.19999 12.1445 7.40254 12.0866 7.60488C11.6241 7.57603 11.1324 7.51813 10.6698 7.48928C10.9012 8.15442 11.1324 8.8484 11.3927 9.54239C12.0866 8.87726 12.7806 8.24117 13.4167 7.63393C13.5323 7.69183 13.677 7.77858 13.7926 7.83628C13.9949 7.66278 14.1684 7.48928 14.371 7.31579C14.7468 7.57603 15.1228 7.86513 15.4698 8.12537C15.5854 8.47236 15.6722 8.84821 15.788 9.1952C15.9903 8.90611 16.1638 8.61681 16.3373 8.32772C15.9903 7.86513 15.6433 7.43139 15.2963 6.99765C15.3542 6.9109 15.4119 6.853 15.4698 6.7953C15.9036 7.25789 16.3373 7.72068 16.7711 8.18327C16.8578 8.53026 16.9445 8.87726 17.0313 9.2531C17.3783 9.51334 17.7253 9.74474 18.0723 10.005C17.9855 9.51334 17.8988 9.05075 17.7832 8.55911C18.159 9.05075 18.5639 9.51334 18.9398 10.005C19.1712 9.65799 19.4023 9.311 19.6049 8.964C19.6337 9.311 19.6916 9.65799 19.7205 10.0338C19.6049 10.1494 19.5181 10.2652 19.4023 10.4097C18.7951 10.3518 18.159 10.3229 17.5227 10.2941C17.3204 10.1494 17.1469 9.97593 16.9443 9.83148C16.713 10.0338 16.5106 10.2652 16.2792 10.4676C15.7876 10.2941 15.2961 10.1494 14.8045 9.97593C14.8333 9.83129 14.8624 9.65779 14.8912 9.51334C14.7466 9.33985 14.5731 9.16635 14.4287 8.99285C13.8214 9.05075 13.243 9.0796 12.6358 9.1375C11.566 10.0917 10.4092 11.0748 9.31051 12.0581C9.33936 13.0412 9.36841 13.9954 9.42611 14.9496C9.9466 15.3834 10.4382 15.8171 10.9297 16.222C11.7683 16.2509 12.6067 16.2509 13.4454 16.2799C13.8503 16.5401 14.255 16.7715 14.631 17.0318C14.4575 17.1474 14.284 17.2632 14.0817 17.3788C14.4575 17.8414 14.8335 18.2751 15.1805 18.68C15.1226 19.0849 15.0649 19.4607 15.007 19.8366C14.8335 20.0101 14.66 20.1547 14.4866 20.3282C14.7756 21.3113 14.9203 22.0632 14.9491 22.5548C15.325 22.5548 15.7299 22.526 16.1057 22.4969C14.8624 22.9886 13.5033 23.2488 12.0574 23.2488C9.5421 23.1328 7.28665 22.3232 5.43579 20.9931L5.43589 20.9932Z" fill="#A4A6BE"/>
<path d="M11.451 5.66749C11.8559 5.66749 12.2606 5.66749 12.6655 5.69634C12.6944 5.46495 12.6944 5.2626 12.7234 5.03121C12.4632 4.85771 12.2318 4.65536 11.9715 4.48187C11.8559 4.22162 11.7401 3.99023 11.6245 3.75903C11.451 3.90368 11.2775 4.07718 11.0752 4.25067C11.3066 4.48207 11.5668 4.74231 11.8271 5.00256C11.7113 5.2049 11.5955 5.4361 11.451 5.66749L11.451 5.66749Z" fill="#A4A6BE"/>
<path d="M10.6985 5.98574L11.2478 5.4364C11.0455 5.17615 10.843 4.94476 10.6406 4.71356L10.1201 5.4943C10.2936 5.6676 10.4962 5.81225 10.6985 5.98574V5.98574Z" fill="#A4A6BE"/>
<path d="M15.2381 8.73242C15.1225 8.90592 15.0357 9.07941 14.9199 9.25291C15.1223 9.31081 15.2958 9.39756 15.4983 9.45526C15.4116 9.22406 15.3248 8.96381 15.2381 8.73242Z" fill="#A4A6BE"/>
<path d="M9.9464 2.11078C9.45476 2.19753 8.96332 2.28428 8.47168 2.39987C8.64518 2.68897 8.84752 3.03596 9.07892 3.38295C9.59941 3.09386 10.062 2.83361 10.5248 2.57337C10.3224 2.39987 10.1199 2.25542 9.9464 2.11078Z" fill="#A4A6BE"/>
</svg>
