<svg width="124" height="101" viewBox="0 0 124 101" fill="none" xmlns="http://www.w3.org/2000/svg">
<rect width="124" height="101" fill="#E5E5E5"/>
<g clip-path="url(#clip0_0_1)">
<rect width="1440" height="1327" transform="translate(-1017 -935)" fill="white"/>
<rect x="-1016" y="-879" width="1440" height="1214" fill="url(#paint0_linear_0_1)"/>
<g filter="url(#filter0_d_0_1)">
<rect x="-917" y="-616" width="1240" height="909" rx="20" fill="white"/>
</g>
<rect x="-291.5" y="-324.5" width="540" height="463" rx="4.5" fill="white" stroke="#E5E6ED"/>
<rect width="124" height="101" rx="5" fill="#343656"/>
<path d="M34.08 34.152C34.152 34.152 34.214 34.18 34.266 34.236L34.77 34.788C34.418 35.204 33.988 35.526 33.48 35.754C32.976 35.982 32.368 36.096 31.656 36.096C31.032 36.096 30.466 35.988 29.958 35.772C29.454 35.556 29.022 35.254 28.662 34.866C28.306 34.478 28.03 34.014 27.834 33.474C27.638 32.934 27.54 32.34 27.54 31.692C27.54 31.044 27.642 30.45 27.846 29.91C28.054 29.37 28.344 28.906 28.716 28.518C29.088 28.13 29.532 27.828 30.048 27.612C30.568 27.396 31.142 27.288 31.77 27.288C32.382 27.288 32.926 27.388 33.402 27.588C33.878 27.788 34.292 28.054 34.644 28.386L34.224 28.98C34.196 29.024 34.16 29.06 34.116 29.088C34.076 29.116 34.022 29.13 33.954 29.13C33.878 29.13 33.788 29.092 33.684 29.016C33.584 28.94 33.45 28.856 33.282 28.764C33.118 28.668 32.914 28.582 32.67 28.506C32.426 28.43 32.122 28.392 31.758 28.392C31.33 28.392 30.938 28.468 30.582 28.62C30.226 28.768 29.918 28.984 29.658 29.268C29.402 29.548 29.202 29.894 29.058 30.306C28.918 30.714 28.848 31.176 28.848 31.692C28.848 32.216 28.922 32.682 29.07 33.09C29.218 33.498 29.422 33.844 29.682 34.128C29.942 34.412 30.248 34.628 30.6 34.776C30.952 34.924 31.332 34.998 31.74 34.998C31.988 34.998 32.21 34.984 32.406 34.956C32.606 34.924 32.788 34.878 32.952 34.818C33.12 34.758 33.278 34.682 33.426 34.59C33.574 34.494 33.72 34.38 33.864 34.248C33.896 34.22 33.93 34.198 33.966 34.182C34.002 34.162 34.04 34.152 34.08 34.152ZM39.0902 33.294C38.6142 33.31 38.2102 33.348 37.8782 33.408C37.5462 33.464 37.2762 33.54 37.0682 33.636C36.8602 33.732 36.7102 33.846 36.6182 33.978C36.5262 34.106 36.4802 34.25 36.4802 34.41C36.4802 34.562 36.5042 34.694 36.5522 34.806C36.6042 34.914 36.6722 35.004 36.7562 35.076C36.8442 35.144 36.9462 35.194 37.0622 35.226C37.1782 35.258 37.3042 35.274 37.4402 35.274C37.6202 35.274 37.7842 35.256 37.9322 35.22C38.0842 35.184 38.2262 35.134 38.3582 35.07C38.4902 35.002 38.6162 34.92 38.7362 34.824C38.8562 34.728 38.9742 34.618 39.0902 34.494V33.294ZM35.6582 30.756C35.9982 30.432 36.3662 30.19 36.7622 30.03C37.1622 29.87 37.6002 29.79 38.0762 29.79C38.4242 29.79 38.7322 29.848 39.0002 29.964C39.2682 30.076 39.4942 30.234 39.6782 30.438C39.8622 30.642 40.0002 30.886 40.0922 31.17C40.1882 31.454 40.2362 31.768 40.2362 32.112V36H39.7142C39.5982 36 39.5102 35.982 39.4502 35.946C39.3902 35.906 39.3422 35.834 39.3062 35.73L39.1802 35.196C39.0242 35.34 38.8702 35.468 38.7182 35.58C38.5662 35.688 38.4062 35.782 38.2382 35.862C38.0742 35.938 37.8982 35.996 37.7102 36.036C37.5222 36.076 37.3142 36.096 37.0862 36.096C36.8462 36.096 36.6202 36.064 36.4082 36C36.2002 35.932 36.0182 35.83 35.8622 35.694C35.7062 35.558 35.5822 35.388 35.4902 35.184C35.4022 34.98 35.3582 34.742 35.3582 34.47C35.3582 34.23 35.4222 34 35.5502 33.78C35.6822 33.556 35.8942 33.356 36.1862 33.18C36.4822 33.004 36.8662 32.86 37.3382 32.748C37.8142 32.636 38.3982 32.572 39.0902 32.556V32.112C39.0902 31.652 38.9922 31.308 38.7962 31.08C38.6002 30.852 38.3122 30.738 37.9322 30.738C37.6762 30.738 37.4602 30.77 37.2842 30.834C37.1122 30.898 36.9622 30.97 36.8342 31.05C36.7102 31.126 36.6002 31.196 36.5042 31.26C36.4122 31.324 36.3162 31.356 36.2162 31.356C36.1362 31.356 36.0662 31.334 36.0062 31.29C35.9502 31.246 35.9042 31.194 35.8682 31.134L35.6582 30.756ZM41.8025 36V29.904H42.5045C42.6685 29.904 42.7705 29.982 42.8105 30.138L42.8945 30.72C43.1185 30.452 43.3665 30.234 43.6385 30.066C43.9145 29.894 44.2365 29.808 44.6045 29.808C45.0085 29.808 45.3365 29.92 45.5885 30.144C45.8405 30.364 46.0245 30.664 46.1405 31.044C46.2285 30.828 46.3425 30.642 46.4825 30.486C46.6225 30.33 46.7785 30.202 46.9505 30.102C47.1225 30.002 47.3045 29.928 47.4965 29.88C47.6925 29.832 47.8905 29.808 48.0905 29.808C48.4145 29.808 48.7025 29.86 48.9545 29.964C49.2105 30.064 49.4265 30.212 49.6025 30.408C49.7785 30.604 49.9125 30.846 50.0045 31.134C50.0965 31.422 50.1425 31.75 50.1425 32.118V36H48.9665V32.118C48.9665 31.662 48.8665 31.318 48.6665 31.086C48.4705 30.854 48.1825 30.738 47.8025 30.738C47.6345 30.738 47.4745 30.768 47.3225 30.828C47.1705 30.884 47.0365 30.97 46.9205 31.086C46.8085 31.202 46.7185 31.346 46.6505 31.518C46.5865 31.69 46.5545 31.89 46.5545 32.118V36H45.3785V32.118C45.3785 31.646 45.2845 31.298 45.0965 31.074C44.9085 30.85 44.6325 30.738 44.2685 30.738C44.0165 30.738 43.7825 30.804 43.5665 30.936C43.3505 31.068 43.1525 31.248 42.9725 31.476V36H41.8025ZM55.7545 32.274C55.7545 32.042 55.7205 31.828 55.6525 31.632C55.5885 31.436 55.4925 31.266 55.3645 31.122C55.2365 30.978 55.0805 30.866 54.8965 30.786C54.7125 30.706 54.5005 30.666 54.2605 30.666C53.7685 30.666 53.3805 30.808 53.0965 31.092C52.8165 31.376 52.6385 31.77 52.5625 32.274H55.7545ZM56.7205 35.13C56.5765 35.298 56.4105 35.444 56.2225 35.568C56.0345 35.688 55.8345 35.786 55.6225 35.862C55.4105 35.938 55.1905 35.994 54.9625 36.03C54.7385 36.066 54.5165 36.084 54.2965 36.084C53.8765 36.084 53.4865 36.014 53.1265 35.874C52.7705 35.73 52.4605 35.522 52.1965 35.25C51.9365 34.974 51.7325 34.634 51.5845 34.23C51.4405 33.822 51.3685 33.354 51.3685 32.826C51.3685 32.402 51.4345 32.008 51.5665 31.644C51.6985 31.276 51.8865 30.956 52.1305 30.684C52.3785 30.412 52.6805 30.198 53.0365 30.042C53.3925 29.886 53.7925 29.808 54.2365 29.808C54.6085 29.808 54.9505 29.87 55.2625 29.994C55.5785 30.114 55.8505 30.29 56.0785 30.522C56.3065 30.754 56.4845 31.04 56.6125 31.38C56.7445 31.72 56.8105 32.108 56.8105 32.544C56.8105 32.724 56.7905 32.846 56.7505 32.91C56.7105 32.97 56.6365 33 56.5285 33H52.5325C52.5445 33.364 52.5965 33.682 52.6885 33.954C52.7805 34.222 52.9065 34.446 53.0665 34.626C53.2305 34.806 53.4245 34.94 53.6485 35.028C53.8725 35.116 54.1225 35.16 54.3985 35.16C54.6585 35.16 54.8825 35.13 55.0705 35.07C55.2625 35.01 55.4265 34.946 55.5625 34.878C55.7025 34.806 55.8185 34.74 55.9105 34.68C56.0065 34.62 56.0905 34.59 56.1625 34.59C56.2585 34.59 56.3325 34.626 56.3845 34.698L56.7205 35.13ZM59.1721 31.074C59.3681 30.674 59.6041 30.36 59.8801 30.132C60.1561 29.904 60.4881 29.79 60.8761 29.79C61.0081 29.79 61.1321 29.806 61.2481 29.838C61.3681 29.866 61.4721 29.91 61.5601 29.97L61.4821 30.852C61.4541 30.96 61.3881 31.014 61.2841 31.014C61.2281 31.014 61.1441 31.004 61.0321 30.984C60.9201 30.96 60.8001 30.948 60.6721 30.948C60.4841 30.948 60.3181 30.976 60.1741 31.032C60.0301 31.084 59.9001 31.164 59.7841 31.272C59.6721 31.376 59.5721 31.506 59.4841 31.662C59.3961 31.814 59.3141 31.988 59.2381 32.184V36H58.0681V29.904H58.7401C58.8681 29.904 58.9541 29.928 58.9981 29.976C59.0461 30.02 59.0801 30.1 59.1001 30.216L59.1721 31.074ZM65.6449 33.294C65.1689 33.31 64.7649 33.348 64.4329 33.408C64.1009 33.464 63.8309 33.54 63.6229 33.636C63.4149 33.732 63.2649 33.846 63.1729 33.978C63.0809 34.106 63.0349 34.25 63.0349 34.41C63.0349 34.562 63.0589 34.694 63.1069 34.806C63.1589 34.914 63.2269 35.004 63.3109 35.076C63.3989 35.144 63.5009 35.194 63.6169 35.226C63.7329 35.258 63.8589 35.274 63.9949 35.274C64.1749 35.274 64.3389 35.256 64.4869 35.22C64.6389 35.184 64.7809 35.134 64.9129 35.07C65.0449 35.002 65.1709 34.92 65.2909 34.824C65.4109 34.728 65.5289 34.618 65.6449 34.494V33.294ZM62.2129 30.756C62.5529 30.432 62.9209 30.19 63.3169 30.03C63.7169 29.87 64.1549 29.79 64.6309 29.79C64.9789 29.79 65.2869 29.848 65.5549 29.964C65.8229 30.076 66.0489 30.234 66.2329 30.438C66.4169 30.642 66.5549 30.886 66.6469 31.17C66.7429 31.454 66.7909 31.768 66.7909 32.112V36H66.2689C66.1529 36 66.0649 35.982 66.0049 35.946C65.9449 35.906 65.8969 35.834 65.8609 35.73L65.7349 35.196C65.5789 35.34 65.4249 35.468 65.2729 35.58C65.1209 35.688 64.9609 35.782 64.7929 35.862C64.6289 35.938 64.4529 35.996 64.2649 36.036C64.0769 36.076 63.8689 36.096 63.6409 36.096C63.4009 36.096 63.1749 36.064 62.9629 36C62.7549 35.932 62.5729 35.83 62.4169 35.694C62.2609 35.558 62.1369 35.388 62.0449 35.184C61.9569 34.98 61.9129 34.742 61.9129 34.47C61.9129 34.23 61.9769 34 62.1049 33.78C62.2369 33.556 62.4489 33.356 62.7409 33.18C63.0369 33.004 63.4209 32.86 63.8929 32.748C64.3689 32.636 64.9529 32.572 65.6449 32.556V32.112C65.6449 31.652 65.5469 31.308 65.3509 31.08C65.1549 30.852 64.8669 30.738 64.4869 30.738C64.2309 30.738 64.0149 30.77 63.8389 30.834C63.6669 30.898 63.5169 30.97 63.3889 31.05C63.2649 31.126 63.1549 31.196 63.0589 31.26C62.9669 31.324 62.8709 31.356 62.7709 31.356C62.6909 31.356 62.6209 31.334 62.5609 31.29C62.5049 31.246 62.4589 31.194 62.4229 31.134L62.2129 30.756ZM72.6163 29.904V36H71.4463V29.904H72.6163ZM72.8383 28.02C72.8383 28.128 72.8163 28.232 72.7723 28.332C72.7283 28.428 72.6683 28.514 72.5923 28.59C72.5203 28.662 72.4343 28.72 72.3343 28.764C72.2343 28.804 72.1303 28.824 72.0223 28.824C71.9143 28.824 71.8123 28.804 71.7163 28.764C71.6203 28.72 71.5343 28.662 71.4583 28.59C71.3863 28.514 71.3283 28.428 71.2843 28.332C71.2443 28.232 71.2243 28.128 71.2243 28.02C71.2243 27.908 71.2443 27.804 71.2843 27.708C71.3283 27.608 71.3863 27.522 71.4583 27.45C71.5343 27.374 71.6203 27.316 71.7163 27.276C71.8123 27.232 71.9143 27.21 72.0223 27.21C72.1303 27.21 72.2343 27.232 72.3343 27.276C72.4343 27.316 72.5203 27.374 72.5923 27.45C72.6683 27.522 72.7283 27.608 72.7723 27.708C72.8163 27.804 72.8383 27.908 72.8383 28.02ZM77.9043 30.954C77.8723 31.006 77.8383 31.044 77.8023 31.068C77.7663 31.088 77.7203 31.098 77.6643 31.098C77.6003 31.098 77.5283 31.076 77.4483 31.032C77.3723 30.988 77.2783 30.94 77.1663 30.888C77.0583 30.836 76.9303 30.788 76.7823 30.744C76.6343 30.7 76.4583 30.678 76.2543 30.678C76.0863 30.678 75.9323 30.7 75.7923 30.744C75.6563 30.784 75.5403 30.842 75.4443 30.918C75.3483 30.99 75.2743 31.078 75.2223 31.182C75.1703 31.282 75.1443 31.39 75.1443 31.506C75.1443 31.658 75.1883 31.784 75.2763 31.884C75.3683 31.984 75.4863 32.07 75.6303 32.142C75.7783 32.214 75.9443 32.28 76.1283 32.34C76.3163 32.396 76.5063 32.456 76.6983 32.52C76.8943 32.584 77.0843 32.658 77.2683 32.742C77.4563 32.822 77.6223 32.924 77.7663 33.048C77.9143 33.168 78.0323 33.314 78.1203 33.486C78.2123 33.658 78.2583 33.868 78.2583 34.116C78.2583 34.4 78.2063 34.664 78.1023 34.908C78.0023 35.148 77.8523 35.356 77.6523 35.532C77.4563 35.708 77.2123 35.846 76.9203 35.946C76.6283 36.046 76.2943 36.096 75.9183 36.096C75.4983 36.096 75.1103 36.026 74.7543 35.886C74.3983 35.746 74.1003 35.568 73.8603 35.352L74.1363 34.902C74.1683 34.846 74.2083 34.804 74.2563 34.776C74.3043 34.744 74.3683 34.728 74.4483 34.728C74.5243 34.728 74.6023 34.756 74.6823 34.812C74.7623 34.868 74.8583 34.93 74.9703 34.998C75.0823 35.062 75.2183 35.122 75.3783 35.178C75.5383 35.23 75.7383 35.256 75.9783 35.256C76.1783 35.256 76.3523 35.232 76.5003 35.184C76.6483 35.132 76.7703 35.064 76.8663 34.98C76.9663 34.892 77.0403 34.792 77.0883 34.68C77.1363 34.568 77.1603 34.45 77.1603 34.326C77.1603 34.166 77.1143 34.034 77.0223 33.93C76.9343 33.822 76.8163 33.73 76.6683 33.654C76.5243 33.578 76.3583 33.512 76.1703 33.456C75.9823 33.4 75.7903 33.34 75.5943 33.276C75.3983 33.212 75.2063 33.138 75.0183 33.054C74.8303 32.97 74.6623 32.864 74.5143 32.736C74.3703 32.608 74.2523 32.452 74.1603 32.268C74.0723 32.084 74.0283 31.86 74.0283 31.596C74.0283 31.36 74.0763 31.134 74.1723 30.918C74.2723 30.702 74.4143 30.512 74.5983 30.348C74.7863 30.184 75.0163 30.054 75.2883 29.958C75.5643 29.858 75.8783 29.808 76.2303 29.808C76.6343 29.808 76.9983 29.872 77.3223 30C77.6503 30.128 77.9303 30.304 78.1623 30.528L77.9043 30.954ZM85.1583 29.808C85.6063 29.808 86.0103 29.882 86.3703 30.03C86.7343 30.174 87.0423 30.384 87.2943 30.66C87.5503 30.932 87.7463 31.262 87.8823 31.65C88.0183 32.034 88.0863 32.466 88.0863 32.946C88.0863 33.426 88.0183 33.86 87.8823 34.248C87.7463 34.636 87.5503 34.966 87.2943 35.238C87.0423 35.51 86.7343 35.72 86.3703 35.868C86.0103 36.012 85.6063 36.084 85.1583 36.084C84.7063 36.084 84.2983 36.012 83.9343 35.868C83.5743 35.72 83.2663 35.51 83.0103 35.238C82.7543 34.966 82.5563 34.636 82.4163 34.248C82.2803 33.86 82.2123 33.426 82.2123 32.946C82.2123 32.466 82.2803 32.034 82.4163 31.65C82.5563 31.262 82.7543 30.932 83.0103 30.66C83.2663 30.384 83.5743 30.174 83.9343 30.03C84.2983 29.882 84.7063 29.808 85.1583 29.808ZM85.1583 35.172C85.7343 35.172 86.1643 34.978 86.4483 34.59C86.7323 34.202 86.8743 33.656 86.8743 32.952C86.8743 32.248 86.7323 31.702 86.4483 31.314C86.1643 30.922 85.7343 30.726 85.1583 30.726C84.5743 30.726 84.1383 30.922 83.8503 31.314C83.5663 31.702 83.4243 32.248 83.4243 32.952C83.4243 33.656 83.5663 34.202 83.8503 34.59C84.1383 34.978 84.5743 35.172 85.1583 35.172ZM89.6537 36V30.864L89.0177 30.786C88.9257 30.766 88.8497 30.734 88.7897 30.69C88.7337 30.642 88.7057 30.574 88.7057 30.486V30H89.6537V29.544C89.6537 29.196 89.7037 28.886 89.8037 28.614C89.9037 28.342 90.0457 28.112 90.2297 27.924C90.4177 27.732 90.6417 27.588 90.9017 27.492C91.1657 27.392 91.4617 27.342 91.7897 27.342C92.0657 27.342 92.3197 27.382 92.5517 27.462L92.5277 28.056C92.5237 28.104 92.5077 28.142 92.4797 28.17C92.4517 28.194 92.4137 28.212 92.3657 28.224C92.3217 28.236 92.2657 28.244 92.1977 28.248C92.1337 28.248 92.0637 28.248 91.9877 28.248C91.8077 28.248 91.6437 28.27 91.4957 28.314C91.3477 28.358 91.2217 28.432 91.1177 28.536C91.0137 28.64 90.9337 28.778 90.8777 28.95C90.8217 29.118 90.7937 29.328 90.7937 29.58V30H93.4577V29.376C93.4577 29.028 93.5077 28.718 93.6077 28.446C93.7077 28.174 93.8497 27.944 94.0337 27.756C94.2217 27.564 94.4477 27.42 94.7117 27.324C94.9757 27.224 95.2717 27.174 95.5997 27.174C95.8677 27.174 96.1217 27.214 96.3617 27.294L96.3317 27.882C96.3277 27.934 96.3117 27.974 96.2837 28.002C96.2597 28.026 96.2237 28.044 96.1757 28.056C96.1277 28.068 96.0717 28.076 96.0077 28.08C95.9437 28.08 95.8717 28.08 95.7917 28.08C95.6117 28.08 95.4477 28.102 95.2997 28.146C95.1517 28.19 95.0257 28.264 94.9217 28.368C94.8177 28.472 94.7377 28.61 94.6817 28.782C94.6257 28.95 94.5977 29.16 94.5977 29.412V30H96.3077V30.852H94.6337V36H93.4577V30.852H90.8297V36H89.6537Z" fill="white"/>
<circle cx="62" cy="78" r="13" fill="#FD2C2C"/>
<path d="M67.559 72C67.4434 72.0033 67.3395 72.0522 67.2645 72.129L56.1257 83.2679C56.0481 83.3455 56 83.4524 56 83.571C56 83.8077 56.1921 83.9998 56.4284 83.9998C56.5465 83.9998 56.6538 83.9518 56.7311 83.8745L58.7688 81.8368C58.8078 81.85 58.8528 81.8574 58.8997 81.8574H58.9031H64.568C64.8047 81.8574 64.9964 81.6658 64.9964 81.4291V78.9165L66.8642 80.473C66.9377 80.5349 67.0337 80.5724 67.1387 80.5724C67.3755 80.5724 67.5671 80.3807 67.5671 80.144V80.1437V75.4309C67.5668 75.1947 67.375 75.0029 67.1387 75.0029C67.1342 75.0029 67.1301 75.0029 67.1256 75.0032H67.1263C67.0127 75.0066 66.9107 75.0539 66.8359 75.1282L64.9967 76.9674V75.6488V75.6485C64.9967 75.6353 64.996 75.6219 64.9949 75.6091L64.9952 75.611L67.8702 72.736C67.9505 72.6579 68 72.5492 68 72.4287C68 72.192 67.8083 72.0004 67.5716 72.0004C67.5671 72.0004 67.563 72.0004 67.5585 72.0007H67.5592L67.559 72ZM56.8568 74.1458C56.6205 74.1458 56.4284 74.3378 56.4284 74.5741V80.1437V80.1497C56.4284 80.3864 56.6205 80.5781 56.8568 80.5781C57.0931 80.5781 57.2852 80.3864 57.2852 80.1497V80.1433V80.1437V75.0024H62.3814H62.3874C62.6242 75.0024 62.8158 74.8108 62.8158 74.574C62.8158 74.3373 62.6242 74.1457 62.3874 74.1457H62.3811H56.8566L56.8568 74.1458ZM64.14 76.4656V81.0006H59.6049L64.14 76.4656ZM66.7104 76.4656V79.2289L65.2031 77.9729L66.7104 76.4656Z" fill="white"/>
</g>
<defs>
<filter id="filter0_d_0_1" x="-929" y="-624" width="1264" height="933" filterUnits="userSpaceOnUse" color-interpolation-filters="sRGB">
<feFlood flood-opacity="0" result="BackgroundImageFix"/>
<feColorMatrix in="SourceAlpha" type="matrix" values="0 0 0 0 0 0 0 0 0 0 0 0 0 0 0 0 0 0 127 0" result="hardAlpha"/>
<feOffset dy="4"/>
<feGaussianBlur stdDeviation="6"/>
<feComposite in2="hardAlpha" operator="out"/>
<feColorMatrix type="matrix" values="0 0 0 0 0.475 0 0 0 0 0.457188 0 0 0 0 0.457188 0 0 0 0.25 0"/>
<feBlend mode="normal" in2="BackgroundImageFix" result="effect1_dropShadow_0_1"/>
<feBlend mode="normal" in="SourceGraphic" in2="effect1_dropShadow_0_1" result="shape"/>
</filter>
<linearGradient id="paint0_linear_0_1" x1="-296" y1="-879" x2="-296" y2="335" gradientUnits="userSpaceOnUse">
<stop stop-color="white"/>
<stop offset="1" stop-color="#F3F7F7"/>
</linearGradient>
<clipPath id="clip0_0_1">
<rect width="1440" height="1327" fill="white" transform="translate(-1017 -935)"/>
</clipPath>
</defs>
</svg>
