<svg width="16" height="16" viewBox="0 0 16 16" fill="none" xmlns="http://www.w3.org/2000/svg">
<path d="M10.3434 4.60608L7.99988 6.94944L5.65637 4.60608L4.60596 5.65649L6.94932 8L4.60596 10.3435L5.65637 11.3939L7.99988 9.05056L10.3434 11.3939L11.3938 10.3435L9.05044 8L11.3938 5.65649L10.3434 4.60608Z" fill="white"/>
<path d="M8 0C3.58621 0 0 3.58621 0 8C0 12.4138 3.58621 16 8 16C12.4138 16 16 12.4138 16 8C16 3.58621 12.4138 0 8 0ZM8 14.601C4.35468 14.601 1.39901 11.6453 1.39901 8C1.39901 4.35468 4.35468 1.39901 8 1.39901C11.6453 1.39901 14.601 4.35468 14.601 8C14.601 11.6453 11.6453 14.601 8 14.601Z" fill="white"/>
</svg>
