<svg width="13" height="12" viewBox="0 0 13 12" fill="none" xmlns="http://www.w3.org/2000/svg">
<path d="M2.90113 11.4635L0.556382 9.079L0 12L2.90113 11.4635Z" fill="white"/>
<path d="M3.45751 10.927L1.03328 8.50274L7.72973 1.84603L10.154 4.29014L3.45751 10.927Z" fill="white"/>
<path d="M9.23991 0.315984L8.28611 1.28965L10.7501 3.71388L11.8827 2.4819C12.153 2.14807 11.9291 1.74668 11.7834 1.58771L10.4123 0.315984C9.8877 -0.256294 9.41212 0.0775351 9.23991 0.315984Z" fill="white"/>
<path d="M2.90113 11.4635L0.556382 9.079L0 12L2.90113 11.4635Z" stroke="#5C5E7A"/>
<path d="M3.45751 10.927L1.03328 8.50274L7.72973 1.84603L10.154 4.29014L3.45751 10.927Z" stroke="#5C5E7A"/>
<path d="M9.23991 0.315984L8.28611 1.28965L10.7501 3.71388L11.8827 2.4819C12.153 2.14807 11.9291 1.74668 11.7834 1.58771L10.4123 0.315984C9.8877 -0.256294 9.41212 0.0775351 9.23991 0.315984Z" stroke="#5C5E7A"/>
</svg>
