<svg width="15" height="15" viewBox="0 0 15 15" fill="none" xmlns="http://www.w3.org/2000/svg">
<circle cx="7.5" cy="7.5" r="7" stroke="white"/>
<path d="M6 4.79675C6.1176 4.68835 6.24557 4.58537 6.38392 4.4878C6.52572 4.39024 6.67791 4.30533 6.84047 4.23306C7.00303 4.16079 7.17942 4.10479 7.36965 4.06504C7.55988 4.02168 7.76567 4 7.98703 4C8.28794 4 8.56118 4.04336 8.80674 4.13008C9.05577 4.2168 9.26848 4.34146 9.44488 4.50406C9.62127 4.66305 9.75789 4.85637 9.85473 5.08401C9.95158 5.31165 10 5.5664 10 5.84824C10 6.12285 9.96195 6.36134 9.88586 6.56369C9.80977 6.76242 9.71466 6.93586 9.60052 7.08401C9.48638 7.23216 9.36014 7.36043 9.22179 7.46883C9.0869 7.57724 8.95893 7.68022 8.83787 7.77778C8.71682 7.87173 8.61133 7.96567 8.5214 8.05962C8.43493 8.14995 8.38305 8.25294 8.36576 8.36856L8.24643 9.15989H7.36965L7.28145 8.27642C7.2607 8.10659 7.28318 7.95845 7.3489 7.83198C7.41807 7.7019 7.508 7.58446 7.61868 7.47967C7.73281 7.37127 7.85906 7.26829 7.99741 7.17073C8.13575 7.06956 8.26546 6.96116 8.38651 6.84553C8.50757 6.72629 8.60787 6.5944 8.68742 6.44986C8.77043 6.30172 8.81193 6.12647 8.81193 5.92412C8.81193 5.79404 8.78772 5.67841 8.7393 5.57724C8.69434 5.47245 8.63035 5.38392 8.54734 5.31165C8.46433 5.23577 8.36403 5.17796 8.24643 5.13821C8.1323 5.09846 8.00778 5.07859 7.87289 5.07859C7.67575 5.07859 7.508 5.10208 7.36965 5.14905C7.23476 5.19241 7.11889 5.243 7.02205 5.30081C6.92866 5.35501 6.84911 5.4056 6.7834 5.45257C6.71768 5.49593 6.65888 5.51762 6.607 5.51762C6.48249 5.51762 6.39256 5.46341 6.33722 5.35501L6 4.79675ZM6.98054 11.187C6.98054 11.075 6.99957 10.9684 7.03761 10.8672C7.07912 10.766 7.13446 10.6793 7.20363 10.607C7.27281 10.5348 7.35582 10.477 7.45266 10.4336C7.5495 10.3902 7.65326 10.3686 7.76394 10.3686C7.87462 10.3686 7.97665 10.3902 8.07004 10.4336C8.16688 10.477 8.24989 10.5348 8.31907 10.607C8.3917 10.6793 8.44877 10.766 8.49027 10.8672C8.53178 10.9684 8.55253 11.075 8.55253 11.187C8.55253 11.3026 8.53178 11.411 8.49027 11.5122C8.44877 11.6098 8.3917 11.6947 8.31907 11.7669C8.24989 11.8392 8.16688 11.8952 8.07004 11.935C7.97665 11.9783 7.87462 12 7.76394 12C7.65326 12 7.5495 11.9783 7.45266 11.935C7.35582 11.8952 7.27281 11.8392 7.20363 11.7669C7.13446 11.6947 7.07912 11.6098 7.03761 11.5122C6.99957 11.411 6.98054 11.3026 6.98054 11.187Z" fill="white"/>
</svg>
