<svg width="449" height="422" viewBox="0 0 449 422" fill="none" xmlns="http://www.w3.org/2000/svg">
<ellipse cx="392" cy="73" rx="37" ry="32" fill="#F5F5FD"/>
<ellipse cx="307.5" cy="20.5" rx="23.5" ry="20.5" fill="#F5F5FD"/>
<ellipse cx="209.5" cy="261.5" rx="192.5" ry="160.5" fill="#F5F5FD"/>
<path d="M16.707 321.52H134.445L154.772 407.043H33.9651L16.707 321.52Z" fill="#DBEBE9"/>
<path d="M243.5 290.5L284 307C293.2 303.8 295.167 291 295 285L292.5 283.5H286.5L284 273L256 259C251.833 257.167 242.8 255.3 240 262.5C237.2 269.7 241.167 284.167 243.5 290.5Z" fill="#0B2D50"/>
<path d="M290.001 313.5L280.372 301.194L274.811 352.201L295.904 383.649L230.707 395.154V398.606C236.536 397.072 238.761 403.591 239.144 407.043H327.352C340.238 403.975 335.278 386.845 331.187 378.663L313.501 346L302.501 329.5L290.001 313.5Z" fill="#8370F0"/>
<path d="M274.81 388.251C274.81 386.41 278.645 368.308 280.562 359.487L274.81 351.05L267.523 368.308C258.626 381.808 221.885 391.319 204.627 394.387C207.695 394.387 222.78 397.455 229.939 398.989C230.246 395.308 234.157 394.387 236.075 394.387C248.987 393.109 274.81 390.092 274.81 388.251Z" fill="#9C89FF"/>
<path d="M130.61 317.643H20.5422L16.707 324.163H128.693C133.295 324.163 135.724 327.486 136.363 329.148L151.32 401.632C151.32 405.621 149.53 406.873 148.635 407.001H191.589L204.628 396.646H155.922L140.198 324.163C136.363 317.643 133.678 316.62 130.61 317.643Z" fill="#B8D1CE"/>
<rect y="407" width="449" height="10" rx="5" fill="#C4C4C4"/>
<ellipse cx="86.1106" cy="365.021" rx="10.3548" ry="11.2505" transform="rotate(80.5103 86.1106 365.021)" fill="#B8D1CE"/>
<path d="M35.1143 407.427L17.4727 324.971L21.3078 317.685C14.558 318.298 12.3592 322.798 12.1035 324.971L27.8275 407.427H35.1143Z" fill="#B8D1CE"/>
<path d="M200.41 396.688L190.055 408.577L239.144 407.81C239.144 401.29 234.159 396.688 231.858 398.606C230.017 400.14 223.932 399.245 221.119 398.606C209.154 392.47 202.327 394.771 200.41 396.688Z" fill="#FAA07B"/>
<path d="M369.922 374.444H365.128L364.553 379.047L369.922 378.471L372.606 379.047C378.934 381.348 377.976 388.954 377.017 391.511C375.329 396.727 368.068 397.072 365.128 396.688L364.553 399.948C366.854 401.329 371.264 400.523 373.182 399.948C381.466 396.573 381.911 391.097 381.236 384.608C380.469 377.244 373.374 374.764 369.922 374.444Z" fill="#9A87FA"/>
<path d="M371.072 367.541H341.158V402.027C341.158 407.113 344.761 408.513 346.562 408.577H367.405C371.072 406.073 371.072 405.88 371.072 400.871V390.082V367.541Z" fill="#9C89FF"/>
<path d="M371.072 402.904V367.541H364.038V402.904C364.038 405.173 361.824 407.632 360.717 408.577H367.36C370.173 407.821 371.007 404.48 371.072 402.904Z" fill="#8170F4"/>
<rect x="344.227" y="370.609" width="3.0681" height="21.0932" rx="1.53405" fill="#B0A1FF"/>
<path d="M383.346 367.733V356.419H432.819V367.733H383.346Z" fill="#9D7272"/>
<path d="M388.139 367.733L395.809 408.385H420.929L427.832 367.733H388.139Z" fill="#795656"/>
<path d="M421.607 335.899C424.002 342.28 420.541 352.285 418.512 356.49L390.492 356.389C380.176 352.836 379.816 345.912 380.926 342.895C381.611 335.645 377.024 332.9 374.645 332.433C366.524 329.767 366.163 323.063 366.998 320.044C367.689 311.256 361.824 307.389 358.806 306.554C349.601 299.488 352.447 292.43 355.02 289.783C359.222 282.546 353.327 276.683 349.855 274.656C342.407 268.036 344.404 262.733 346.334 260.908C351.394 259.388 353.037 255.53 353.227 253.791C351.053 247.19 352.35 242.983 353.27 241.704C358.79 234.691 367.102 240.289 370.568 243.964C373.196 246.611 377.153 246.368 378.803 245.916C387.163 243.309 391.61 249.259 392.789 252.56C393.196 261.571 398.415 266.773 400.973 268.247C409.751 271.795 408.6 286.405 406.927 293.267C407.57 297.664 413.389 304.095 416.218 306.761C421.473 312.054 418.362 321.602 416.15 325.715C416.136 329.451 419.783 334.061 421.607 335.899Z" fill="#7FDFA8"/>
<path d="M409.454 356.653C397.675 321.998 370.718 250.478 357.125 241.639" stroke="#2ACD6F"/>
<path d="M406.725 274.782C401.482 281.173 390.989 296.207 390.957 305.217" stroke="#2ACD6F"/>
<path d="M383.479 246.404C381.34 255.37 377.552 274.842 379.508 281.002" stroke="#2ACD6F"/>
<path d="M414.848 307.501C410.156 313.527 401.15 327.56 402.66 335.477" stroke="#2ACD6F"/>
<path d="M355.264 299.869C363.141 299.257 381.252 299.743 390.677 306.59" stroke="#2ACD6F"/>
<path d="M347.678 270.998C357.015 271.856 376.616 275.278 380.328 282.104" stroke="#2ACD6F"/>
<path d="M368.087 324.914C377.881 326.048 398.341 329.912 401.834 336.298" stroke="#2ACD6F"/>
<path d="M394.28 341.901C392.592 346.35 394.983 353.343 396.389 356.283H415.948C423.158 353.828 423.427 348.996 422.66 346.887C422.199 341.824 425.408 339.92 427.07 339.6C432.746 337.759 433.014 333.08 432.439 330.971C431.979 324.835 436.083 322.15 438.192 321.575C444.635 316.666 442.666 311.731 440.877 309.878C437.962 304.815 442.091 300.737 444.52 299.331C449.736 294.729 448.355 291.022 447.013 289.743C443.484 288.67 442.347 285.972 442.219 284.758C443.753 280.156 442.858 277.215 442.219 276.32C438.384 271.411 432.567 275.298 430.138 277.854C428.297 279.695 425.536 279.516 424.385 279.197C418.556 277.356 415.437 281.498 414.606 283.799C414.299 290.089 410.643 293.706 408.853 294.729C402.717 297.183 403.484 307.385 404.635 312.179C404.174 315.247 400.096 319.721 398.115 321.575C394.433 325.257 396.581 331.93 398.115 334.806C398.115 337.414 395.558 340.623 394.28 341.901Z" fill="#5ACB8A"/>
<path d="M402.713 356.419C411.022 332.258 430.019 282.401 439.53 276.265" stroke="#79DDA3"/>
<path d="M404.822 299.276C408.466 303.75 415.752 314.271 415.752 320.561" stroke="#79DDA3"/>
<path d="M421.121 279.525C422.591 285.789 425.186 299.391 423.806 303.686" stroke="#79DDA3"/>
<path d="M399.068 322.095C402.328 326.314 408.579 336.132 407.506 341.654" stroke="#79DDA3"/>
<path d="M440.68 316.918C435.183 316.47 422.54 316.764 415.943 321.52" stroke="#79DDA3"/>
<path d="M446.049 296.783C439.53 297.358 425.838 299.698 423.23 304.453" stroke="#79DDA3"/>
<path d="M431.668 334.367C424.829 335.134 410.537 337.781 408.082 342.229" stroke="#79DDA3"/>
<path d="M176.5 308.5C171.7 305.7 168.833 301 168 299L193.5 280.5H206.5L212.5 282L210 292L176.5 308.5Z" fill="#0B2D50"/>
<path d="M175.864 372.527C171.875 355.039 180.082 317.685 184.685 301.194C176.708 301.194 167.043 313.977 163.208 320.369L142.498 358.72L150.552 397.455H155.921L175.864 372.527Z" fill="#8370F0"/>
<path d="M280.562 301.287C241.321 272.64 198.81 289.351 182.459 301.287C172.955 322.15 174.156 375.37 175.944 399.373H199.321L204.686 395.48H209.667L224.996 399.373H231.127L234.193 395.48L274.814 388.474L280.562 358.504V301.287Z" fill="#8370F0"/>
<path d="M220.067 311.399C204.34 309.735 200.408 297.954 200.408 292.271C217.301 280.961 240.94 284.786 250.648 288.113C249.483 309.07 229.776 312.369 220.067 311.399Z" fill="#9C89FF"/>
<path d="M208.271 289.305L210.764 280.676C223.497 281.443 235.824 266.997 241.001 261.5C239.62 272.699 242.787 288.09 243.938 292.565C241.79 302.076 233.583 304.837 229.748 305.029C215.021 308.404 208.655 299.276 207.312 294.29L208.271 289.305Z" fill="#F0916A"/>
<path d="M187.195 236.323C184.082 268.034 198.357 281.18 204 284.5L171.628 304C159.174 294.719 167.088 274.995 172.601 266.294C177.378 256.626 171.515 236.323 174.046 218.175C176.426 201.101 190.764 195.394 198.872 198.617C209.752 182.604 234.508 190.254 242.136 195.507C257.836 206.318 265.313 215.949 264.988 230.129C264.988 250.239 276.713 255.337 280.605 256.626C290.21 259.807 292.53 265.681 294.495 270.819C302.112 290.739 290.293 296.509 286.401 300.698L243.631 279.356V254C250 250 249.595 245.867 247 242C243.108 237.359 242.009 240.835 239.739 244.057C240.517 239.417 232.279 236.967 228.062 236.323C209.381 234.776 201.467 222.787 199.845 216.986C199.067 224.721 191.088 233.1 187.195 236.323Z" fill="#0B2D50"/>
<path d="M202.068 283.883C189.651 272.938 182.108 249.716 184.5 235C190.708 233.436 197.836 221.864 200.423 216C203.527 231.637 224.3 236.322 234 236.973C236.328 236.192 238.883 240.72 240.5 243L242.5 240C248.752 238.027 250.323 241.939 250 246.5C249.677 251.061 247.982 252.697 244.748 254C242.42 265.728 228.905 278.345 222.438 280.952C210.798 286.424 204.008 285.187 202.068 283.883Z" fill="#FAA07B"/>
<circle cx="193.357" cy="248.93" r="2.97659" fill="#0B2D50"/>
<circle cx="215.98" cy="248.93" r="2.97659" fill="#0B2D50"/>
<path d="M197.525 244.516C195.284 241.379 190.241 243.209 188 244.516C190.241 239.137 195.284 239.661 197.525 240.594V244.516Z" fill="#0B2D50"/>
<path d="M213.004 244.516C215.245 241.379 220.288 243.209 222.529 244.516C220.288 239.137 215.245 239.661 213.004 240.594V244.516Z" fill="#0B2D50"/>
<path d="M201.098 259.05L207.051 260.702C205.244 262.023 202.877 261.252 201.919 260.702L201.098 259.05Z" fill="#E6775C"/>
<path d="M199.906 258.845L203.478 244.763L200.846 258.845L202.35 261.431L199.906 258.845Z" fill="#0B2D50"/>
<path d="M212 284.5C226 283.3 236.833 270.333 240.5 264V274.5C236.1 283.7 219.667 285 212 284.5Z" fill="#ED855A"/>
<path d="M206.177 272.101C202.835 272.455 201.438 270.734 200.846 269.64C204.072 271.335 208.85 270.347 210.605 269.64C209.839 271.062 207.179 271.873 206.177 272.101Z" fill="white"/>
<path d="M206.564 271.937C203.204 272.558 201.62 270.985 201.05 269.914L199.105 268.829C205.503 276.976 210.366 271.991 211.847 268.414L210.072 269.914C209.69 270.679 207.807 271.707 206.564 271.937Z" fill="#8E1D19"/>
<path d="M199.002 268.725C201.804 269.659 208.172 270.679 212.055 268C210.46 270.256 205.782 273.701 199.002 268.725Z" fill="#F6565E"/>
<path d="M205.736 273.18C202.939 273.283 200.556 270.59 199 268.683C200.258 273.659 203.853 274.949 205.493 274.972C210.25 275.409 211.734 270.668 211.848 268.207C210.087 272.247 207.649 273.109 205.736 273.18Z" fill="#FF6F75"/>
</svg>
