<svg width="127" height="25" viewBox="0 0 127 25" fill="none" xmlns="http://www.w3.org/2000/svg">
<path d="M45.9694 22.1812C48.4527 22.1812 49.6945 21.387 49.6945 19.7987C49.6945 19.3065 49.4482 18.9373 48.9562 18.6912C48.4639 18.4228 47.8375 18.1879 47.077 17.9866C46.3387 17.7852 45.5331 17.5839 44.6607 17.3826C43.7882 17.1589 42.9716 16.8569 42.2111 16.4765C41.4728 16.0962 40.8577 15.6041 40.3657 15.0001C39.8734 14.3737 39.6273 13.613 39.6273 12.7182C39.6273 11.8233 39.7613 11.0515 40.0298 10.4027C40.2982 9.754 40.7013 9.19473 41.2382 8.72491C42.4238 7.71823 44.0677 7.2148 46.1707 7.21478C47.8485 7.2148 49.4705 7.49449 51.0366 8.05376C51.3497 8.16555 51.5845 8.34458 51.7411 8.59063C51.9194 8.83673 52.01 9.11644 52.01 9.42961C52.01 9.72046 51.8754 10 51.607 10.2685C51.3608 10.5369 51.1152 10.6712 50.8691 10.6712C50.6229 10.6712 50.3206 10.6151 49.9628 10.5034C48.889 10.1678 47.7147 10 46.4395 10C45.1643 10 44.191 10.2238 43.5198 10.6712C42.8709 11.1186 42.547 11.6555 42.547 12.2819C42.547 12.9083 42.7926 13.3781 43.2848 13.6913C43.7993 13.9821 44.4257 14.2282 45.164 14.4295C45.9023 14.6309 46.7078 14.8323 47.5803 15.0336C48.475 15.235 49.2917 15.5145 50.0299 15.8725C51.7749 16.7673 52.6475 18.1544 52.6475 20.0336C52.6475 21.4653 52.1104 22.6286 51.0366 23.5235C49.8732 24.5078 48.2512 25 46.1707 25C43.911 25 41.8757 24.4967 40.0636 23.4899C39.6831 23.2215 39.4932 22.886 39.4932 22.4833C39.4932 22.0806 39.617 21.7449 39.8623 21.4765C40.1084 21.1857 40.3769 21.0402 40.6678 21.0402C40.9585 21.0402 41.305 21.1299 41.7077 21.3088C43.0051 21.8905 44.4258 22.1812 45.9694 22.1812Z" fill="white"/>
<path d="M57.6882 17.1812C57.8665 18.7025 58.4374 19.9105 59.3994 20.8053C60.3612 21.7002 61.7034 22.1476 63.4261 22.1476C65.1486 22.1476 66.5915 21.8568 67.7549 21.2751C68.1575 21.0738 68.5044 20.9731 68.7953 20.9731C69.086 20.9731 69.3656 21.0963 69.634 21.3423C69.9025 21.5884 70.037 21.868 70.037 22.1812C70.037 22.7628 69.7907 23.188 69.2987 23.4564C68.8289 23.7025 68.4039 23.9151 68.0237 24.094C67.6432 24.2729 67.2293 24.4296 66.782 24.5638C65.7753 24.8547 64.6118 25 63.2919 25C60.5403 25 58.4039 24.2281 56.8827 22.6845C55.3614 21.1409 54.6006 18.9485 54.6006 16.1074C54.6006 13.6465 55.2384 11.5996 56.5136 9.96648C57.9452 8.13205 59.9808 7.2148 62.6207 7.21478C65.1261 7.2148 67.106 8.06491 68.5603 9.76512C69.9248 11.3535 70.6074 13.3221 70.6074 15.6711C70.6074 16.0962 70.4627 16.4542 70.1712 16.745C69.9027 17.0358 69.5334 17.1813 69.0636 17.1812H57.6882ZM62.6207 9.79866C60.6295 9.79868 59.1757 10.6824 58.2586 12.4497C57.923 13.0761 57.7329 13.8255 57.6882 14.698H67.5874C67.4972 13.1096 66.9162 11.8569 65.8424 10.9396C64.9475 10.179 63.8734 9.79868 62.6207 9.79866Z" fill="white"/>
<path d="M73.9658 1.54367C73.9658 1.09627 74.1106 0.727113 74.4021 0.436257C74.6928 0.145465 75.0507 2.09731e-05 75.4758 0C75.9232 2.09731e-05 76.2925 0.14536 76.5834 0.436257C76.8741 0.727113 77.0196 1.09627 77.0196 1.54367V23.3221C77.0196 23.7472 76.8749 24.1052 76.5834 24.396C76.2925 24.6868 75.9232 24.8322 75.4758 24.8322C75.0507 24.8322 74.6928 24.6869 74.4021 24.396C74.1112 24.1052 73.9658 23.7472 73.9658 23.3221V1.54367Z" fill="white"/>
<path d="M83.6423 17.1812C83.8206 18.7025 84.3915 19.9105 85.3535 20.8053C86.3153 21.7002 87.6575 22.1476 89.3802 22.1476C91.1027 22.1476 92.5456 21.8568 93.709 21.2751C94.1117 21.0738 94.4585 20.9731 94.7494 20.9731C95.0401 20.9731 95.3197 21.0963 95.5882 21.3423C95.8566 21.5884 95.9911 21.868 95.9911 22.1812C95.9911 22.7628 95.7448 23.188 95.2528 23.4564C94.783 23.7025 94.358 23.9151 93.9778 24.094C93.5973 24.2729 93.1835 24.4296 92.7361 24.5638C91.7294 24.8547 90.5659 25 89.246 25C86.4944 25 84.358 24.2281 82.8368 22.6845C81.3155 21.1409 80.5547 18.9485 80.5547 16.1074C80.5547 13.6465 81.1925 11.5996 82.4677 9.96648C83.8993 8.13205 85.9349 7.2148 88.5748 7.21478C91.0802 7.2148 93.0601 8.06491 94.5144 9.76512C95.8789 11.3535 96.5616 13.3221 96.5616 15.6711C96.5616 16.0962 96.4168 16.4542 96.1253 16.745C95.8568 17.0358 95.4876 17.1813 95.0178 17.1812H83.6423ZM88.5748 9.79866C86.5836 9.79868 85.1299 10.6824 84.2127 12.4497C83.8771 13.0761 83.687 13.8255 83.6423 14.698H93.5415C93.4514 13.1096 92.8703 11.8569 91.7965 10.9396C90.9016 10.179 89.8275 9.79868 88.5748 9.79866Z" fill="white"/>
<path d="M107.772 22.1476C109.025 22.1476 110.222 21.8344 111.363 21.208C111.766 20.9843 112.123 20.8725 112.437 20.8725C112.75 20.8725 113.029 21.0179 113.275 21.3088C113.521 21.5996 113.644 21.9463 113.644 22.349C113.644 22.7517 113.387 23.1208 112.873 23.4564C111.284 24.4855 109.495 25 107.504 25C105.02 25 102.929 24.217 101.229 22.651C99.4387 20.9955 98.5439 18.8143 98.5439 16.1074C98.5439 13.4004 99.4387 11.2193 101.229 9.56376C102.929 7.99778 105.02 7.2148 107.504 7.21478C108.846 7.2148 109.942 7.39364 110.792 7.75166C111.664 8.08725 112.358 8.4229 112.873 8.75845C113.387 9.09404 113.644 9.46307 113.644 9.86574C113.644 10.2684 113.521 10.6153 113.275 10.9061C113.029 11.1969 112.783 11.3424 112.537 11.3423C112.156 11.3424 111.766 11.2305 111.363 11.0067C110.222 10.3803 109.025 10.0671 107.772 10.0671C105.803 10.0671 104.282 10.6265 103.208 11.745C102.134 12.8413 101.598 14.2953 101.598 16.1074C101.598 17.9194 102.134 19.3848 103.208 20.5034C104.282 21.5996 105.803 22.1476 107.772 22.1476Z" fill="white"/>
<path d="M122.803 22.3154C123.407 22.3154 123.832 22.2707 124.078 22.1811C124.347 22.0693 124.626 22.0134 124.917 22.0134C125.23 22.0134 125.509 22.1251 125.756 22.3489C126.002 22.5726 126.125 22.9082 126.125 23.3556C126.125 23.803 125.901 24.1275 125.453 24.3289C124.491 24.7763 123.664 24.9999 122.971 24.9999C122.299 24.9999 121.684 24.9664 121.125 24.8993C120.565 24.8322 120.029 24.642 119.514 24.3289C118.284 23.613 117.668 22.3601 117.668 20.5704V10.1678H115.286C114.861 10.1678 114.648 9.95524 114.648 9.53016C114.648 9.32881 114.749 9.13873 114.951 8.95974L119.514 4.49656C119.716 4.29521 119.906 4.1946 120.085 4.19458C120.263 4.1946 120.409 4.26171 120.521 4.39594C120.655 4.53017 120.722 4.68679 120.722 4.86574V7.55036H124.514C124.894 7.55038 125.207 7.67339 125.453 7.91941C125.699 8.16551 125.823 8.47872 125.823 8.859C125.823 9.23933 125.699 9.55254 125.453 9.79859C125.207 10.0447 124.894 10.1678 124.514 10.1678H120.722V20.3019C120.722 21.152 120.979 21.7338 121.494 22.047C121.785 22.2259 122.221 22.3154 122.803 22.3154Z" fill="white"/>
<path d="M13.8589 22.4497C12.2032 24.1499 10.2906 25 8.12069 25C5.97304 25 4.11607 24.2394 2.55021 22.7181C0.84992 21.0403 0 18.8367 0 16.1073C0 13.4228 0.84992 11.2305 2.55021 9.5302C4.09383 7.9866 5.9506 7.21478 8.12069 7.21476C10.2906 7.21478 12.2032 8.06492 13.8589 9.7651V1.54361C13.8589 1.09621 14.0036 0.727113 14.2951 0.436258C14.5858 0.145465 14.944 4.19463e-05 15.3691 0C15.8165 4.19463e-05 16.1855 0.14536 16.4764 0.436258C16.7671 0.727113 16.9127 1.09621 16.9127 1.54361V23.3221C16.9127 23.7472 16.7679 24.1052 16.4764 24.396C16.1855 24.6868 15.8165 24.8322 15.3691 24.8322C14.944 24.8322 14.5858 24.6869 14.2951 24.396C14.0042 24.1052 13.8589 23.7472 13.8589 23.3221V22.4497ZM13.8589 12.5839C12.3375 10.906 10.5704 10.0672 8.55695 10.0671C6.00661 10.0672 4.3174 11.2081 3.4898 13.4899C3.19891 14.2506 3.05355 15.123 3.05355 16.1073C3.05355 18.0313 3.57929 19.5414 4.63088 20.6376C5.59271 21.6443 6.90133 22.1476 8.55695 22.1476C10.5704 22.1476 12.3375 21.3088 13.8589 19.6309V12.5839Z" fill="#2ECC71"/>
<path d="M28.7346 7.21839C23.9812 7.21839 20.1484 11.2231 20.1484 16.132C20.1484 21.0408 23.9812 24.98 28.7346 24.98C33.4879 24.98 37.386 21.0408 37.386 16.132C37.386 14.4817 36.8993 12.9339 36.1405 11.6096L28.3413 21.5063L27.7512 22.2273C27.4137 22.6342 26.7759 22.6342 26.4404 22.2273L25.8508 21.3753L22.4426 16.984C22.1515 16.6251 22.1955 16.0914 22.5747 15.8043L24.0166 14.7556C24.4015 14.4923 24.9332 14.5689 25.1964 14.9521L27.2937 17.967L34.962 10.0365C33.3934 8.32764 31.1955 7.21826 28.7356 7.21826L28.7346 7.21839Z" fill="#2ECC71"/>
</svg>
