<svg width="16" height="24" viewBox="0 0 16 24" fill="none" xmlns="http://www.w3.org/2000/svg">
<path fill-rule="evenodd" clip-rule="evenodd" d="M10.2172 4.50097V11.841C10.2172 13.2223 9.09746 14.342 7.71621 14.342C6.33496 14.342 5.21524 13.2223 5.21524 11.841V4.50097C5.21524 3.11972 6.33496 2 7.71621 2C9.09746 2 10.2172 3.11972 10.2172 4.50097ZM3.21524 4.50097C3.21524 2.01516 5.23039 0 7.71621 0C10.202 0 12.2172 2.01515 12.2172 4.50097V11.841C12.2172 14.3268 10.202 16.342 7.71621 16.342C5.23039 16.342 3.21524 14.3268 3.21524 11.841V4.50097ZM0 8.95575V12.6489V12.6728L0.00115001 12.6968C0.0567638 13.8554 0.535651 15.5306 1.77759 16.9507C2.81719 18.1394 4.3535 19.105 6.50855 19.461V21.9896H3.39976V23.9896H12.0786V21.9896H8.50855V19.578C10.5651 19.3743 14.1706 17.9485 15.2663 13.4875L15.2952 13.37V13.249V8.95575H13.2952V13.1242C12.3735 16.6423 9.41572 17.5691 8.06626 17.6037C5.6279 17.5318 4.16114 16.638 3.28307 15.634C2.38257 14.6044 2.04216 13.3895 2 12.6232V8.95575H0Z" fill="#9799B5"/>
</svg>
