<svg width="18" height="18" viewBox="0 0 18 18" fill="none" xmlns="http://www.w3.org/2000/svg">
<rect width="18" height="18" fill="#E5E5E5"/>
<rect width="375" height="1100" transform="translate(-239 -366)" fill="white"/>
<rect x="-239" y="-121" width="375" height="797" fill="url(#paint0_linear_0_1)"/>
<g filter="url(#filter0_d_0_1)">
<rect x="-224" y="-12" width="345" height="40" fill="white"/>
</g>
<circle cx="9" cy="9" r="9" fill="#C4C4C4"/>
<path d="M10.7572 6.45459L8.99954 8.21211L7.24191 6.45459L6.4541 7.2424L8.21162 9.00003L6.4541 10.7577L7.24191 11.5455L8.99954 9.78795L10.7572 11.5455L11.545 10.7577L9.78746 9.00003L11.545 7.2424L10.7572 6.45459Z" fill="white"/>
<path d="M9 3C5.68966 3 3 5.68966 3 9C3 12.3103 5.68966 15 9 15C12.3103 15 15 12.3103 15 9C15 5.68966 12.3103 3 9 3ZM9 13.9507C6.26601 13.9507 4.04926 11.734 4.04926 9C4.04926 6.26601 6.26601 4.04926 9 4.04926C11.734 4.04926 13.9507 6.26601 13.9507 9C13.9507 11.734 11.734 13.9507 9 13.9507Z" fill="white"/>
<defs>
<filter id="filter0_d_0_1" x="-229" y="-15" width="355" height="50" filterUnits="userSpaceOnUse" color-interpolation-filters="sRGB">
<feFlood flood-opacity="0" result="BackgroundImageFix"/>
<feColorMatrix in="SourceAlpha" type="matrix" values="0 0 0 0 0 0 0 0 0 0 0 0 0 0 0 0 0 0 127 0" result="hardAlpha"/>
<feOffset dy="2"/>
<feGaussianBlur stdDeviation="2.5"/>
<feComposite in2="hardAlpha" operator="out"/>
<feColorMatrix type="matrix" values="0 0 0 0 0.725 0 0 0 0 0.725 0 0 0 0 0.725 0 0 0 0.25 0"/>
<feBlend mode="normal" in2="BackgroundImageFix" result="effect1_dropShadow_0_1"/>
<feBlend mode="normal" in="SourceGraphic" in2="effect1_dropShadow_0_1" result="shape"/>
</filter>
<linearGradient id="paint0_linear_0_1" x1="-51.5" y1="-121" x2="-51.5" y2="676" gradientUnits="userSpaceOnUse">
<stop stop-color="white"/>
<stop offset="1" stop-color="#F3F7F7"/>
</linearGradient>
</defs>
</svg>
