<svg width="18" height="18" viewBox="0 0 18 18" fill="none" xmlns="http://www.w3.org/2000/svg">
<rect width="18" height="18" fill="#E5E5E5"/>
<rect width="375" height="1100" transform="translate(-239 -408)" fill="white"/>
<rect x="-239" y="-163" width="375" height="797" fill="url(#paint0_linear_0_1)"/>
<g filter="url(#filter0_d_0_1)">
<rect x="-224" y="-12" width="345" height="40" fill="white"/>
</g>
<circle cx="9" cy="9" r="9" fill="#7C82DB"/>
<path d="M6.93256 12.6363L5.37063 11.0479L5 12.9937L6.93256 12.6363Z" fill="white"/>
<path d="M7.30319 12.2789L5.68831 10.664L10.1491 6.22972L11.764 7.85783L7.30319 12.2789Z" fill="white"/>
<path d="M11.1551 5.21049L10.5197 5.85909L12.1611 7.47396L12.9155 6.65329C13.0956 6.43091 12.9464 6.16353 12.8494 6.05764L11.936 5.21049C11.5866 4.82927 11.2698 5.05165 11.1551 5.21049Z" fill="white"/>
<path d="M6.93256 12.6363L5.37063 11.0479L5 12.9937L6.93256 12.6363Z" stroke="#5C5E7A"/>
<path d="M7.30319 12.2789L5.68831 10.664L10.1491 6.22972L11.764 7.85783L7.30319 12.2789Z" stroke="#5C5E7A"/>
<path d="M11.1551 5.21049L10.5197 5.85909L12.1611 7.47396L12.9155 6.65329C13.0956 6.43091 12.9464 6.16353 12.8494 6.05764L11.936 5.21049C11.5866 4.82927 11.2698 5.05165 11.1551 5.21049Z" stroke="#5C5E7A"/>
<defs>
<filter id="filter0_d_0_1" x="-229" y="-15" width="355" height="50" filterUnits="userSpaceOnUse" color-interpolation-filters="sRGB">
<feFlood flood-opacity="0" result="BackgroundImageFix"/>
<feColorMatrix in="SourceAlpha" type="matrix" values="0 0 0 0 0 0 0 0 0 0 0 0 0 0 0 0 0 0 127 0" result="hardAlpha"/>
<feOffset dy="2"/>
<feGaussianBlur stdDeviation="2.5"/>
<feComposite in2="hardAlpha" operator="out"/>
<feColorMatrix type="matrix" values="0 0 0 0 0.725 0 0 0 0 0.725 0 0 0 0 0.725 0 0 0 0.25 0"/>
<feBlend mode="normal" in2="BackgroundImageFix" result="effect1_dropShadow_0_1"/>
<feBlend mode="normal" in="SourceGraphic" in2="effect1_dropShadow_0_1" result="shape"/>
</filter>
<linearGradient id="paint0_linear_0_1" x1="-51.5" y1="-163" x2="-51.5" y2="634" gradientUnits="userSpaceOnUse">
<stop stop-color="white"/>
<stop offset="1" stop-color="#F3F7F7"/>
</linearGradient>
</defs>
</svg>
