<svg width="14" height="15" viewBox="0 0 14 15" fill="none" xmlns="http://www.w3.org/2000/svg">
<path fill-rule="evenodd" clip-rule="evenodd" d="M4.82394 9.38336C4.80957 6.80488 4.793 3.34804 4.793 1.70499C7.86209 1.12044 10.9309 0.584582 14 0C14 2.60703 13.9691 6.75399 13.9811 9.63332C14.0544 11.2741 12.7444 12.6456 11.1008 12.6456C9.50809 12.6456 8.21758 11.3549 8.21758 9.7624C8.21758 8.16972 9.50875 6.87921 11.1008 6.87921C11.8406 6.87921 12.5152 7.15833 13.0258 7.61566V4.09223L5.81618 5.45621C5.7738 7.43631 5.73482 9.54019 5.76636 11.5157C5.76636 13.1084 4.47571 14.3989 2.88318 14.3989C1.2905 14.3989 0 13.1082 0 11.5157C0 9.92303 1.29117 8.63252 2.88318 8.63252C4.0506 8.63252 4.83636 9.39478 4.8243 9.38383L4.82394 9.38336ZM11.1007 7.69154C12.244 7.69154 13.1713 8.6182 13.1713 9.76211C13.1713 10.9054 12.244 11.8327 11.1007 11.8327C9.95679 11.8327 9.03012 10.9054 9.03012 9.76211C9.03012 8.6182 9.95679 7.69154 11.1007 7.69154ZM2.88313 9.44523C4.02704 9.44523 4.95371 10.3725 4.95371 11.5158C4.95371 12.6597 4.02704 13.5864 2.88313 13.5864C1.73981 13.5864 0.812551 12.6597 0.812551 11.5158C0.812551 10.3725 1.73981 9.44523 2.88313 9.44523ZM13.1233 1.07158C10.6389 1.51001 8.15452 1.99714 5.67015 2.43557C5.67015 3.16628 5.67015 3.84826 5.71886 4.53027L13.0745 3.16628C13.0745 2.99603 13.129 1.07158 13.1232 1.07158H13.1233Z" fill="white"/>
</svg>
