<svg width="24" height="21" viewBox="0 0 24 21" fill="none" xmlns="http://www.w3.org/2000/svg">
<path d="M22.9908 0H1.0088C0.449994 0 0 0.449994 0 1.0088V16.0309C0 16.5897 0.449994 17.0397 1.0088 17.0397H22.9912C23.5461 17.0397 24 16.5897 24 16.0309L23.9998 1.0088C23.9998 0.449994 23.5462 0 22.991 0H22.9908ZM22.6272 14.5986H1.36861V1.39112H22.6272V14.5986Z" fill="#9799B5"/>
<path d="M16.5071 19.4737H14.5795V17.5425H9.41576V19.4737H7.4882C7.10952 19.4737 6.80566 19.7813 6.80566 20.1563C6.80566 20.535 7.11319 20.8425 7.4882 20.8425H16.5069C16.8856 20.8425 17.1931 20.535 17.1931 20.1563C17.1933 19.7811 16.8858 19.4737 16.5071 19.4737Z" fill="#9799B5"/>
<path d="M9.66413 9.55116L9.28546 9.92615L10.0693 10.71L10.4479 10.3313C10.7443 10.53 11.0854 10.6725 11.4492 10.7438V11.28H12.5554V10.7438C12.9192 10.6725 13.2567 10.53 13.5528 10.3276L13.9315 10.7063L14.7153 9.92633L14.3366 9.54765C14.5353 9.24765 14.6778 8.91016 14.7491 8.54639H15.2853V7.44018H14.7491C14.6778 7.0764 14.5316 6.73892 14.3329 6.43892L14.7116 6.06025L13.9317 5.2803L13.5491 5.65898C13.2528 5.46026 12.9153 5.3178 12.5517 5.2428V4.71027H11.4455V5.24649C11.0817 5.3178 10.7443 5.46027 10.4443 5.65898L10.0656 5.28031L9.28178 6.06411L9.66431 6.44278C9.4656 6.74278 9.32313 7.08028 9.24813 7.44404H8.71191V8.55025H9.24813C9.3228 8.9137 9.46543 9.25117 9.66414 9.55117L9.66413 9.55116ZM12.0003 6.76497C12.679 6.76497 13.2303 7.31623 13.2303 7.99491C13.2303 8.67358 12.679 9.22485 12.0003 9.22485C11.3178 9.22485 10.7704 8.67358 10.7704 7.99491C10.7704 7.31623 11.3178 6.76497 12.0003 6.76497Z" fill="#9799B5"/>
<path d="M9.33719 12.3823L9.06347 12.4648C9.00722 12.4836 8.95851 12.5211 8.92855 12.5737C8.89858 12.6262 8.89473 12.6862 8.9098 12.7461C8.93976 12.8398 9.02597 12.9073 9.12358 12.9073C9.14601 12.9073 9.16861 12.9036 9.18736 12.8961L9.99358 12.6523L10.0311 12.6336C10.0761 12.6073 10.1098 12.5773 10.1285 12.5362C10.1548 12.4799 10.1585 12.4161 10.136 12.3562L9.83604 11.5687C9.80223 11.4825 9.71986 11.4224 9.62611 11.4224C9.59983 11.4224 9.57355 11.4261 9.54744 11.4375C9.49119 11.4599 9.44615 11.5012 9.42372 11.5575C9.39744 11.6137 9.39744 11.6737 9.42004 11.7299L9.51011 11.9586C7.96509 10.9873 7.1401 9.20605 7.39891 7.39138C7.41766 7.26766 7.33144 7.15516 7.17759 7.13641C7.06509 7.13641 6.97134 7.21895 6.95628 7.33145C6.66716 9.35256 7.60097 11.325 9.33717 12.3825L9.33719 12.3823Z" fill="#9799B5"/>
<path d="M14.0398 4.44012C14.0737 4.52265 14.156 4.5789 14.2461 4.5789C14.2761 4.5789 14.306 4.57137 14.3323 4.56015C14.4448 4.51143 14.501 4.38019 14.4523 4.26769L14.3586 4.04269C15.9411 4.98018 16.8411 6.81397 16.601 8.63648C16.5935 8.69641 16.6085 8.75651 16.646 8.80155C16.6835 8.85026 16.7361 8.88023 16.796 8.88776L16.826 8.89145C16.9385 8.89145 17.0323 8.80891 17.0473 8.69641C17.3135 6.6639 16.301 4.63139 14.5161 3.61534L14.7898 3.52528C14.906 3.48778 14.9698 3.35653 14.9323 3.24035C14.9023 3.15028 14.8161 3.08667 14.7185 3.08667C14.6961 3.08667 14.6698 3.09035 14.6472 3.09789L13.8485 3.36406C13.7886 3.38281 13.7397 3.42785 13.7136 3.4841C13.6873 3.54035 13.6873 3.60781 13.7099 3.66406L14.0398 4.44012Z" fill="#9799B5"/>
</svg>
