<svg width="16" height="16" viewBox="0 0 16 16" fill="none" xmlns="http://www.w3.org/2000/svg">
<path d="M8.00798 15.9997C5.9608 16.0006 3.90652 15.2194 2.34316 13.656C0.783835 12.0968 -0.000212158 10.0481 3.37065e-07 8.00452C-0.000592556 5.95807 0.780982 3.90518 2.34337 2.34304C3.90388 0.782408 5.95427 -0.000576437 8 3.36465e-07C10.0454 -0.000592556 12.096 0.782378 13.6566 2.34291L13.2301 2.7697L12.8035 3.19624C11.4758 1.86884 9.74028 1.20776 8.00024 1.20719C6.25984 1.20802 4.52473 1.86899 3.19693 3.19636C1.86835 4.52552 1.20798 6.26176 1.2074 8.00452C1.20776 9.74231 1.87039 11.4755 3.19693 12.8027C4.52646 14.1321 6.26415 14.7916 8.00813 14.7922C9.74544 14.7918 11.4779 14.1292 12.8042 12.803C14.1295 11.4768 14.7923 9.74462 14.7928 8.00701C14.7924 6.2634 14.1326 4.52573 12.8038 3.19642L13.6573 2.34288C15.2201 3.90564 16.0012 5.96016 16 8.0071C16.0004 10.0508 15.2161 12.0982 13.6571 13.6568C12.0989 15.2143 10.0526 15.9997 8.00926 15.9997C8.00878 15.9999 8.00819 15.9999 8.00819 15.9999L8.00798 15.9997ZM11.1226 11.1223C11.3483 10.8966 11.3483 10.5304 11.1226 10.3046L8.81759 8L11.1226 5.69527C11.3483 5.46985 11.3483 5.10369 11.1226 4.8785C10.8963 4.65249 10.5304 4.65249 10.3049 4.87826L8.00045 7.18299L5.69573 4.87802C5.46995 4.65201 5.1039 4.65225 4.87859 4.87802C4.65258 5.10356 4.65258 5.46961 4.87859 5.69516L7.18308 8.00001L4.87786 10.3047C4.65209 10.5307 4.65185 10.8969 4.87786 11.1229C5.10329 11.3484 5.46969 11.3485 5.69524 11.1226L8.00045 8.81797L10.3051 11.1226C10.5308 11.3484 10.8968 11.3484 11.1226 11.1223V11.1223Z" fill="#FE5353"/>
</svg>
