<svg width="20" height="20" viewBox="0 0 20 20" fill="none" xmlns="http://www.w3.org/2000/svg">
<path d="M17.8374 2.93318L17.3973 4.45619C15.676 2.14603 12.9203 0.75 10 0.75C4.91232 0.75 0.75 4.88909 0.75 10C0.75 15.0877 4.88909 19.25 10 19.25C12.9372 19.25 15.6429 17.8847 17.4219 15.5281L17.422 15.5282L17.4272 15.5208C17.6583 15.1906 17.599 14.7173 17.2533 14.4752L17.2533 14.4751C16.9244 14.2449 16.4535 14.3028 16.2105 14.6449C14.7275 16.6056 12.4625 17.7373 9.9997 17.7373C5.72672 17.7373 2.23977 14.2709 2.23977 9.99983C2.23977 5.72812 5.72781 2.23991 9.9997 2.23991C12.3963 2.23991 14.594 3.31901 16.0553 5.1518L14.6155 4.74254C14.1708 4.60745 13.7796 4.88984 13.6551 5.26333C13.5135 5.68835 13.7977 6.10689 14.1733 6.23202L14.1733 6.23227L14.1843 6.2354L17.4293 7.15296C17.519 7.19044 17.6033 7.19003 17.6428 7.18985C17.6454 7.18983 17.6477 7.18982 17.6499 7.18982C17.6537 7.18982 17.6578 7.18985 17.6621 7.18987C17.7149 7.19017 17.8039 7.19067 17.8955 7.15191C18.131 7.07703 18.3211 6.87754 18.3864 6.62198L19.3065 3.36779C19.4385 2.96047 19.1993 2.53544 18.8087 2.40531L18.7964 2.44211L18.8035 2.40357C18.3577 2.26644 17.965 2.54927 17.8404 2.92356L17.8402 2.92349L17.8374 2.93318Z" fill="#AFB2D3" stroke="#AFB2D3" stroke-width="0.5"/>
</svg>
