<svg width="16" height="16" viewBox="0 0 16 16" fill="none" xmlns="http://www.w3.org/2000/svg">
<path d="M8 0C3.57604 0 0 3.57604 0 8C0 12.424 3.57604 16 8 16C12.424 16 16 12.424 16 8C16 3.57604 12.424 0 8 0ZM11.871 6.34101L7.13364 11.0599C6.98616 11.2074 6.80191 11.2811 6.61751 11.2811C6.43311 11.2811 6.23035 11.2074 6.10138 11.0599L3.76034 8.73726C3.46538 8.4423 3.46538 7.98147 3.76034 7.6865C4.0553 7.39154 4.51613 7.39154 4.81109 7.6865L6.61751 9.49292L10.8203 5.29016C11.1152 4.9952 11.5761 4.9952 11.871 5.29016C12.1475 5.58525 12.1475 6.06445 11.871 6.34105L11.871 6.34101Z" fill="#2ECC71"/>
</svg>
