<svg width="22" height="22" viewBox="0 0 22 22" fill="none" xmlns="http://www.w3.org/2000/svg">
<path d="M11.1 0.900486V0.9H11C5.42477 0.9 0.9 5.42477 0.9 11C0.9 16.5752 5.42477 21.1 11 21.1C16.5752 21.1 21.1 16.5752 21.1 11C21.1 5.45814 16.6292 0.954205 11.1 0.900486ZM11 2.49996C15.6848 2.49996 19.5 6.31519 19.5 11C19.5 15.6847 15.6848 19.5 11 19.5C6.31523 19.5 2.5 15.6847 2.5 11C2.5 6.31519 6.31523 2.49996 11 2.49996Z" fill="#AFB2D3" stroke="#AFB2D3" stroke-width="0.2"/>
<path d="M16.1307 8.23068L16.3014 8.05997H16.2586C16.4203 7.76527 16.3786 7.37954 16.1335 7.13198C15.9894 6.96608 15.7794 6.89994 15.5801 6.89994C15.3744 6.89994 15.1888 6.96979 15.0293 7.12929L8.89999 13.2586L6.97328 11.3319C6.82925 11.1661 6.61923 11.1 6.41994 11.1C6.21431 11.1 6.02871 11.1698 5.86922 11.3293C5.57008 11.6282 5.57011 12.1316 5.8692 12.4307L5.8692 12.4307L8.30931 14.8707C8.47246 15.034 8.70058 15.1001 8.90003 15.1001C9.12091 15.1001 9.32828 15.0331 9.4907 14.8707L16.1307 8.23068Z" fill="#AFB2D3" stroke="#AFB2D3" stroke-width="0.2"/>
</svg>
