<svg width="12" height="15" viewBox="0 0 12 15" fill="none" xmlns="http://www.w3.org/2000/svg">
<path d="M12 14C12 14.3683 11.7015 14.6666 11.3334 14.6666C10.9651 14.6666 10.6665 14.3683 10.6665 14C10.6665 11.4226 8.57738 9.33345 6 9.33345C3.42262 9.33345 1.33345 11.4226 1.33345 14C1.33345 14.3683 1.0349 14.6666 0.666607 14.6666C0.298535 14.6666 0 14.3683 0 14C0 10.6862 2.68625 8 6 8C9.31375 8 12 10.6863 12 14ZM6 7.33333C3.975 7.33333 2.33322 5.69179 2.33322 3.66655C2.33322 1.64155 3.975 0 6 0C8.025 0 9.66679 1.64155 9.66679 3.66655C9.66679 5.69173 8.025 7.33333 6 7.33333ZM6 6.00012C7.28857 6.00012 8.33327 4.95542 8.33327 3.66661C8.33327 2.37804 7.28857 1.33333 6 1.33333C4.71143 1.33333 3.66673 2.37804 3.66673 3.66661C3.66673 4.95542 4.71143 6.00012 6 6.00012Z" fill="#DEDFF5"/>
</svg>
