<svg width="60" height="32" viewBox="0 0 60 32" fill="none" xmlns="http://www.w3.org/2000/svg">
<rect x="20.7998" width="1.6" height="32" fill="#D1D5EE"/>
<rect x="16.7998" y="5.6" width="1.6" height="19.2" fill="#D1D5EE"/>
<rect x="12.7998" y="9.6" width="1.6" height="10.4" fill="#4ACB80"/>
<rect x="24.7998" y="5.6" width="1.6" height="19.2" fill="#D1D5EE"/>
<rect x="28.7998" y="8" width="1.6" height="14.4" fill="#D1D5EE"/>
<rect x="32.7998" y="5.6" width="1.6" height="21.6" fill="#D1D5EE"/>
<rect x="36.7998" y="10.4" width="1.6" height="9.6" fill="#D1D5EE"/>
<rect x="40.7998" y="8" width="1.6" height="14.4" fill="#D1D5EE"/>
<rect x="44.7998" y="12" width="1.6" height="8" fill="#D1D5EE"/>
<rect x="50.4004" y="13.6" width="1.6" height="3.2" fill="#D1D5EE"/>
<rect x="53.5996" y="12.8" width="1.6" height="4.8" fill="#D1D5EE"/>
<rect x="57.5996" y="13.6" width="1.6" height="4" fill="#D1D5EE"/>
<rect y="13.6" width="1.6" height="3.2" fill="#4ACB80"/>
<rect x="4" y="12.8" width="1.6" height="4.8" fill="#4ACB80"/>
<rect x="8" y="13.6" width="1.6" height="4" fill="#4ACB80"/>
</svg>
