<svg width="20" height="27" viewBox="0 0 20 27" fill="none" xmlns="http://www.w3.org/2000/svg">
<path d="M12.873 19.2686L15.3131 23.2233C15.7338 23.8684 16.205 25.3269 14.7241 26H6.22571C5.44039 25.972 3.9707 25.4951 4.37458 23.8123L5.30009 21.9612" stroke="#9799B5" stroke-width="2"/>
<circle cx="5.88962" cy="20.699" r="0.504854" fill="#C4C4C4"/>
<path fill-rule="evenodd" clip-rule="evenodd" d="M17.6893 9.84466C17.6893 14.1771 14.1771 17.6893 9.84466 17.6893C5.51217 17.6893 2 14.1771 2 9.84466C2 5.51217 5.51217 2 9.84466 2C14.1771 2 17.6893 5.51217 17.6893 9.84466ZM10.3721 19.6754C10.1975 19.6847 10.0216 19.6893 9.84466 19.6893C4.4076 19.6893 0 15.2817 0 9.84466C0 4.4076 4.4076 0 9.84466 0C15.2817 0 19.6893 4.4076 19.6893 9.84466C19.6893 14.4507 16.5261 18.3179 12.2536 19.3925L11.6963 17.6699L10.0134 18.343L10.3721 19.6754Z" fill="#9799B5"/>
<path fill-rule="evenodd" clip-rule="evenodd" d="M10.0991 3.89467V5.5213L11.4413 6.19237L12.9571 4.74874C14.6355 5.77653 15.7554 7.62723 15.7554 9.73949C15.7554 12.9692 13.1372 15.5874 9.90747 15.5874C6.67776 15.5874 4.05957 12.9692 4.05957 9.73949C4.05957 6.50978 6.67776 3.89159 9.90747 3.89159C9.9716 3.89159 10.0355 3.89262 10.0991 3.89467ZM13.7554 9.73949C13.7554 11.8646 12.0326 13.5874 9.90747 13.5874C7.78233 13.5874 6.05957 11.8646 6.05957 9.73949C6.05957 7.61435 7.78233 5.89159 9.90747 5.89159C12.0326 5.89159 13.7554 7.61435 13.7554 9.73949Z" fill="#9799B5"/>
<path fill-rule="evenodd" clip-rule="evenodd" d="M10.6713 7.17162L10.0134 8.41427L10.7707 9.59226L12.5938 9.37349C12.612 9.49987 12.6214 9.6291 12.6214 9.76052C12.6214 11.2476 11.4159 12.4531 9.92888 12.4531C8.44183 12.4531 7.23633 11.2476 7.23633 9.76052C7.23633 8.27347 8.44183 7.06797 9.92888 7.06797C10.1864 7.06797 10.4355 7.10412 10.6713 7.17162ZM10.6214 9.76052C10.6214 10.143 10.3114 10.4531 9.92888 10.4531C9.5464 10.4531 9.23633 10.143 9.23633 9.76052C9.23633 9.37803 9.5464 9.06797 9.92888 9.06797C10.3114 9.06797 10.6214 9.37803 10.6214 9.76052Z" fill="#9799B5"/>
</svg>
